<?xml version="1.0" encoding="utf-8"?>
<!-- Generator: Adobe Illustrator 16.0.0, SVG Export Plug-In . SVG Version: 6.00 Build 0)  -->
<!DOCTYPE svg PUBLIC "-//W3C//DTD SVG 1.1//EN" "http://www.w3.org/Graphics/SVG/1.1/DTD/svg11.dtd">
<svg version="1.1" id="레이어_1" xmlns="http://www.w3.org/2000/svg" xmlns:xlink="http://www.w3.org/1999/xlink" x="0px"
	 y="0px" width="1235px" height="1235px" viewBox="0 0 1235 1235" enable-background="new 0 0 1235 1235" xml:space="preserve">
<g>
	<path fill="#7CDA83" d="M1196.789,1062.072c0,73.595-59.668,133.261-133.261,133.261H170.709
		c-73.586,0-133.253-59.666-133.253-133.261V169.26C37.456,95.667,97.123,36,170.709,36h892.819
		c73.593,0,133.261,59.667,133.261,133.26V1062.072z"/>
	<g>
		<g enable-background="new    ">
			<path fill="#FFFFFF" d="M276.334,901.479c0,29.688,12.047,65.4,47.33,81.32l-18.932,27.322
				c-21.944-9.682-36.358-27.967-45.394-49.695c-8.39,24.309-23.449,44.316-46.253,54.859l-19.362-27.322
				c35.497-16.566,47.544-54,47.544-86.484v-3.658h-39.369v-28.396h111.869v28.396h-37.433V901.479z M385.622,953.756h-27.107
				v98.961h-34.852V850.922h34.852v74.436h27.107V953.756z"/>
			<path fill="#FFFFFF" d="M506.096,871.145c0,63.68-17.856,113.807-91.862,149.088l-18.071-27.107
				c50.125-24.094,69.918-52.277,74.436-94.658h-62.819v-27.322H506.096z M566.334,850.707v201.58h-34.852v-201.58H566.334z"/>
			<path fill="#FFFFFF" d="M743.816,854.795h32.271v189.533h-32.271v-64.111h-23.234V952.68h23.234v-22.803h-18.932
				c-9.035,32.914-28.397,59.807-66.046,81.75l-19.362-24.311c38.079-23.02,53.784-48.404,57.441-86.268h-44.533v-27.322h78.739
				c0,10.111-0.431,19.576-1.506,28.828h14.198V854.795z M818.898,850.707v201.58h-32.915v-201.58H818.898z"/>
			<path fill="#FFFFFF" d="M945.18,948.377h-98.961v-88.42h34.421v21.084h30.119v-21.084h34.421V948.377z M900.432,1025.18h106.707
				v26.463H866.011V992.91h101.543v-7.529H865.797v-26.246h136.18v58.301H900.432V1025.18z M910.76,906.858H880.64v14.844h30.119
				V906.858z M1026.931,887.065v27.967h-24.955v37.434h-34.853V850.707h34.853v36.357H1026.931z"/>
		</g>
	</g>
	<g>
		
			<path fill="#FFFFFF" stroke="#FFFFFF" stroke-width="33" stroke-linecap="round" stroke-linejoin="round" stroke-miterlimit="10" d="
			M357.5,305.711v303.104c0,0,116-48.613,225,25.625V319.87C582.5,319.87,508.5,217.333,357.5,305.711z"/>
		
			<path fill="#FFFFFF" stroke="#FFFFFF" stroke-width="33" stroke-linecap="round" stroke-linejoin="round" stroke-miterlimit="10" d="
			M882.5,305.711v303.104c0,0-122-48.613-225,25.625V319.87C657.5,319.87,738.5,217.333,882.5,305.711z"/>
		
			<path fill="none" stroke="#FFFFFF" stroke-width="38.2428" stroke-linecap="round" stroke-linejoin="round" stroke-miterlimit="10" d="
			M340.396,711.666c0,0,89.218-81.781,203.975-7.409c0,0,67.976,71.146,163.597,1.04c0,0,71.173-82.129,185.884-0.707"/>
		
			<path fill="none" stroke="#FFFFFF" stroke-width="38.2428" stroke-linecap="round" stroke-linejoin="round" stroke-miterlimit="10" d="
			M351.016,622.948c0,0,78.598-82.294,193.354-7.948c0,0,67.976,71.175,163.597,1.065c0,0,63.726-84.341,178.455-2.912"/>
		
			<path fill="none" stroke="#FFFFFF" stroke-width="38.2428" stroke-linecap="round" stroke-linejoin="round" stroke-miterlimit="10" d="
			M351.016,304.278c0,0,78.598-82.314,193.354-7.963c0,0,67.976,71.16,163.597,1.047c0,0,63.726-84.326,178.455-2.904"/>
	</g>
</g>
</svg>
