<?xml version="1.0" encoding="utf-8"?>
<!-- Generator: Adobe Illustrator 16.0.0, SVG Export Plug-In . SVG Version: 6.00 Build 0)  -->
<!DOCTYPE svg PUBLIC "-//W3C//DTD SVG 1.1//EN" "http://www.w3.org/Graphics/SVG/1.1/DTD/svg11.dtd">
<svg version="1.1" id="레이어_1" xmlns="http://www.w3.org/2000/svg" xmlns:xlink="http://www.w3.org/1999/xlink" x="0px"
	 y="0px" width="1235px" height="1235px" viewBox="0 0 1235 1235" enable-background="new 0 0 1235 1235" xml:space="preserve">
<g>
	<path fill="#FA9E31" d="M1195.798,1062.757c0,73.426-59.531,132.959-132.959,132.959H172.033
		c-73.419,0-132.952-59.533-132.952-132.959V171.959C39.081,98.533,98.614,39,172.033,39h890.806
		c73.428,0,132.959,59.533,132.959,132.959V1062.757z"/>
	<g>
		<path fill="#FFFFFF" d="M729.969,604.939c0,41.337,21.472,74.836,47.957,74.836h2.474c26.485,0,47.958-33.499,47.958-74.836
			V355.495c0-41.323-21.473-74.829-47.958-74.829h-2.474c-26.485,0-47.957,33.506-47.957,74.829V604.939z"/>
		<path fill="#FFFFFF" d="M843.676,566.567c0,28.612,16.486,51.801,36.829,51.801h1.889c20.343,0,36.836-23.188,36.836-51.801
			V393.867c0-28.601-16.493-51.795-36.836-51.795h-1.889c-20.343,0-36.829,23.194-36.829,51.795V566.567z"/>
		<path fill="#FFFFFF" d="M750.37,481.506c0,25.43-8.548,47.494-19.064,47.494h-241.38c-10.53,0-19.066-22.064-19.066-47.494l0,0
			c0-25.422,8.536-47.506,19.066-47.506h241.38C741.822,434,750.37,456.084,750.37,481.506L750.37,481.506z"/>
		<path fill="#FFFFFF" d="M954.889,535.86c0,18.448-10.624,33.399-23.747,33.399h-1.21c-13.116,0-23.746-14.951-23.746-33.399
			V424.58c0-18.447,10.63-33.398,23.746-33.398h1.21c13.123,0,23.747,14.951,23.747,33.398V535.86z"/>
		<path fill="#FFFFFF" d="M495.211,604.939c0,41.337-21.731,74.836-48.551,74.836h-2.492c-26.817,0-48.563-33.499-48.563-74.836
			V355.495c0-41.323,21.746-74.829,48.563-74.829h2.492c26.818,0,48.551,33.506,48.551,74.829V604.939z"/>
		<path fill="#FFFFFF" d="M381.51,566.567c0,28.612-16.486,51.801-36.843,51.801h-1.889c-20.343,0-36.83-23.188-36.83-51.801
			V393.867c0-28.601,16.487-51.795,36.83-51.795h1.889c20.355,0,36.843,23.194,36.843,51.795V566.567L381.51,566.567z"/>
		<path fill="#FFFFFF" d="M279.989,535.86c0,18.448,10.616,33.399,23.746,33.399h1.21c13.116,0,23.747-14.951,23.747-33.399V424.58
			c0-18.447-10.631-33.398-23.747-33.398h-1.21c-13.13,0-23.746,14.951-23.746,33.398V535.86z"/>
	</g>
	<g>
		<g enable-background="new    ">
			<path fill="#FFFFFF" d="M609.522,942.858v28.549h-75.904v32.854h-37.385v-32.854H416.93v-28.549H609.522z M435.737,889.838
				c0-27.189,31.268-44.637,77.489-44.637c46.222,0,77.49,17.447,77.49,44.637c0,27.416-31.268,44.861-77.49,44.861
				C467.004,934.699,435.737,917.254,435.737,889.838z M475.387,1022.612h113.289v28.775H438.229v-64.574h37.159V1022.612z
				 M475.161,889.838c0,11.102,14.274,16.086,38.065,16.086c23.791,0,38.065-4.984,38.065-16.086
				c0-11.104-14.274-16.088-38.065-16.088C489.435,873.75,475.161,878.735,475.161,889.838z"/>
			<path fill="#FFFFFF" d="M818.422,939.233v28.775H625.603v-28.775h77.943V925.41h-55.285v-74.771H795.99v28.549H684.74v17.674
				h112.156v28.549h-56.645v13.822H818.422z M795.537,1015.588c0,25.15-28.322,39.652-74.543,39.652
				c-45.996,0-74.318-14.502-74.318-39.652c0-25.377,28.322-39.877,74.318-39.877C767.215,975.711,795.537,990.211,795.537,1015.588
				z M758.379,1015.588c0-8.836-11.557-12.234-37.385-12.234c-25.83,0-37.16,3.398-37.16,12.234s11.33,12.01,37.16,12.01
				C746.822,1027.598,758.379,1024.424,758.379,1015.588z"/>
		</g>
	</g>
</g>
</svg>
