<?xml version="1.0" encoding="utf-8"?>
<!-- Generator: Adobe Illustrator 16.0.0, SVG Export Plug-In . SVG Version: 6.00 Build 0)  -->
<!DOCTYPE svg PUBLIC "-//W3C//DTD SVG 1.1//EN" "http://www.w3.org/Graphics/SVG/1.1/DTD/svg11.dtd">
<svg version="1.1" id="레이어_1" xmlns="http://www.w3.org/2000/svg" xmlns:xlink="http://www.w3.org/1999/xlink" x="0px"
	 y="0px" width="1235px" height="1235px" viewBox="0 0 1235 1235" enable-background="new 0 0 1235 1235" xml:space="preserve">
<g>
	<path fill="#5EAFF3" d="M1197.72,1061.351c0,73.477-59.572,133.049-133.042,133.049H173.272
		c-73.477,0-133.048-59.572-133.048-133.049V169.952c0-73.477,59.571-133.05,133.048-133.05h891.406
		c73.47,0,133.042,59.573,133.042,133.05V1061.351z"/>
	<g>
		<g enable-background="new    ">
			<path fill="#FFFFFF" d="M206.124,869.651h80.979v134.033h-80.979V869.651z M238.344,976.834h16.754V896.5h-16.754V976.834z
				 M375.385,850.319v201.266h-32.864v-98.377h-11.599v90.215h-32.22V853.112h32.22v72.602h11.599v-75.395H375.385z"/>
			<path fill="#FFFFFF" d="M455.714,948.91c-31.146,0-54.773-19.547-54.773-46.826c0-27.064,23.627-46.611,54.773-46.611
				c31.146,0,54.773,19.547,54.773,46.611C510.487,929.364,486.86,948.91,455.714,948.91z M571.92,1023.446v26.42H431.012v-58.639
				h102.244v-7.52H430.798v-26.205h136.826v58.426H465.38v7.518H571.92z M455.714,921.201c12.244,0,21.266-6.443,21.266-19.117
				c0-12.672-9.021-18.902-21.266-18.902c-12.243,0-21.265,6.23-21.265,18.902C434.449,914.758,443.47,921.201,455.714,921.201z
				 M567.624,949.985h-34.797v-99.666h34.797V949.985z"/>
			<path fill="#FFFFFF" d="M828.166,936.239v27.064H645.587v-27.064H828.166z M807.76,930.223
				c-35.227-4.295-58.425-17.398-70.884-35.012c-12.458,17.613-35.656,30.717-70.883,35.012l-12.243-26.85
				c50.692-5.369,65.298-28.354,65.298-46.182v-4.51h35.657v4.51c0,17.828,14.605,40.813,65.298,46.182L807.76,930.223z
				 M771.244,971.035h34.367v78.83H665.993v-78.83h34.367v13.531h70.884V971.035z M771.244,1010.344H700.36v12.887h70.884V1010.344z
				"/>
			<path fill="#FFFFFF" d="M964.342,967.383c-41.456,7.947-87.423,8.807-121.791,9.021l-3.007-27.064
				c10.096,0,21.479,0,33.509-0.215V912.61h34.152v35.441c18.688-1.074,37.59-2.576,54.988-4.939L964.342,967.383z M918.16,933.016
				c2.792-16.324,3.651-29.643,3.866-41.027h-70.883v-27.279h105.251v13.533c0,14.605,0,34.367-4.511,58.855L918.16,933.016z
				 M902.909,1021.727h109.762v27.279H868.112V987.36h34.797V1021.727z M1027.922,909.604v28.137h-21.479v62.938h-34.798V850.319
				h34.798v59.285H1027.922z"/>
		</g>
	</g>
	<g>
		<path fill="#FFFFFF" d="M469.871,271.561c9.674,9.673,9.674,25.348,0,35.02l-70.022,70.018c-9.673,9.673-25.347,9.673-35.006,0
			l0,0c-9.673-9.673-9.673-25.333,0-35.005l70.023-70.031C444.525,261.895,460.198,261.895,469.871,271.561L469.871,271.561z"/>
		<path fill="#FFFFFF" d="M587.359,304.278c-115.779,0-209.625,93.853-209.625,209.618c0,115.765,93.846,209.604,209.625,209.604
			c115.745,0,209.604-93.84,209.604-209.604C796.965,398.13,703.104,304.278,587.359,304.278z M664.629,589.627
			c-7.632,7.591-18.881,8.66-25.101,2.422l-58.441-58.415c-9.508-2.682-16.432-11.442-16.432-21.787
			c0-2.534,0.398-5.003,1.237-7.285V363.684c0-5.429,8.913-9.892,19.811-9.892c5.429,0,10.392,1.084,13.957,2.92
			c3.618,1.783,5.854,4.271,5.854,6.972v134.553c1.923,2.562,3.353,5.541,4.045,8.809l57.483,57.483
			C673.349,570.761,672.204,581.995,664.629,589.627z"/>
		<path fill="#FFFFFF" d="M711.44,271.561c-9.673,9.673-9.68,25.348,0,35.02l70.023,70.018c9.673,9.673,25.347,9.673,34.999,0l0,0
			c9.68-9.673,9.68-25.333,0.014-35.005l-70.031-70.031C736.786,261.895,721.113,261.895,711.44,271.561L711.44,271.561z"/>
	</g>
</g>
</svg>
