<?xml version="1.0" encoding="utf-8"?>
<!-- Generator: Adobe Illustrator 16.0.0, SVG Export Plug-In . SVG Version: 6.00 Build 0)  -->
<!DOCTYPE svg PUBLIC "-//W3C//DTD SVG 1.1//EN" "http://www.w3.org/Graphics/SVG/1.1/DTD/svg11.dtd">
<svg version="1.1" id="레이어_1" xmlns="http://www.w3.org/2000/svg" xmlns:xlink="http://www.w3.org/1999/xlink" x="0px"
	 y="0px" width="1235px" height="1235px" viewBox="0 0 1235 1235" enable-background="new 0 0 1235 1235" xml:space="preserve">
<g>
	<path fill="#FFFFFF" d="M2225.871,271.561c9.674,9.673,9.674,25.348,0,35.02l-70.022,70.018c-9.673,9.673-25.347,9.673-35.006,0
		l0,0c-9.673-9.673-9.673-25.333,0-35.005l70.023-70.031C2200.525,261.895,2216.198,261.895,2225.871,271.561L2225.871,271.561z"/>
	<path fill="#FFFFFF" d="M2343.359,304.278c-115.779,0-209.625,93.853-209.625,209.618c0,115.765,93.846,209.604,209.625,209.604
		c115.745,0,209.604-93.84,209.604-209.604C2552.965,398.13,2459.104,304.278,2343.359,304.278z M2420.629,589.627
		c-7.632,7.591-18.881,8.66-25.101,2.422l-58.442-58.415c-9.507-2.682-16.431-11.442-16.431-21.787c0-2.534,0.398-5.003,1.237-7.285
		V363.684c0-5.429,8.913-9.892,19.811-9.892c5.429,0,10.392,1.084,13.957,2.92c3.618,1.783,5.854,4.271,5.854,6.972v134.553
		c1.923,2.562,3.353,5.541,4.045,8.809l57.483,57.483C2429.349,570.761,2428.205,581.995,2420.629,589.627z"/>
	<path fill="#FFFFFF" d="M2467.44,271.561c-9.673,9.673-9.68,25.348,0,35.02l70.022,70.018c9.674,9.673,25.348,9.673,35,0l0,0
		c9.68-9.673,9.68-25.333,0.014-35.005l-70.031-70.031C2492.786,261.895,2477.113,261.895,2467.44,271.561L2467.44,271.561z"/>
</g>
<g>
	<path fill="#176EF6" d="M1197.72,1061.351c0,73.477-59.572,133.049-133.042,133.049H173.272
		c-73.477,0-133.048-59.572-133.048-133.049V169.952c0-73.477,59.571-133.05,133.048-133.05h891.406
		c73.47,0,133.042,59.573,133.042,133.05V1061.351z"/>
	<g>
		<g enable-background="new    ">
			<path fill="#FFFFFF" d="M439.606,972.539c-21.695-6.66-36.086-19.762-45.107-36.086c-8.807,17.828-23.843,32.219-47.041,39.307
				l-17.828-26.85c34.368-10.525,45.967-35.227,46.826-58.209h-37.375v-27.064h109.332v27.064h-36.516
				c0.859,21.479,12.244,44.678,45.322,54.988L439.606,972.539z M503.616,1021.727v27.279H361.849V982.42h34.797v39.307H503.616z
				 M498.89,994.877h-34.797V850.533h34.797V994.877z"/>
			<path fill="#FFFFFF" d="M622.394,895.641h-95.585v-26.42h30.716v-16.324h34.153v16.324h30.716V895.641z M574.924,971.035
				c-25.347,0-43.819-14.822-43.819-35.441c0-20.836,18.473-35.656,43.819-35.656c25.346,0,43.818,14.82,43.818,35.656
				C618.742,956.213,600.27,971.035,574.924,971.035z M701.654,1014.854c0,23.842-26.85,37.59-70.453,37.59
				c-43.819,0-70.669-13.748-70.669-37.59c0-24.057,26.85-37.805,70.669-37.805C674.804,977.049,701.654,990.797,701.654,1014.854z
				 M574.924,946.549c7.732,0,13.103-3.652,13.103-10.955c0-7.518-5.37-11.17-13.103-11.17c-7.733,0-13.103,3.652-13.103,11.17
				C561.821,942.897,567.191,946.549,574.924,946.549z M666.857,1014.854c0-8.807-11.17-12.029-35.656-12.029
				c-24.702,0-35.872,3.223-35.872,12.029c0,8.592,11.17,11.814,35.872,11.814C655.687,1026.668,666.857,1023.446,666.857,1014.854z
				 M658.91,969.746h-32.221V854.186h32.221v43.174h8.807v-47.041h32.863V975.76h-32.863v-50.691h-8.807V969.746z"/>
			<path fill="#FFFFFF" d="M833.965,967.598v11.385c33.078,3.438,52.625,16.109,52.625,36.301c0,23.627-26.85,37.16-70.453,37.16
				c-43.818,0-70.668-13.533-70.668-37.16c0-20.406,19.977-33.293,53.699-36.516v-11.17h-73.891v-27.064h182.578v27.064H833.965z
				 M731.72,908.1c35.656-2.793,51.768-12.889,57.781-22.77h-47.686v-27.064h149.715v27.064h-47.9
				c5.799,9.881,21.91,19.977,57.781,22.77l-11.814,26.85c-39.953-3.008-62.721-16.754-73.031-34.367
				c-10.311,17.613-33.078,31.359-73.031,34.367L731.72,908.1z M816.136,1004.328c-24.486,0-35.441,2.793-35.441,10.955
				c0,7.947,10.955,10.955,35.441,10.955c24.271,0,35.227-3.008,35.227-10.955C851.363,1007.121,840.408,1004.328,816.136,1004.328z
				"/>
		</g>
	</g>
	
		<polyline fill="none" stroke="#FFFFFF" stroke-width="75" stroke-linecap="round" stroke-linejoin="round" stroke-miterlimit="10" points="
		488.476,523.28 553.737,615.524 781.524,454.88 	"/>
	<path fill="none" stroke="#FFFFFF" stroke-width="52" stroke-linecap="round" stroke-linejoin="round" stroke-miterlimit="10" d="
		M894,739.482c0,6.913-5.604,12.519-12.518,12.519H388.518c-6.913,0-12.519-5.604-12.519-12.519V246.518
		c0-6.914,5.604-12.518,12.519-12.518h492.965c6.913,0,12.519,5.604,12.519,12.518v492.964H894z"/>
</g>
</svg>
