<?xml version="1.0" encoding="utf-8"?>
<!-- Generator: Adobe Illustrator 16.0.0, SVG Export Plug-In . SVG Version: 6.00 Build 0)  -->
<!DOCTYPE svg PUBLIC "-//W3C//DTD SVG 1.1//EN" "http://www.w3.org/Graphics/SVG/1.1/DTD/svg11.dtd">
<svg version="1.1" id="레이어_1" xmlns="http://www.w3.org/2000/svg" xmlns:xlink="http://www.w3.org/1999/xlink" x="0px"
	 y="0px" width="1235px" height="1235px" viewBox="0 0 1235 1235" enable-background="new 0 0 1235 1235" xml:space="preserve">
<g>
	<path fill="#FA9E31" d="M1195.798,1062.757c0,73.426-59.531,132.959-132.959,132.959H172.033
		c-73.419,0-132.952-59.533-132.952-132.959V171.959C39.081,98.533,98.614,39,172.033,39h890.806
		c73.428,0,132.959,59.533,132.959,132.959V1062.757z"/>
	<g>
		<path fill="#FFFFFF" d="M777.987,758.653c0,58.976,30.634,106.769,68.421,106.769h3.529c37.787,0,68.422-47.793,68.422-106.769
			V402.769c0-58.957-30.635-106.759-68.422-106.759h-3.529c-37.787,0-68.421,47.803-68.421,106.759V758.653z"/>
		<path fill="#FFFFFF" d="M940.213,703.906c0,40.821,23.521,73.904,52.545,73.904h2.694c29.023,0,52.554-33.081,52.554-73.904
			V457.515c0-40.805-23.53-73.896-52.554-73.896h-2.694c-29.023,0-52.545,33.092-52.545,73.896V703.906z"/>
		<path fill="#FFFFFF" d="M807.093,582.55c0,36.28-12.195,67.76-27.199,67.76H435.514c-15.024,0-27.202-31.479-27.202-67.76l0,0
			c0-36.27,12.178-67.777,27.202-67.777h344.379C794.897,514.773,807.093,546.28,807.093,582.55L807.093,582.55z"/>
		<path fill="#FFFFFF" d="M1098.883,660.097c0,26.32-15.157,47.65-33.88,47.65h-1.727c-18.713,0-33.879-21.33-33.879-47.65V501.333
			c0-26.319,15.166-47.65,33.879-47.65h1.727c18.723,0,33.88,21.331,33.88,47.65V660.097z"/>
		<path fill="#FFFFFF" d="M443.054,758.653c0,58.976-31.004,106.769-69.268,106.769h-3.556c-38.261,0-69.286-47.793-69.286-106.769
			V402.769c0-58.957,31.025-106.759,69.286-106.759h3.556c38.262,0,69.268,47.803,69.268,106.759V758.653z"/>
		<path fill="#FFFFFF" d="M280.838,703.906c0,40.821-23.521,73.904-52.564,73.904h-2.695c-29.023,0-52.546-33.081-52.546-73.904
			V457.515c0-40.805,23.523-73.896,52.546-73.896h2.695c29.041,0,52.564,33.092,52.564,73.896V703.906L280.838,703.906z"/>
		<path fill="#FFFFFF" d="M135.996,660.097c0,26.32,15.146,47.65,33.879,47.65h1.726c18.713,0,33.88-21.33,33.88-47.65V501.333
			c0-26.319-15.167-47.65-33.88-47.65h-1.726c-18.733,0-33.879,21.331-33.879,47.65V660.097z"/>
	</g>
</g>
</svg>
