<?xml version="1.0" encoding="utf-8"?>
<!-- Generator: Adobe Illustrator 16.0.0, SVG Export Plug-In . SVG Version: 6.00 Build 0)  -->
<!DOCTYPE svg PUBLIC "-//W3C//DTD SVG 1.1//EN" "http://www.w3.org/Graphics/SVG/1.1/DTD/svg11.dtd">
<svg version="1.1" id="레이어_1" xmlns="http://www.w3.org/2000/svg" xmlns:xlink="http://www.w3.org/1999/xlink" x="0px"
	 y="0px" width="1235px" height="1235px" viewBox="0 0 1235 1235" enable-background="new 0 0 1235 1235" xml:space="preserve">
<g>
	<path fill="#176EF6" d="M1197.72,1061.351c0,73.477-59.572,133.049-133.042,133.049H173.272
		c-73.478,0-133.048-59.572-133.048-133.049V169.952c0-73.478,59.57-133.051,133.048-133.051h891.406
		c73.47,0,133.042,59.573,133.042,133.051V1061.351z"/>
	
		<polyline fill="none" stroke="#FFFFFF" stroke-width="96.6537" stroke-linecap="round" stroke-linejoin="round" stroke-miterlimit="10" points="
		450.8,597.01 534.903,715.886 828.456,508.863 	"/>
	
		<path fill="none" stroke="#FFFFFF" stroke-width="67.0132" stroke-linecap="round" stroke-linejoin="round" stroke-miterlimit="10" d="
		M952.749,944.645c0,8.909-7.222,16.133-16.132,16.133H301.326c-8.909,0-16.134-7.222-16.134-16.133V309.354
		c0-8.91,7.222-16.131,16.134-16.131h635.292c8.909,0,16.135,7.221,16.135,16.131v635.291H952.749z"/>
</g>
</svg>
