<?xml version="1.0" encoding="utf-8"?>
<!-- Generator: Adobe Illustrator 16.0.0, SVG Export Plug-In . SVG Version: 6.00 Build 0)  -->
<!DOCTYPE svg PUBLIC "-//W3C//DTD SVG 1.1//EN" "http://www.w3.org/Graphics/SVG/1.1/DTD/svg11.dtd">
<svg version="1.1" xmlns="http://www.w3.org/2000/svg" xmlns:xlink="http://www.w3.org/1999/xlink" x="0px" y="0px" width="414px"
	 height="896px" viewBox="0 0 414 896" enable-background="new 0 0 414 896" xml:space="preserve">
<g id="레이어_1" display="none">
	
		<image display="inline" overflow="visible" opacity="0.5" width="319" height="646" xlink:href="C86F5FC.jpg"  transform="matrix(1.5047 0 0 1.5047 -27.0068 -41.0322)">
	</image>
</g>
<g id="레이어_2">
	<g opacity="0.5">
		<image overflow="visible" width="295" height="124" xlink:href="C86F5FC.png"  transform="matrix(1 0 0 1 59 551)">
		</image>
	</g>
	<g id="레이어_4" display="none">
		<g display="inline">
			<defs>
				<path id="SVGID_1_" d="M-12.667,519.667c0,0,164.341-82.667,446,119.333l48.666,282l-498-5.333L-12.667,519.667z"/>
			</defs>
			<clipPath id="SVGID_2_">
				<use xlink:href="#SVGID_1_"  overflow="visible"/>
			</clipPath>
			<rect x="-6" y="503" clip-path="url(#SVGID_2_)" fill="#001AFF" width="430" height="402"/>
		</g>
		<g display="inline">
			<defs>
				<rect id="SVGID_3_" x="105" y="-8" width="319" height="289"/>
			</defs>
			<clipPath id="SVGID_4_">
				<use xlink:href="#SVGID_3_"  overflow="visible"/>
			</clipPath>
			<path clip-path="url(#SVGID_4_)" fill="#FFD400" d="M104.667-8.167c0,0,22,205.833,345.333,279.833V-8L104.667-8.167z"/>
		</g>
		<g display="inline">
			<defs>
				<rect id="SVGID_5_" x="-3" y="-8" width="236" height="499"/>
			</defs>
			<clipPath id="SVGID_6_">
				<use xlink:href="#SVGID_5_"  overflow="visible"/>
			</clipPath>
			<path clip-path="url(#SVGID_6_)" fill="#75D68A" d="M-3-8.167L202-2c0,0-4.667,314.333-214.667,497L-3-8.167z"/>
		</g>
	</g>
	<g id="레이어_6">
		
			<image display="none" overflow="visible" width="2048" height="2048" xlink:href="KakaoTalk_20211020_114625763.png"  transform="matrix(0.2542 0 0 0.2542 -470.48 200.1865)">
		</image>
		<g id="레이어_8">
		</g>
		<path fill="#FFB231" stroke="#FFB231" stroke-miterlimit="10" d="M304.44,533l-32.19-111.67c0,0-10.59-29.67-26.29-37.09
			c-10.29-7.19-23.96-11.57-38.96-11.57c-14.41,0-27.58,4.04-37.72,10.74c-0.01,0-0.02,0.01-0.03,0.02
			c-15.68,7.43-26.25,33.9-26.25,33.9L99.33,533c-18.2,40.97,14.01,70.21,15.61,71.63c0.04,0.04,0.06,0.061,0.06,0.061
			c8.66,9,20.66,15.01,34,15.529c0.06,0.011,0.13,0.28,0.2,0.28h3.56l100.021-0.23c14.14,0,26.91-6.015,36-15.465
			c0,0,0.02-0.082,0.06-0.112C290.43,603.272,322.65,573.97,304.44,533z M149,619.96v-0.01c0.04,0.01,0.09,0.01,0.14,0.01H149z"/>
		<g id="레이어_7">
		</g>
		<g>
			
				<line fill="none" stroke="#2E2E2E" stroke-width="7" stroke-linecap="round" stroke-miterlimit="10" x1="217.5" y1="419" x2="217.5" y2="427"/>
			
				<line fill="none" stroke="#2E2E2E" stroke-width="7" stroke-linecap="round" stroke-miterlimit="10" x1="196.5" y1="419" x2="196.5" y2="427"/>
			<path fill="none" stroke="#2E2E2E" stroke-width="7" stroke-linecap="round" stroke-miterlimit="10" d="M214.125,437.625
				c0,4.004-3.246,7.25-7.25,7.25c-4.004,0-7.25-3.246-7.25-7.25"/>
		</g>
	</g>
	<path fill="#3751FE" d="M315.855,300c0,21.653-17.559,39-39.211,39h-60.037l-10.543,16.408L196.723,339h-60.368
		c-21.653,0-39.211-17.347-39.211-39c0-10.822,4.392-20.528,11.484-27.621c7.093-7.093,16.904-11.379,27.727-11.379h140.289
		C298.297,261,315.855,278.347,315.855,300z"/>
	<g id="레이어_5">
		<g>
			<path fill="#1868FB" d="M115.875,191.31h7.36v3.772h-0.92l-3.427,14.122h-6.877l-2.093-9.936h-0.23l-2.208,9.936h-6.877
				l-3.657-14.122h-0.92v-3.772h8.51v3.772h-0.874l0.897,5.865h0.23l2.185-9.637h6.624l2.024,9.637h0.23l0.897-5.865h-0.874V191.31z
				"/>
			<path fill="#1868FB" d="M124.063,207.813c-1.227-1.142-1.84-2.81-1.84-5.002c0-2.192,0.613-3.86,1.84-5.002
				c1.227-1.142,2.928-1.713,5.106-1.713c2.162,0,3.722,0.563,4.681,1.69c0.958,1.127,1.438,2.526,1.438,4.197v1.656h-7.452v0.138
				c0,0.568,0.168,0.986,0.506,1.254c0.337,0.268,0.897,0.402,1.679,0.402c0.935,0,1.824-0.069,2.668-0.207
				c0.843-0.138,1.579-0.314,2.208-0.529v3.68c-0.537,0.292-1.323,0.556-2.357,0.793c-1.035,0.238-2.159,0.356-3.37,0.356
				C126.992,209.526,125.29,208.955,124.063,207.813z M130.503,201.108v-0.276c0-0.521-0.111-0.897-0.333-1.127
				c-0.223-0.23-0.556-0.345-1-0.345c-0.445,0-0.778,0.119-1,0.357c-0.223,0.238-0.333,0.609-0.333,1.115v0.276H130.503z"/>
			<path fill="#1868FB" d="M145.143,207.318c-1.572-1.472-2.358-3.825-2.358-7.061c0-6.179,3.005-9.269,9.016-9.269
				c1.457,0,2.81,0.176,4.06,0.529c1.25,0.353,2.181,0.744,2.794,1.173v5.75h-5.52v-1.656c0-0.583-0.13-1.012-0.391-1.288
				s-0.652-0.414-1.173-0.414c-0.521,0-0.913,0.138-1.173,0.414c-0.261,0.276-0.391,0.706-0.391,1.288v6.946
				c0,0.583,0.13,1.012,0.391,1.288c0.26,0.276,0.651,0.414,1.173,0.414c0.521,0,0.912-0.138,1.173-0.414s0.391-0.705,0.391-1.288
				v-1.863h5.52v5.957c-0.629,0.429-1.56,0.82-2.794,1.173s-2.572,0.529-4.014,0.529
				C148.949,209.526,146.714,208.79,145.143,207.318z"/>
			<path fill="#1868FB" d="M172.892,205.432v3.772h-6.072v-1.564c-0.337,0.491-0.809,0.928-1.415,1.311
				c-0.606,0.383-1.345,0.575-2.219,0.575c-1.15,0-2.055-0.307-2.714-0.92c-0.659-0.613-0.989-1.479-0.989-2.599
				c0-2.898,2.461-4.385,7.383-4.462c-0.046-0.521-0.245-0.877-0.598-1.069c-0.353-0.191-0.951-0.288-1.794-0.288
				c-0.69,0-1.43,0.073-2.219,0.219c-0.79,0.146-1.515,0.341-2.173,0.586v-4.232c0.813-0.199,1.694-0.36,2.645-0.483
				c0.95-0.123,1.878-0.184,2.783-0.184c2.285,0,3.917,0.414,4.899,1.242c0.981,0.828,1.472,2.108,1.472,3.841v4.255H172.892z
				 M166.819,203.822c-0.69,0-1.223,0.092-1.599,0.276c-0.376,0.184-0.563,0.491-0.563,0.92c0,0.261,0.081,0.472,0.242,0.632
				c0.161,0.161,0.387,0.242,0.678,0.242c0.399,0,0.705-0.168,0.92-0.506c0.214-0.337,0.322-0.813,0.322-1.426V203.822z"/>
			<path fill="#1868FB" d="M188.899,205.432v3.772h-7.268v-3.772h0.966v-3.772c0-0.506-0.107-0.877-0.322-1.116
				c-0.215-0.237-0.537-0.356-0.966-0.356c-0.92,0-1.38,0.491-1.38,1.472v3.772h0.966v3.772h-7.268v-3.772h1.012v-5.244h-1.012
				v-3.772h6.302v1.794c1.104-1.411,2.484-2.116,4.14-2.116c1.272,0,2.227,0.399,2.864,1.196c0.636,0.797,0.954,1.894,0.954,3.289
				v4.853H188.899z"/>
			<path fill="#1868FB" d="M198.801,207.318c-1.572-1.472-2.358-3.825-2.358-7.061c0-6.179,3.005-9.269,9.016-9.269
				c1.457,0,2.81,0.176,4.06,0.529c1.249,0.353,2.181,0.744,2.794,1.173v5.75h-5.52v-1.656c0-0.583-0.13-1.012-0.391-1.288
				s-0.652-0.414-1.173-0.414c-0.521,0-0.913,0.138-1.173,0.414c-0.261,0.276-0.391,0.706-0.391,1.288v6.946
				c0,0.583,0.13,1.012,0.391,1.288c0.26,0.276,0.651,0.414,1.173,0.414c0.521,0,0.912-0.138,1.173-0.414s0.391-0.705,0.391-1.288
				v-1.863h5.52v5.957c-0.629,0.429-1.56,0.82-2.794,1.173s-2.572,0.529-4.014,0.529
				C202.607,209.526,200.372,208.79,198.801,207.318z"/>
			<path fill="#1868FB" d="M228.412,205.432v3.772h-7.268v-3.772h0.966v-3.772c0-0.506-0.107-0.877-0.321-1.116
				c-0.215-0.237-0.537-0.356-0.967-0.356c-0.92,0-1.38,0.491-1.38,1.472v3.772h0.966v3.772h-7.268v-3.772h1.012v-10.35h-1.012
				v-3.772h6.302v6.9c0.567-0.705,1.181-1.234,1.841-1.587c0.658-0.353,1.426-0.529,2.299-0.529c1.273,0,2.228,0.399,2.864,1.196
				c0.636,0.797,0.954,1.894,0.954,3.289v4.853H228.412z"/>
			<path fill="#1868FB" d="M242.558,205.432v3.772h-6.072v-1.564c-0.337,0.491-0.81,0.928-1.415,1.311
				c-0.605,0.383-1.345,0.575-2.219,0.575c-1.15,0-2.055-0.307-2.715-0.92c-0.658-0.613-0.988-1.479-0.988-2.599
				c0-2.898,2.461-4.385,7.383-4.462c-0.046-0.521-0.245-0.877-0.598-1.069c-0.354-0.191-0.951-0.288-1.795-0.288
				c-0.689,0-1.43,0.073-2.219,0.219c-0.79,0.146-1.515,0.341-2.174,0.586v-4.232c0.813-0.199,1.694-0.36,2.646-0.483
				c0.95-0.123,1.878-0.184,2.782-0.184c2.285,0,3.918,0.414,4.899,1.242c0.981,0.828,1.472,2.108,1.472,3.841v4.255H242.558z
				 M236.485,203.822c-0.69,0-1.224,0.092-1.599,0.276c-0.376,0.184-0.563,0.491-0.563,0.92c0,0.261,0.081,0.472,0.241,0.632
				c0.162,0.161,0.388,0.242,0.679,0.242c0.399,0,0.705-0.168,0.921-0.506c0.214-0.337,0.321-0.813,0.321-1.426V203.822z"/>
			<path fill="#1868FB" d="M243.293,209.227v-3.795h1.012v-10.35h-1.012v-3.772h6.303v14.122h1.012v3.795H243.293z"/>
			<path fill="#1868FB" d="M251.344,209.227v-3.795h1.012v-10.35h-1.012v-3.772h6.301v14.122h1.013v3.795H251.344z"/>
			<path fill="#1868FB" d="M261.141,207.813c-1.227-1.142-1.84-2.81-1.84-5.002c0-2.192,0.613-3.86,1.84-5.002
				c1.227-1.142,2.929-1.713,5.106-1.713c2.162,0,3.722,0.563,4.681,1.69c0.957,1.127,1.438,2.526,1.438,4.197v1.656h-7.452v0.138
				c0,0.568,0.169,0.986,0.506,1.254s0.897,0.402,1.679,0.402c0.936,0,1.824-0.069,2.668-0.207s1.58-0.314,2.209-0.529v3.68
				c-0.537,0.292-1.323,0.556-2.357,0.793c-1.035,0.238-2.159,0.356-3.37,0.356C264.069,209.526,262.367,208.955,261.141,207.813z
				 M267.581,201.108v-0.276c0-0.521-0.111-0.897-0.333-1.127c-0.223-0.23-0.557-0.345-1.001-0.345s-0.778,0.119-1.001,0.357
				s-0.333,0.609-0.333,1.115v0.276H267.581z"/>
			<path fill="#1868FB" d="M288.327,205.432v3.772h-7.268v-3.772h0.966v-3.772c0-0.506-0.107-0.877-0.322-1.116
				c-0.215-0.237-0.536-0.356-0.966-0.356c-0.92,0-1.38,0.491-1.38,1.472v3.772h0.966v3.772h-7.268v-3.772h1.012v-5.244h-1.012
				v-3.772h6.302v1.794c1.104-1.411,2.484-2.116,4.141-2.116c1.272,0,2.227,0.399,2.863,1.196c0.636,0.797,0.954,1.894,0.954,3.289
				v4.853H288.327z"/>
			<path fill="#1868FB" d="M292.64,214.402c-1.004-0.154-1.782-0.33-2.334-0.529v-3.772c1.625,0.291,3.082,0.437,4.37,0.437
				c0.874,0,1.506-0.134,1.897-0.402c0.391-0.269,0.586-0.771,0.586-1.507v-0.989c-0.383,0.491-0.878,0.928-1.483,1.311
				c-0.605,0.383-1.3,0.575-2.081,0.575c-1.564,0-2.741-0.583-3.531-1.748c-0.789-1.166-1.184-2.821-1.184-4.968
				c0-2.146,0.395-3.803,1.184-4.968c0.79-1.165,1.967-1.748,3.531-1.748c0.781,0,1.476,0.192,2.081,0.575
				c0.605,0.384,1.101,0.821,1.483,1.311v-1.564h6.302v3.772h-1.012v8.096c0,2.223-0.552,3.837-1.656,4.841
				c-1.104,1.004-2.768,1.507-4.99,1.507C294.698,214.632,293.644,214.555,292.64,214.402z M296.826,205.076
				c0.222-0.238,0.333-0.609,0.333-1.116v-2.3c0-0.506-0.111-0.877-0.333-1.116c-0.223-0.237-0.557-0.356-1.001-0.356
				s-0.778,0.119-1,0.356c-0.223,0.238-0.334,0.61-0.334,1.116v2.3c0,0.506,0.111,0.878,0.334,1.116
				c0.222,0.238,0.556,0.356,1,0.356S296.604,205.313,296.826,205.076z"/>
			<path fill="#1868FB" d="M305.854,207.813c-1.227-1.142-1.84-2.81-1.84-5.002c0-2.192,0.613-3.86,1.84-5.002
				c1.227-1.142,2.929-1.713,5.105-1.713c2.162,0,3.723,0.563,4.681,1.69s1.438,2.526,1.438,4.197v1.656h-7.452v0.138
				c0,0.568,0.169,0.986,0.507,1.254c0.337,0.268,0.896,0.402,1.679,0.402c0.935,0,1.824-0.069,2.668-0.207
				c0.843-0.138,1.579-0.314,2.208-0.529v3.68c-0.537,0.292-1.322,0.556-2.357,0.793c-1.035,0.238-2.158,0.356-3.37,0.356
				C308.782,209.526,307.08,208.955,305.854,207.813z M312.293,201.108v-0.276c0-0.521-0.111-0.897-0.333-1.127
				c-0.223-0.23-0.556-0.345-1.001-0.345c-0.444,0-0.778,0.119-1,0.357c-0.223,0.238-0.334,0.609-0.334,1.115v0.276H312.293z"/>
			<path fill="#1868FB" d="M318.871,204.167l-1.058-11.707v-1.15h6.877v1.15l-1.081,11.707H318.871z M318.642,209.204v-3.772h5.198
				v3.772H318.642z"/>
		</g>
		<g>
			<g>
				<path fill="#FFFFFF" d="M166.761,292.239v1.927h-15.016v-1.927h6.302v-2.809c-2.917-0.36-4.988-2.035-4.988-4.501
					c0-2.773,2.647-4.574,6.176-4.574c3.547,0,6.194,1.801,6.194,4.574c0,2.467-2.071,4.159-5.006,4.501v2.809H166.761z
					 M159.235,287.612c2.287,0,3.853-0.99,3.853-2.683c0-1.693-1.566-2.683-3.853-2.683c-2.269,0-3.835,0.99-3.835,2.683
					C155.399,286.622,156.966,287.612,159.235,287.612z"/>
				<path fill="#FFFFFF" d="M183.321,285.775v1.873h-15.016v-1.873H183.321z M172.41,294.112h9.615v1.783h-12.009v-4.501h9.146
					v-0.937h-9.165v-1.782h11.56v4.393h-9.147V294.112z M181.592,284.713h-11.433v-5.042h2.376v3.169h9.057V284.713z"/>
				<path fill="#FFFFFF" d="M199.881,292.275v1.944h-15.016v-1.944h6.302v-3.457h-4.555v-8.175h11.541v1.909h-9.146v4.357h9.272
					v1.909h-4.735v3.457H199.881z"/>
				<path fill="#FFFFFF" d="M221.445,286.244v1.854h-14.98v-1.854H221.445z M207.131,283.993c3.097-0.198,4.754-1.134,5.258-2.125
					h-4.556v-1.854h12.262v1.854h-4.556c0.486,1.008,2.125,1.909,5.24,2.125l-0.721,1.801c-3.061-0.216-5.113-1.188-6.086-2.557
					c-0.99,1.369-3.061,2.341-6.104,2.557L207.131,283.993z M210.552,294.202h9.507v1.765h-11.865v-4.339h9.093v-0.9h-9.11v-1.729
					h11.451v4.25h-9.075V294.202z"/>
				<path fill="#FFFFFF" d="M231.613,280.446c0,4.429-2.521,7.202-7.545,8.462l-0.899-1.836c3.78-0.9,5.563-2.611,5.888-4.735
					h-5.023v-1.891H231.613z M234.53,289.214h2.358v6.698h-10.982v-6.698h2.34v1.548h6.284V289.214z M234.53,292.6h-6.284v1.422
					h6.284V292.6z M236.889,279.509v8.967h-2.377v-3.241h-2.881v-1.927h2.881v-3.799H236.889z"/>
				<path fill="#FFFFFF" d="M248.102,279.87h2.215v15.484h-2.215v-7.598h-2.593c-0.937,1.891-2.449,3.529-4.79,4.897l-1.35-1.674
					c3.313-1.981,4.771-4.375,5.059-7.616h-4.141v-1.891h6.5c0,1.566-0.145,3.025-0.541,4.375h1.855V279.87z M253.846,279.491
					v16.583h-2.252v-16.583H253.846z"/>
				<path fill="#FFFFFF" d="M257.063,293.067c0-0.972,0.703-1.729,1.639-1.729c0.937,0,1.656,0.756,1.656,1.729
					c0,0.973-0.72,1.729-1.656,1.729C257.766,294.796,257.063,294.04,257.063,293.067z M257.459,283.363l-0.09-2.503h2.665
					l-0.091,2.503l-0.377,6.644h-1.729L257.459,283.363z"/>
				<path fill="#FFFFFF" d="M143.647,304.876h-9.777v-1.873h3.691v-1.603h2.395v1.603h3.691V304.876z M138.768,311.34
					c-2.395,0-4.069-1.188-4.069-2.989c0-1.765,1.674-2.971,4.069-2.971c2.395,0,4.069,1.206,4.069,2.971
					C142.837,310.152,141.163,311.34,138.768,311.34z M136.157,312.223h10.785v5.672h-10.785V312.223z M138.768,309.594
					c1.062,0,1.8-0.414,1.8-1.242c0-0.811-0.738-1.225-1.8-1.225c-1.063,0-1.801,0.414-1.801,1.225
					C136.967,309.18,137.706,309.594,138.768,309.594z M138.498,316.04h6.122v-1.945h-6.122V316.04z M149.139,307.541h-2.197v3.961
					h-2.377v-9.975h2.377v4.069h2.197V307.541z"/>
				<path fill="#FFFFFF" d="M154.482,303.382c0,4.213-0.396,7.922-2.467,11.235l-1.819-1.008c1.657-2.593,2.143-5.077,2.251-8.3
					h-1.71v-1.927H154.482z M159.379,301.87h2.196v15.502h-2.196v-7.724h-1.584c-0.342,2.035-0.973,3.961-2.089,5.762l-1.818-1.008
					c1.818-2.827,2.196-5.708,2.269-9.093h-1.188v-1.927h3.205c0,1.495-0.036,2.935-0.162,4.357h1.369V301.87z M164.835,301.509
					v16.601h-2.269v-16.601H164.835z"/>
				<path fill="#FFFFFF" d="M187.065,314.275v1.944h-15.016v-1.944h6.302v-3.457h-4.556v-8.175h11.542v1.909h-9.146v4.357h9.273
					v1.909h-4.736v3.457H187.065z"/>
				<path fill="#FFFFFF" d="M197.449,311.466c-1.818-0.594-3.061-1.782-3.763-3.277c-0.738,1.639-2.035,2.953-3.979,3.601
					l-1.188-1.891c2.719-0.882,3.907-3.061,3.907-5.149v-0.234h-3.259v-1.891h8.913v1.891h-3.223v0.216
					c0,1.962,1.134,3.997,3.745,4.879L197.449,311.466z M202.851,315.914v1.891h-11.308v-5.204h2.377v3.313H202.851z
					 M200.096,305.795v-4.286h2.376v12.1h-2.376v-5.888h-2.593v-1.926H200.096z"/>
				<path fill="#FFFFFF" d="M210.318,304.012h2.755v1.891h-7.922v-1.891h2.827v-2.053h2.341V304.012z M212.785,310.584
					c0,2.305-1.513,3.943-3.637,3.943c-2.125,0-3.638-1.639-3.638-3.943c0-2.322,1.513-3.961,3.638-3.961
					C211.272,306.623,212.785,308.262,212.785,310.584z M210.696,310.584c0-1.242-0.647-1.98-1.548-1.98s-1.549,0.738-1.549,1.98
					c0,1.243,0.648,1.963,1.549,1.963S210.696,311.827,210.696,310.584z M219.393,301.491v16.583h-2.25v-7.904h-1.261v7.22h-2.214
					v-15.575h2.214v6.446h1.261v-6.771H219.393z"/>
				<path fill="#FFFFFF" d="M236.728,308.37v1.854h-14.999v-1.854h6.266v-1.063h-4.357v-5.545h2.359v1.098h6.464v-1.098h2.358v5.545
					h-4.447v1.063H236.728z M225.816,316.202h9.506v1.765h-11.865v-4.303h9.093v-0.828h-9.11v-1.747h11.451v4.213h-9.074V316.202z
					 M225.996,305.561h6.464v-0.972h-6.464V305.561z"/>
				<path fill="#FFFFFF" d="M243.168,303.202c0,4.573-0.414,8.138-3.367,11.415l-1.854-1.35c2.196-2.431,2.844-4.826,2.971-8.157
					h-2.232v-1.908H243.168z M247.742,303.202c0,4.789-0.379,8.876-3.277,12.459l-1.873-1.314c2.197-2.773,2.791-5.545,2.917-9.237
					h-1.782v-1.908H247.742z M253.611,309.954h-2.143v8.12h-2.395v-16.583h2.395v6.5h2.143V309.954z"/>
				<path fill="#FFFFFF" d="M269.865,314.239v1.927H254.85v-1.927h3.313v-4.051c-1.261-0.774-2.017-1.962-1.999-3.403
					c0-2.719,2.61-4.465,6.177-4.465c3.582,0,6.193,1.747,6.193,4.465c0,1.44-0.756,2.629-1.999,3.403v4.051H269.865z
					 M258.504,306.785c0,1.638,1.531,2.593,3.836,2.593s3.853-0.955,3.853-2.593c0-1.657-1.548-2.593-3.853-2.593
					S258.504,305.128,258.504,306.785z M260.521,314.239h3.655v-3.169c-0.576,0.108-1.188,0.162-1.836,0.162
					c-0.648,0-1.243-0.054-1.819-0.162V314.239z"/>
				<path fill="#FFFFFF" d="M276.45,306.227c0-0.9-0.594-1.477-1.53-1.477c-0.792,0-1.422,0.414-1.998,1.008l-1.459-1.333
					c0.937-1.062,2.215-1.8,3.781-1.8c2.16,0,3.745,1.116,3.745,3.421c0,2.557-3.133,3.421-2.863,5.96h-2.305
					C273.39,309.108,276.45,307.956,276.45,306.227z M273.336,315.067c0-0.972,0.702-1.729,1.638-1.729
					c0.955,0,1.657,0.756,1.657,1.729c0,0.973-0.702,1.729-1.657,1.729C274.038,316.796,273.336,316.04,273.336,315.067z"/>
			</g>
		</g>
		<rect x="-345" y="90" fill="#1868FB" width="85" height="171"/>
		<text transform="matrix(1 0 0 1 515.957 296.2041)" fill="#FFFFFF" font-family="'Prompt-Light'" font-size="23">Hello! I’m HoY</text>
	</g>
</g>
</svg>
