<svg xmlns="http://www.w3.org/2000/svg" viewBox="0 0 500 500"><g id="freepik--background-complete--inject-78"><path d="M437.22,334.11c2.86-8.42,5.24-18.22,4.37-27.07-.3-3-.81-6-.33-9s2.18-6,5-7c3.37-1.23,7.28.81,9.12,3.88s2,6.88,1.61,10.44a37.69,37.69,0,0,1-19.78,28.74" style="fill:#ebebeb"></path><circle cx="460.33" cy="328.28" r="5.83" style="fill:#ebebeb"></circle><path d="M459.68,315.12a31.68,31.68,0,0,1,9.16-11.85c2.45-2,5.36-3.6,8.5-3.65s6.48,1.9,7.15,5a2.75,2.75,0,0,1,0,1.21,3.07,3.07,0,0,1-.89,1.31c-3,3-7.32,4.41-11.51,5.29s-8.52,1.33-12.5,2.91" style="fill:#ebebeb"></path><path d="M320.73,258.59l-7.16-.27-.42-44.19a3.79,3.79,0,0,1,3.79-3.78h0a3.79,3.79,0,0,1,3.79,3.78Z" style="fill:#ebebeb"></path><path d="M341,227.78h-35.3a1.85,1.85,0,0,1-1.86-1.85h0a1.85,1.85,0,0,1,1.86-1.85H341Z" style="fill:#ebebeb"></path><rect x="342.11" y="224.08" width="38.23" height="3.71" style="fill:#ebebeb"></rect><rect x="381.87" y="224.08" width="38.23" height="3.71" style="fill:#ebebeb"></rect><rect x="421.64" y="224.08" width="38.23" height="3.71" style="fill:#ebebeb"></rect><rect x="460.92" y="224.08" width="18.64" height="3.71" style="fill:#ebebeb"></rect><path d="M403.9,258.91c-1,.3-4.81.16-7.58.08V214.13a3.79,3.79,0,0,1,3.79-3.78h0a3.79,3.79,0,0,1,3.79,3.78Z" style="fill:#ebebeb"></path><path d="M403.9,224.08a14.82,14.82,0,0,1-3.79.22,19.07,19.07,0,0,1-3.79-.22,14.82,14.82,0,0,1,3.79-.22A19.07,19.07,0,0,1,403.9,224.08Z" style="fill:#e0e0e0"></path><path d="M404.26,221.19a19.71,19.71,0,0,1-8,2.3,39.64,39.64,0,0,1,4-1.13A41.49,41.49,0,0,1,404.26,221.19Z" style="fill:#e0e0e0"></path><path d="M404,220.85a19.91,19.91,0,0,1-7.59.07,26.74,26.74,0,0,1,3.8-.11A26.29,26.29,0,0,1,404,220.85Z" style="fill:#e0e0e0"></path><path d="M404,219.82a33.64,33.64,0,0,1-7.59.45,16.7,16.7,0,0,1,3.78-.44A16.5,16.5,0,0,1,404,219.82Z" style="fill:#e0e0e0"></path><path d="M404,227.84a32.13,32.13,0,0,1-3.83,0,32.91,32.91,0,0,1-3.83,0,11.27,11.27,0,0,1,3.82-.46A11.82,11.82,0,0,1,404,227.84Z" style="fill:#e0e0e0"></path><path d="M404.09,229.1a12,12,0,0,1-7.83.56c0-.13,1.77.1,3.93-.06S404.05,229,404.09,229.1Z" style="fill:#e0e0e0"></path><path d="M404.31,231a18.36,18.36,0,0,1-4,.18,18.75,18.75,0,0,1-4-.26,18.22,18.22,0,0,1,4-.18A18,18,0,0,1,404.31,231Z" style="fill:#e0e0e0"></path><path d="M320.38,223.91a13.26,13.26,0,0,1-3.59.22,17.63,17.63,0,0,1-3.6-.21,13.36,13.36,0,0,1,3.6-.22A17.49,17.49,0,0,1,320.38,223.91Z" style="fill:#e0e0e0"></path><path d="M320.73,221a11.84,11.84,0,0,1-3.68,1.59,12.3,12.3,0,0,1-3.94.71c0-.12,1.72-.49,3.82-1.13S320.68,220.91,320.73,221Z" style="fill:#e0e0e0"></path><path d="M320.48,220.69a18.43,18.43,0,0,1-7.2.07,21.2,21.2,0,0,1,3.6-.11A22.25,22.25,0,0,1,320.48,220.69Z" style="fill:#e0e0e0"></path><path d="M320.48,219.66a16.26,16.26,0,0,1-3.59.44,15.45,15.45,0,0,1-3.61,0,29,29,0,0,1,7.2-.45Z" style="fill:#e0e0e0"></path><path d="M320.73,227.91a16.22,16.22,0,0,1-3.74.33,16.5,16.5,0,0,1-3.74-.1,32.64,32.64,0,0,1,7.48-.23Z" style="fill:#e0e0e0"></path><path d="M320.56,228.93a10.81,10.81,0,0,1-7.43.56c0-.13,1.69.11,3.73-.05S320.52,228.81,320.56,228.93Z" style="fill:#e0e0e0"></path><path d="M320.77,230.87a16.44,16.44,0,0,1-3.76.18,16.23,16.23,0,0,1-3.76-.26,16.32,16.32,0,0,1,3.77-.17A16.54,16.54,0,0,1,320.77,230.87Z" style="fill:#e0e0e0"></path><circle cx="255.99" cy="80.65" r="24.74" style="fill:#ebebeb"></circle><path d="M252.47,136a96.18,96.18,0,0,1-.27-10.2,96.34,96.34,0,0,1,.27-10.2,101.59,101.59,0,0,1,.26,10.2A101.42,101.42,0,0,1,252.47,136Z" style="fill:#e0e0e0"></path><path d="M238.21,109.81c.13.07-2.2,4.33-5.2,9.51s-5.52,9.34-5.64,9.26,2.2-4.33,5.19-9.52S238.09,109.73,238.21,109.81Z" style="fill:#e0e0e0"></path><path d="M223.58,100.7a56.79,56.79,0,0,1-5.78,4.92,55.74,55.74,0,0,1-6.1,4.52,56.07,56.07,0,0,1,5.78-4.93A54.79,54.79,0,0,1,223.58,100.7Z" style="fill:#e0e0e0"></path><path d="M277.14,125.91a15.29,15.29,0,0,1-.65-2.51c-.35-1.56-.86-3.7-1.49-6.05s-1.27-4.46-1.75-6a14.59,14.59,0,0,1-.69-2.5,11.83,11.83,0,0,1,1,2.38c.57,1.5,1.27,3.61,1.9,6s1.09,4.54,1.35,6.12A10.93,10.93,0,0,1,277.14,125.91Z" style="fill:#e0e0e0"></path><path d="M302.23,108.11a86.49,86.49,0,0,1-7.31-6,89.58,89.58,0,0,1-7-6.43,83.34,83.34,0,0,1,7.31,6A84.29,84.29,0,0,1,302.23,108.11Z" style="fill:#e0e0e0"></path><path d="M311.84,83.64a18.88,18.88,0,0,1-3-.43c-1.83-.3-4.37-.69-7.18-1s-5.37-.51-7.22-.63a20,20,0,0,1-3-.26,16.29,16.29,0,0,1,3-.11c1.86,0,4.44.16,7.27.48s5.37.78,7.19,1.18A15.5,15.5,0,0,1,311.84,83.64Z" style="fill:#e0e0e0"></path><path d="M311.87,59.58c0,.14-5.32,1.57-12,3.18s-12.05,2.82-12.08,2.68,5.32-1.56,12-3.18S311.84,59.44,311.87,59.58Z" style="fill:#e0e0e0"></path><path d="M283.92,31.55c.12.08-2.44,4.17-5.72,9.13s-6,8.92-6.16,8.84,2.44-4.17,5.73-9.13S283.8,31.47,283.92,31.55Z" style="fill:#e0e0e0"></path><path d="M256.18,25.69a22.68,22.68,0,0,1,0,3.4c0,2.1-.07,5-.07,8.18s.05,6.09.09,8.18a25.58,25.58,0,0,1,0,3.4,20.32,20.32,0,0,1-.34-3.38c-.13-2.1-.24-5-.24-8.2s.09-6.1.22-8.19A19.85,19.85,0,0,1,256.18,25.69Z" style="fill:#e0e0e0"></path><path d="M235.17,51.86c-.12.07-2.72-4-5.82-9s-5.49-9.22-5.37-9.29,2.73,4,5.82,9A106.9,106.9,0,0,1,235.17,51.86Z" style="fill:#e0e0e0"></path><path d="M222.62,62.52a12.52,12.52,0,0,1-2.63-.41c-1.6-.34-3.81-.88-6.22-1.59s-4.55-1.45-6.08-2a12.77,12.77,0,0,1-2.44-1.08,14.54,14.54,0,0,1,2.56.73c1.56.5,3.71,1.18,6.11,1.89s4.58,1.3,6.16,1.73A15.47,15.47,0,0,1,222.62,62.52Z" style="fill:#e0e0e0"></path><path d="M217.14,81.53a61.39,61.39,0,0,1-7.89,1,59.5,59.5,0,0,1-7.95.5,61.73,61.73,0,0,1,7.9-1A61.47,61.47,0,0,1,217.14,81.53Z" style="fill:#e0e0e0"></path><path d="M441.76,60.69c.59-4.28-5.45-7.79-10-8.16-2.16-.17-4.41.16-6.46-.56-4.44-1.55-6.21-7.28-10.54-9.11-3.24-1.37-7-.15-10.11,1.43s-6.24,3.57-9.75,3.79c-3.05.2-6.37-.93-9,.56-2,1.11-3,3.4-4.86,4.75s-4.14,1.61-6.36,1.73-4.53.14-6.56,1.07-3.7,3.07-3.28,5.26Z" style="fill:#fafafa"></path><path d="M388.73,185.9c.72-5.19-6.6-9.45-12.09-9.89-2.62-.21-5.34.19-7.83-.68-5.38-1.87-7.52-8.82-12.77-11-3.93-1.66-8.44-.19-12.25,1.73s-7.56,4.32-11.81,4.59c-3.7.24-7.71-1.13-11,.68-2.41,1.34-3.67,4.12-5.89,5.76s-5,1.94-7.71,2.09-5.49.17-7.94,1.29-4.49,3.72-4,6.38Z" style="fill:#ebebeb"></path><path d="M117.26,129.76c.49-3.49-4.44-6.36-8.14-6.65-1.77-.15-3.6.12-5.27-.46-3.63-1.26-5.07-5.94-8.61-7.43-2.64-1.12-5.68-.13-8.25,1.16s-5.09,2.92-7.95,3.1c-2.49.16-5.2-.77-7.37.45-1.63.91-2.48,2.78-4,3.88a9.51,9.51,0,0,1-5.19,1.41,14.77,14.77,0,0,0-5.35.87c-1.66.76-3,2.51-2.68,4.29Z" style="fill:#fafafa"></path><path d="M134.65,76.69c.75-5.45-6.93-9.92-12.7-10.39-2.75-.22-5.61.2-8.22-.71-5.65-2-7.91-9.26-13.42-11.59-4.12-1.74-8.86-.19-12.86,1.82s-7.94,4.54-12.4,4.83c-3.88.25-8.1-1.19-11.49.7C61,62.77,59.7,65.68,57.37,67.4s-5.26,2-8.09,2.2-5.77.18-8.35,1.36-4.71,3.91-4.17,6.69Z" style="fill:#f5f5f5"></path></g><g id="freepik--Lake--inject-78"><path d="M485.49,258.59c0,.15-94.51.26-211.07.26s-211.09-.11-211.09-.26,94.49-.26,211.09-.26S485.49,258.45,485.49,258.59Z" style="fill:#263238"></path></g><g id="freepik--Plants--inject-78"><path d="M53.11,281.57c-.59-.53-8.6-21.94-8.39-23.81s1.35-26.6,1.35-26.6l6.53,34.62Z" style="fill:#FF725E"></path><path d="M56.82,301.29s-.14-9.71,1.28-11.19,19.82-24.16,19.82-24.16l11-5.2-8.6,7.34Z" style="fill:#FF725E"></path><polygon points="41.83 282.07 57.26 317.88 60.56 320.24 59.02 310.2 41.83 282.07" style="fill:#FF725E"></polygon><polygon points="37.12 316.88 56.58 339.7 65.06 341 55.91 330.58 37.12 316.88" style="fill:#FF725E"></polygon><polygon points="81.35 321.45 74.77 350.71 67.88 355.81 71.11 342.33 81.35 321.45" style="fill:#FF725E"></polygon><polygon points="55.39 357.22 65.75 371.66 71.26 371.41 70.35 367.74 55.39 357.22" style="fill:#FF725E"></polygon><path d="M72.89,380c-.17,0-5-23.1-10.8-51.67s-10.38-51.75-10.22-51.78,5,23.09,10.8,51.67S73.05,380,72.89,380Z" style="fill:#263238"></path><path d="M116.91,378.94a2.77,2.77,0,0,1-.6.36,7.82,7.82,0,0,1-1.9.61,14.38,14.38,0,0,1-7.24-.85c-1.47-.49-3-1.18-4.7-1.82A20.28,20.28,0,0,0,97,375.78a13.84,13.84,0,0,0-6.14,1.05c-2.06.76-4.12,1.8-6.39,2.52a20.34,20.34,0,0,1-6.86.83,54.24,54.24,0,0,1-6.38-.68c-2-.29-3.93-.61-5.72-.75a27.89,27.89,0,0,0-5,0,15.41,15.41,0,0,0-6.85,2.07,20.94,20.94,0,0,0-2.13,1.6,8.48,8.48,0,0,1,2-1.77,15.24,15.24,0,0,1,6.93-2.27,27.36,27.36,0,0,1,5.06,0c1.82.13,3.74.43,5.76.71a56.78,56.78,0,0,0,6.32.64,20.07,20.07,0,0,0,6.7-.82c2.21-.7,4.27-1.73,6.37-2.5a14,14,0,0,1,6.35-1,20.85,20.85,0,0,1,5.63,1.52c1.69.68,3.22,1.38,4.66,1.89a14.74,14.74,0,0,0,7.09,1A10.57,10.57,0,0,0,116.91,378.94Z" style="fill:#263238"></path><path d="M431.44,186c0-.59,2-38.86,2-38.86l3,17.32Z" style="fill:#FF725E"></path><g style="opacity:0.30000000000000004"><path d="M431.44,186c0-.59,2-38.86,2-38.86l3,17.32Z"></path></g><path d="M430.71,228c.15-.43,3.35-7.42,3.35-7.42l14.12-17.9-8.74,19.65Z" style="fill:#FF725E"></path><polygon points="429.11 238.35 425.49 229.76 426.2 217.39 429.11 233.25 429.11 238.35" style="fill:#FF725E"></polygon><path d="M428.19,257.79c-.08,0,.62-17.07,1.58-38.11s1.79-38.11,1.88-38.11-.62,17.07-1.57,38.12S428.28,257.8,428.19,257.79Z" style="fill:#263238"></path><path d="M423.73,165.29c-.29-.44-1.17-14.7-.73-15.86s5.09-16.88,5.09-16.88l-1.31,23.28Z" style="fill:#FF725E"></path><path d="M422.88,182.9s1.45-6.26,2.61-7,16.57-12.37,16.57-12.37l7.86-1.6-6.69,3.35Z" style="fill:#FF725E"></path><polygon points="416.3 162.96 420.52 188.43 422.27 190.47 422.88 183.77 416.3 162.96" style="fill:#FF725E"></polygon><polygon points="407.43 185.23 416.3 202.98 421.54 205.16 417.32 197.02 407.43 185.23" style="fill:#FF725E"></polygon><path d="M421.54,216.23c.29-.44,5.24-13,5.24-13l13-9h5.53l-3.92.95Z" style="fill:#FF725E"></path><polygon points="412.63 216.23 417 227.15 420.57 227.87 420.57 225.37 412.63 216.23" style="fill:#FF725E"></polygon><path d="M420.56,258.34c-.09,0,.75-21.42,1.86-47.84s2.09-47.85,2.18-47.85-.75,21.43-1.87,47.86S420.64,258.35,420.56,258.34Z" style="fill:#263238"></path><g style="opacity:0.30000000000000004"><path d="M430.71,228c.15-.43,3.35-7.42,3.35-7.42l14.12-17.9-8.74,19.65Z"></path></g><g style="opacity:0.30000000000000004"><polygon points="429.11 238.35 425.49 229.76 426.2 217.39 429.11 233.25 429.11 238.35"></polygon></g></g><g id="freepik--Character--inject-78"><path d="M162.1,419.32l2.06,4.86c36.88-2.07,70.16-6.93,98-17.44,17.25-5.58,76.23-35.21,126-59.52l-16.44-11s-132.26,58.38-152.63,64.68C203.84,405.64,162.1,419.32,162.1,419.32Z" style="fill:#263238"></path><path d="M354.41,348.25s-.16.1-.47.26l-1.38.71-5.34,2.7c-2.32,1.17-5.17,2.58-8.49,4.18s-7.09,3.47-11.3,5.43-8.8,4.15-13.78,6.4-10.3,4.63-15.92,7.12c-11.26,4.89-23.72,10.1-36.92,15.26S234.89,400,223.26,404c-5.82,1.95-11.35,3.82-16.57,5.44s-10.07,3.14-14.52,4.46-8.5,2.46-12,3.47-6.61,1.84-9.13,2.49l-5.79,1.5-1.51.38-.51.12a4.71,4.71,0,0,1,.5-.17l1.5-.43,5.76-1.6c2.5-.68,5.57-1.52,9.1-2.57s7.59-2.16,12-3.54,9.31-2.83,14.5-4.52,10.73-3.52,16.55-5.48c11.61-4,24.3-8.59,37.51-13.72s25.65-10.36,36.92-15.22c5.62-2.47,11-4.8,15.93-7.07s9.6-4.38,13.8-6.34,8-3.78,11.33-5.36,6.2-3,8.53-4.11l5.38-2.6,1.41-.67Z" style="fill:#455a64"></path><path d="M170,164.33s-1.88-.47-16,9.7c-5.08,3.66-26.85,16.09-26.85,16.09l-47.92.66-4.69-3.36s-4.7-1.07-6.4-2.12-4-4.1-4.94-3.51a7.67,7.67,0,0,0-1.84,2.55l-6.8-2.24L47,185.23s-.19,1.87,1.07,2.36l-3.23,1.5s-1,3,1,3.12,4.76-1.67,4.76-1.67l5.22.27-10.61,2.6s-1,3,2.82,3a32.24,32.24,0,0,0,8.25-1.44l2.48.61s-4.4,1.63-4.61,1.72-5.21,3.9-5.21,3.9,1.61,2.82,4,1.3a14.58,14.58,0,0,0,3.38-2.69l4.49.13s12,4.58,14,4.32c0,0,48.26,6.56,53.73,6.82s46.61-17.58,46.61-17.58Z" style="fill:#ffbe9d"></path><path d="M71.73,201.38s-.25-.18-.57-.63a7.91,7.91,0,0,1-1-2.09,8.29,8.29,0,0,1-.36-3.45,6.66,6.66,0,0,0,.15-1.9c-.14-.58-.73-1-1.37-1.3a14.21,14.21,0,0,1-5.79-4.91,11.57,11.57,0,0,1-1.1-2,2.46,2.46,0,0,1-.26-.81c.09,0,.52,1.09,1.66,2.64a15,15,0,0,0,5.73,4.66,2.77,2.77,0,0,1,1.62,1.63,5.89,5.89,0,0,1-.17,2.08,8.62,8.62,0,0,0,.24,3.29A14.18,14.18,0,0,0,71.73,201.38Z" style="fill:#eb996e"></path><path d="M62.88,197.75a11.11,11.11,0,0,1-3.82-3.88,11.25,11.25,0,0,1-2-5.06,51.6,51.6,0,0,0,2.43,4.78A48.86,48.86,0,0,0,62.88,197.75Z" style="fill:#eb996e"></path><path d="M60.17,188.24a4,4,0,0,1-1.67-.14,9.85,9.85,0,0,1-3.73-1.77h.29c-.22.14-.45.27-.69.4a10.47,10.47,0,0,1-4.51,1.16,4.38,4.38,0,0,1-1.91-.23c0-.08.73,0,1.89-.14a12,12,0,0,0,4.29-1.26,7,7,0,0,0,.66-.37l.16-.09.14.11A14.94,14.94,0,0,0,60.17,188.24Z" style="fill:#eb996e"></path><path d="M165.78,164.24a35.61,35.61,0,0,1,5.39-6c2.82-2.21,26.72-14.87,26.72-14.87s19-2.05,27.31.41c10.66,3.16,19.07,14.85,21.68,23.19a58,58,0,0,0,7.43,15,37,37,0,0,1,8.64,7.75c3.41,4.5,4.21,7.52,4.21,7.52s4.39,0,9.17,4.89c5.78,5.94,1.93,13.31,1.93,13.31s-.86,3-1.66,3.46-56.5,32.53-56.5,32.53l-10-12.75-16-23-20.06-22.17C163.68,178.09,165.24,165,165.78,164.24Z" style="fill:#FF725E"></path><path d="M234.92,244.19s-.07,0-.19-.14l-.52-.47-2-1.83c-.85-.79-1.88-1.78-3-3s-2.5-2.51-3.88-4.07l-2.2-2.42c-.76-.85-1.51-1.77-2.3-2.7-1.61-1.85-3.21-3.92-4.91-6.09-3.33-4.39-6.8-9.37-10.12-14.8a178.6,178.6,0,0,1-8.44-15.81c-1.13-2.51-2.24-4.89-3.13-7.17-.46-1.14-.93-2.23-1.33-3.29l-1.12-3.07c-.75-2-1.3-3.75-1.82-5.32s-.93-2.94-1.23-4.06-.54-2-.72-2.59c-.07-.27-.12-.49-.17-.67s0-.24,0-.24a.73.73,0,0,1,.09.22l.22.66.81,2.56c.34,1.11.76,2.47,1.32,4s1.11,3.35,1.88,5.28l1.16,3.05c.4,1.06.88,2.14,1.35,3.27.91,2.27,2,4.64,3.16,7.14,2.37,4.95,5.19,10.31,8.46,15.74s6.75,10.39,10.05,14.78c1.69,2.17,3.27,4.25,4.86,6.11.79.93,1.52,1.85,2.27,2.7l2.17,2.44c1.36,1.58,2.69,2.91,3.82,4.12s2.13,2.21,3,3l1.89,1.89.49.51Z" style="fill:#263238"></path><path d="M207,148.21a11.87,11.87,0,0,0-3.95,1.06,13.17,13.17,0,0,0-3.58,2.6A31.94,31.94,0,0,0,196,156.1c-2.29,3.18-4.39,6.05-5.93,8.12l-1.84,2.42a4.64,4.64,0,0,1-.74.85,4.81,4.81,0,0,1,.57-1l1.71-2.52c1.46-2.12,3.51-5,5.81-8.21a30.28,30.28,0,0,1,3.56-4.27,13.14,13.14,0,0,1,3.77-2.59,8.94,8.94,0,0,1,3-.77A3,3,0,0,1,207,148.21Z" style="fill:#263238"></path><path d="M188.2,166.28a15.69,15.69,0,0,1-2.07-1.18l-5-2.88c-2-1.08-3.61-2.41-5-2.41a2.66,2.66,0,0,0-1.56.43c-.32.23-.45.43-.48.4s0-.25.35-.55a2.6,2.6,0,0,1,1.69-.65,5.15,5.15,0,0,1,2.56.75l2.75,1.58c1.94,1.13,3.68,2.19,4.9,3A7.89,7.89,0,0,1,188.2,166.28Z" style="fill:#263238"></path><path d="M239.66,153.31a5.72,5.72,0,0,1-.44.67c-.3.42-.72,1.07-1.33,1.85a63.66,63.66,0,0,1-5.52,6.34,67.5,67.5,0,0,1-50.16,20.07,63.08,63.08,0,0,1-8.37-.78c-1-.14-1.73-.33-2.24-.42a5,5,0,0,1-.78-.19,4.28,4.28,0,0,1,.8.08c.51.07,1.27.22,2.25.33a73.07,73.07,0,0,0,8.35.61,68.95,68.95,0,0,0,49.89-20,74,74,0,0,0,5.62-6.2c.63-.76,1.08-1.39,1.41-1.79A3.74,3.74,0,0,1,239.66,153.31Z" style="fill:#263238"></path><path d="M248.34,167.94a6.93,6.93,0,0,1-.46.7c-.32.44-.79,1.09-1.41,1.92-1.26,1.65-3.08,4-5.54,6.8a68,68,0,0,1-9.46,9,50.34,50.34,0,0,1-14,7.58,66.56,66.56,0,0,1-15.58,3.41,96.36,96.36,0,0,1-13,.5c-3.71-.14-6.7-.47-8.75-.72-1-.12-1.83-.23-2.37-.31a4.64,4.64,0,0,1-.82-.15,4.79,4.79,0,0,1,.84.05l2.37.21c2.06.18,5,.46,8.74.55a102.54,102.54,0,0,0,13-.61,67.44,67.44,0,0,0,15.45-3.42,50.53,50.53,0,0,0,13.9-7.47,70.85,70.85,0,0,0,9.47-8.82c2.49-2.73,4.35-5.08,5.66-6.69l1.48-1.86A5.22,5.22,0,0,1,248.34,167.94Z" style="fill:#263238"></path><path d="M255.69,182.39a4.66,4.66,0,0,1-.26.72c-.19.46-.43,1.17-.85,2a45,45,0,0,1-4,7,51,51,0,0,1-7.9,9,54.93,54.93,0,0,1-12.11,8.26,62.1,62.1,0,0,1-33.83,5.73c-.95-.09-1.68-.22-2.17-.29a3.55,3.55,0,0,1-.75-.15,4.34,4.34,0,0,1,.76,0c.5,0,1.23.14,2.18.2a68.4,68.4,0,0,0,8,.21,61.84,61.84,0,0,0,25.54-6.21,55.4,55.4,0,0,0,12-8.15,52,52,0,0,0,7.92-8.85,49.31,49.31,0,0,0,4.11-6.89c.45-.84.71-1.53.94-2A3.59,3.59,0,0,1,255.69,182.39Z" style="fill:#263238"></path><path d="M266.09,194.78a6,6,0,0,1-.19.75,19.93,19.93,0,0,1-.71,2.09,32.72,32.72,0,0,1-3.89,7.13c-3.94,5.66-11.14,12.09-20,17.64a62.89,62.89,0,0,1-13.34,6.3,47.82,47.82,0,0,1-11.81,2.36,39.65,39.65,0,0,1-8.12-.24c-.95-.15-1.69-.27-2.18-.39a3.6,3.6,0,0,1-.75-.19,6.84,6.84,0,0,1,.77.09c.5.08,1.23.17,2.18.29a43.28,43.28,0,0,0,8.07.07,49.08,49.08,0,0,0,11.69-2.44A64.52,64.52,0,0,0,241,222c8.83-5.52,16-11.86,20-17.42a34.36,34.36,0,0,0,4-7c.38-.87.64-1.57.8-2A3.51,3.51,0,0,1,266.09,194.78Z" style="fill:#263238"></path><path d="M277.86,204.05a4.59,4.59,0,0,1-.1.66c-.08.43-.23,1.06-.46,1.87a28.71,28.71,0,0,1-2.87,6.46,38.27,38.27,0,0,1-6.63,8.12,63.86,63.86,0,0,1-10.3,7.67,177.18,177.18,0,0,1-20.69,10.68,14.73,14.73,0,0,1-6.87,1.59,6.3,6.3,0,0,1-1.88-.43,2.74,2.74,0,0,1-.6-.31,8.45,8.45,0,0,0,2.49.54,15,15,0,0,0,6.71-1.73,195.85,195.85,0,0,0,20.57-10.79,64.59,64.59,0,0,0,10.24-7.57,38.76,38.76,0,0,0,6.64-8,30.07,30.07,0,0,0,3-6.33c.26-.79.45-1.41.55-1.83A2.7,2.7,0,0,1,277.86,204.05Z" style="fill:#263238"></path><g style="opacity:0.2"><path d="M226.25,241c-.11-2.21,3.88-2.48,6-3.19,3.41-1.16,6.91-2.07,10.2-3.5a19.81,19.81,0,0,0,8.52-6.4c3.34-4.72,3.41-11,2.85-16.73-1.63-16.75-7.5-32.76-13.33-48.55-.3-.81-.74-1.74-1.6-1.85-1.32-.18-1.86,1.64-1.88,3l-.66,42.87c-.08,5.09-.26,10.51-3.15,14.69-1.72,2.49-4.29,4.34-5.8,7-2,3.51-1.86,7.81-1.64,11.86"></path></g><g style="opacity:0.2"><path d="M172.71,181.51c3.85,3.32,9.1,4.68,14.18,4.71s10.1-1.15,15-2.36a28.58,28.58,0,0,0,7.52-2.63,9.77,9.77,0,0,0,4.89-6,76.58,76.58,0,0,1-40.88,6.65"></path></g><g style="opacity:0.2"><path d="M179.43,196.92c3.59,3.6,8.72,3.86,13.79,4.28s10.16-.38,15.18-1.22a28.57,28.57,0,0,0,7.69-2,9.77,9.77,0,0,0,5.33-5.65,86.84,86.84,0,0,1-42,4.64"></path></g><path d="M172.67,159.81a8.11,8.11,0,0,1-1.49.4A8.06,8.06,0,0,0,168,161.9a7.88,7.88,0,0,0-2,2.94,7.47,7.47,0,0,1-.56,1.44,3.61,3.61,0,0,1,.21-1.56,7,7,0,0,1,5.47-4.87A3.21,3.21,0,0,1,172.67,159.81Z" style="fill:#263238"></path><path d="M211.24,172.11l-.36.19-1,.53c-.9.45-2.23,1.08-3.89,1.81a69.21,69.21,0,0,1-13.42,4.49,52.55,52.55,0,0,1-7.73,1,49.86,49.86,0,0,1-6.37-.11,48.25,48.25,0,0,1-5.81-.8l.4,0,1.16.16c1,.16,2.45.32,4.26.46a51.55,51.55,0,0,0,14.05-.95,72.53,72.53,0,0,0,13.4-4.42c1.66-.72,3-1.32,3.92-1.76l1.06-.48Z" style="fill:#fff"></path><path d="M178.63,195.78a2,2,0,0,1-.5-.17,7.26,7.26,0,0,1-1.25-.69,8.41,8.41,0,0,1-3.68-8.21,7.94,7.94,0,0,1,.33-1.39,2.56,2.56,0,0,1,.2-.49,15.79,15.79,0,0,0-.38,1.9A8.62,8.62,0,0,0,177,194.8,16.6,16.6,0,0,0,178.63,195.78Z" style="fill:#fff"></path><path d="M194.16,214.82a2.19,2.19,0,0,1-.5-.27,10.51,10.51,0,0,1-1.26-.91,14,14,0,0,1-5-8.74,12,12,0,0,1-.13-1.55,3.73,3.73,0,0,1,0-.57s0,.82.26,2.1a15,15,0,0,0,1.7,4.75,15.36,15.36,0,0,0,3.2,3.9C193.48,214.38,194.18,214.79,194.16,214.82Z" style="fill:#fff"></path><path d="M207.17,229.48a3.26,3.26,0,0,1-.49-.25,10.67,10.67,0,0,1-1.22-.83,13.12,13.12,0,0,1-3.22-3.66,13.48,13.48,0,0,1-1.69-4.57,9.65,9.65,0,0,1-.14-1.47,3,3,0,0,1,0-.55s.05.78.28,2a14.07,14.07,0,0,0,4.85,8.15C206.51,229.07,207.19,229.44,207.17,229.48Z" style="fill:#fff"></path><path d="M263,195.7s-.11-.62-.41-1.59a11.71,11.71,0,0,0-4.62-6.23c-.84-.56-1.42-.81-1.4-.85a1.79,1.79,0,0,1,.42.16,7.85,7.85,0,0,1,1.06.57,10.89,10.89,0,0,1,4.68,6.31,8.26,8.26,0,0,1,.24,1.19A2.4,2.4,0,0,1,263,195.7Z" style="fill:#fff"></path><path d="M274.6,207.62s0-.56-.07-1.45a6.06,6.06,0,0,0-4.26-5,14.13,14.13,0,0,0-1.42-.31,1.49,1.49,0,0,1,.39,0,4.92,4.92,0,0,1,1.07.18,5.9,5.9,0,0,1,4.37,5.14,5.45,5.45,0,0,1,0,1.08A1.15,1.15,0,0,1,274.6,207.62Z" style="fill:#fff"></path><path d="M251.22,183.58a2.62,2.62,0,0,1-.14-.43c-.11-.39-.21-.79-.32-1.19-.29-1-.71-2.37-1.26-3.85s-1.14-2.79-1.59-3.72l-.53-1.11a1.81,1.81,0,0,1-.18-.42,2,2,0,0,1,.25.38c.15.25.35.62.59,1.08a34.61,34.61,0,0,1,1.65,3.72,35,35,0,0,1,1.21,3.89c.12.5.21.91.26,1.2A1.69,1.69,0,0,1,251.22,183.58Z" style="fill:#fff"></path><path d="M245.23,168.6a2.4,2.4,0,0,1-.11-.47c-.06-.31-.15-.75-.28-1.29a25,25,0,0,0-1.35-4.14,26,26,0,0,0-2-3.85c-.31-.46-.56-.84-.74-1.09a2.11,2.11,0,0,1-.26-.42,2,2,0,0,1,.33.37c.2.24.47.6.79,1.06a22,22,0,0,1,2.1,3.85A22.2,22.2,0,0,1,245,166.8c.1.56.18,1,.21,1.32A1.46,1.46,0,0,1,245.23,168.6Z" style="fill:#fff"></path><path d="M171.57,178.53a8.24,8.24,0,0,1-1.4-1.63,11.57,11.57,0,0,1-1.33-10,8.24,8.24,0,0,1,.93-1.94s-.39.73-.79,2a12.05,12.05,0,0,0,1.31,9.86C171,177.93,171.61,178.49,171.57,178.53Z" style="fill:#fff"></path><path d="M220.35,146.53c0,.15-2.56.13-5.69.39s-5.66.68-5.69.53a19.16,19.16,0,0,1,5.64-1A19.83,19.83,0,0,1,220.35,146.53Z" style="fill:#263238"></path><path d="M189.87,265.33l33.8-18.84,55.42-31.6s13.91,6.6,17.26,18.2,1.67,25.65-3.86,32.26c-1.15,1.37-15.61,9.08-15.61,9.08l-24.34,15.36-34.09,10.74Z" style="fill:#263238"></path><path d="M246.56,243.67a7.12,7.12,0,0,1-.73,1.08l-2.1,2.87a40.72,40.72,0,0,0-5.66,10.16,18.94,18.94,0,0,0-.48,11.41,18.3,18.3,0,0,0,2.07,4.33s-.1-.07-.24-.24a6.77,6.77,0,0,1-.6-.77,12.17,12.17,0,0,1-1.59-3.21,18.63,18.63,0,0,1,.34-11.69,37.67,37.67,0,0,1,5.86-10.21c.92-1.19,1.69-2.13,2.24-2.77A5.42,5.42,0,0,1,246.56,243.67Z" style="fill:#455a64"></path><path d="M274.87,266.83a20.1,20.1,0,0,0-.75-6.55,17.93,17.93,0,0,0-3.4-6.24,15.58,15.58,0,0,0-15.66-5.45,17.72,17.72,0,0,0-6.52,2.81,20.06,20.06,0,0,0-4.63,4.7,2.1,2.1,0,0,1,.21-.42,11.18,11.18,0,0,1,.72-1.12,15.86,15.86,0,0,1,3.48-3.46,17.66,17.66,0,0,1,6.64-3,15.86,15.86,0,0,1,16.13,5.61,17.81,17.81,0,0,1,3.38,6.45,15.85,15.85,0,0,1,.61,4.87,12.88,12.88,0,0,1-.12,1.33C274.92,266.68,274.89,266.84,274.87,266.83Z" style="fill:#455a64"></path><path d="M291.25,261.94a7.28,7.28,0,0,1-1.74,1.09,36.66,36.66,0,0,1-4.52,2,38.69,38.69,0,0,1-4.74,1.39,6.84,6.84,0,0,1-2,.29c0-.15,3-.85,6.6-2.17S291.17,261.8,291.25,261.94Z" style="fill:#455a64"></path><path d="M189.87,265.33a1.9,1.9,0,0,1,.51-.21,11.08,11.08,0,0,1,1.52-.43,11.31,11.31,0,0,1,5.78.15c2.41.67,4.87,2.38,7.38,4.37a53.27,53.27,0,0,1,7.65,7.22c1.23,1.42,2.35,2.86,3.38,4.28a24,24,0,0,1,2.69,4.33,16.48,16.48,0,0,1,1.21,4.47,30.61,30.61,0,0,1,.29,4,14.49,14.49,0,0,1-.92,5.71,5.14,5.14,0,0,1-.83,1.35,2.82,2.82,0,0,1-.41.38,7.58,7.58,0,0,0,1-1.8,15.07,15.07,0,0,0,.74-5.64,22.28,22.28,0,0,0-1.56-8.27,24.39,24.39,0,0,0-2.67-4.23c-1-1.41-2.15-2.83-3.36-4.23a54.72,54.72,0,0,0-7.55-7.19c-2.5-2-4.88-3.71-7.2-4.4a11.52,11.52,0,0,0-5.63-.3c-.67.11-1.18.24-1.53.33A2.59,2.59,0,0,1,189.87,265.33Z" style="fill:#455a64"></path><path d="M195.12,264.71s-24.88,13.05-18.89,29.37c4.57,12.46,35.86,69.4,35.86,69.4l25.18-8.05-22.14-62.87,4.08-4.87C219.21,282.65,203.83,264.25,195.12,264.71Z" style="fill:#ffbe9d"></path><path d="M208.44,278.63a9.13,9.13,0,0,1,1.39,1.81,42.57,42.57,0,0,1,2.77,4.76,32.91,32.91,0,0,1,2,5.13,8.42,8.42,0,0,1,.49,2.23c-.16,0-1.09-3.31-3-7.13S208.29,278.72,208.44,278.63Z" style="fill:#eb996e"></path><path d="M249.7,251.91s-12.43,7.16-9.43,20.27c1.9,8.3,56.33,68.39,56.33,68.39l21.78-10.18s-23.29-45.68-32-52.78c-5.9-4.81-12.82-10.3-12.82-10.3s2-12.46-7.92-16.95C257.71,246.78,249.7,251.91,249.7,251.91Z" style="fill:#ffbe9d"></path><path d="M289.54,280.46a5.87,5.87,0,0,1-1-.86c-.6-.56-1.46-1.39-2.58-2.35a102.8,102.8,0,0,0-9.18-6.93l-9.54-6.5-2.86-2a6.29,6.29,0,0,1-1-.8,5.77,5.77,0,0,1,1.13.63l2.95,1.87c2.48,1.62,5.89,3.84,9.62,6.38a79.05,79.05,0,0,1,9.13,7.09c1.1,1,1.92,1.87,2.49,2.48A6.74,6.74,0,0,1,289.54,280.46Z" style="fill:#eb996e"></path><path d="M206.28,354.6l10.34,21.74s-17.86,20.44-20,22.37.65,9.17.65,9.17a381,381,0,0,0,56.48-20.64V384.4l-.74-1.55-19-36.73Z" style="fill:#455a64"></path><path d="M253.67,384.17a3.21,3.21,0,0,1-.53.3l-1.57.77c-1.37.67-3.36,1.6-5.84,2.71-4.95,2.22-11.88,5.12-19.69,7.91s-15,4.94-20.25,6.36c-2.62.71-4.74,1.26-6.22,1.61l-1.71.4a2.63,2.63,0,0,1-.6.1,2.79,2.79,0,0,1,.58-.21l1.68-.49,6.17-1.76c5.22-1.51,12.38-3.71,20.18-6.5s14.73-5.63,19.72-7.76l5.89-2.55,1.61-.69A2.23,2.23,0,0,1,253.67,384.17Z" style="fill:#263238"></path><path d="M234.44,370a17.16,17.16,0,0,1-3-.27,44.82,44.82,0,0,0-7.11-.41,5.06,5.06,0,0,0-3.41,1.4,27.36,27.36,0,0,0-2.16,2.34,8.61,8.61,0,0,1-2.18,2c-.05-.06.78-.82,1.9-2.28a21.92,21.92,0,0,1,2.12-2.46,6.42,6.42,0,0,1,1.63-1.11,5.25,5.25,0,0,1,2.08-.45,35.14,35.14,0,0,1,7.18.56A17,17,0,0,1,234.44,370Z" style="fill:#263238"></path><path d="M209.06,384.94a19.16,19.16,0,0,1,13.6-1.26,17.76,17.76,0,0,1,10.3,8.16c2.27.6,4.44-1.9,4.31-4.24s-1.82-4.31-3.64-5.8c-5-4.07-10.6-6.14-17-5.46Z" style="fill:#e0e0e0"></path><path d="M287.06,329.92l11.16,14.74s-14.38,17-12.37,21.65l.83,2.51-2,2,1.3,2.75,51.76-22.42h0s-6.9-7.64-9.16-11.52c-2.94-5.06-17.15-23.7-17.15-23.7Z" style="fill:#455a64"></path><path d="M332.76,347.4s-.14.12-.43.31l-1.26.78c-1.18.69-2.77,1.64-4.7,2.79-4,2.33-9.5,5.53-15.61,9-3.05,1.74-6,3.42-8.74,4.74a41.05,41.05,0,0,1-7.61,2.86,23,23,0,0,1-5.43.78,13.4,13.4,0,0,1-1.49,0,1.69,1.69,0,0,1-.51-.06c0-.05.71,0,2-.12a26.52,26.52,0,0,0,5.35-.93,44,44,0,0,0,7.5-2.94c2.73-1.33,5.63-3,8.68-4.77,6.11-3.5,11.66-6.64,15.69-8.89l4.78-2.65,1.31-.7A2.66,2.66,0,0,1,332.76,347.4Z" style="fill:#263238"></path><path d="M311.21,338.93c0,.09-.92-.05-2.37,0a14.4,14.4,0,0,0-9.91,4.75c-1,1.08-1.42,1.87-1.5,1.82a6.2,6.2,0,0,1,1.22-2.06,13.13,13.13,0,0,1,10.18-4.88A6.28,6.28,0,0,1,311.21,338.93Z" style="fill:#263238"></path><path d="M312.12,349a4.5,4.5,0,0,0-1.63-1.94,12.17,12.17,0,0,0-13-1.56L291.78,353c2-2.64,6.08-3.59,9.39-3.46a10.48,10.48,0,0,1,8.28,4.74,10.42,10.42,0,0,0,2.17-2.28A3.53,3.53,0,0,0,312.12,349Z" style="fill:#e0e0e0"></path><path d="M149.27,121.74a19.71,19.71,0,0,1,9.95-24.8l.92-.43c10.21-4.15,19.44,2.21,23.3,12.53l17.11,40.6s-11.88,16.07-12.35,16.64l-11-6.64-3.52-8.13s-10.26,3.05-14.92-6.44C156.53,140.49,152.66,130.67,149.27,121.74Z" style="fill:#ffbe9d"></path><path d="M173.61,151.53a25.64,25.64,0,0,0,10.77-9.61s.33,8.27-9.61,11.94Z" style="fill:#eb996e"></path><path d="M157,126.64a1.5,1.5,0,0,0,2,.75,1.43,1.43,0,0,0,.82-1.89,1.5,1.5,0,0,0-2-.76A1.46,1.46,0,0,0,157,126.64Z" style="fill:#263238"></path><path d="M153.54,125.44c.26.1.92-1.16,2.39-1.85s2.9-.48,3-.73-.28-.36-.91-.48a4.14,4.14,0,0,0-2.48.37,4,4,0,0,0-1.8,1.69C153.42,125,153.42,125.4,153.54,125.44Z" style="fill:#263238"></path><path d="M171.76,119.65a1.52,1.52,0,0,0,2,.75,1.44,1.44,0,0,0,.82-1.9,1.51,1.51,0,0,0-2-.75A1.44,1.44,0,0,0,171.76,119.65Z" style="fill:#263238"></path><path d="M168.1,118.85c.25.1.92-1.16,2.39-1.85s2.89-.47,3-.73-.29-.36-.92-.47a4.13,4.13,0,0,0-2.48.36,4,4,0,0,0-1.8,1.7C168,118.42,168,118.81,168.1,118.85Z" style="fill:#263238"></path><path d="M168,132.27a10.6,10.6,0,0,0-2.59.7c-.39.14-.78.23-1,0a2.13,2.13,0,0,1-.28-1.23c-.08-1.08-.16-2.2-.25-3.38-.39-4.8-.86-8.67-1.06-8.65s0,3.92.37,8.71c.1,1.18.2,2.3.3,3.38a2.44,2.44,0,0,0,.5,1.56,1.06,1.06,0,0,0,.88.26,2.59,2.59,0,0,0,.68-.22A11.6,11.6,0,0,0,168,132.27Z" style="fill:#263238"></path><path d="M172.75,131.23c-.25.1.51,1.69-.32,3.47s-2.6,2.41-2.51,2.64.53.13,1.25-.19a4.36,4.36,0,0,0,2.14-2.12,3.81,3.81,0,0,0,.16-2.86C173.22,131.48,172.85,131.17,172.75,131.23Z" style="fill:#263238"></path><path d="M165,113.28c.34.33,1.71-.56,3.53-1.17s3.44-.8,3.5-1.27c0-.22-.4-.48-1.15-.6a6.28,6.28,0,0,0-2.89.31,6.17,6.17,0,0,0-2.46,1.55C165,112.66,164.83,113.12,165,113.28Z" style="fill:#263238"></path><path d="M152.06,120.93c.42.22,1.26-.61,2.47-1.21s2.35-.84,2.42-1.3c0-.22-.29-.48-.89-.58a4,4,0,0,0-3.95,2C151.85,120.42,151.87,120.83,152.06,120.93Z" style="fill:#263238"></path><path d="M185.36,116.79c.13-.14,5.64-5.06,8.53,1.57s-4.35,8.17-4.45,8S185.36,116.79,185.36,116.79Z" style="fill:#ffbe9d"></path><path d="M189.79,123.22s.16,0,.39,0a1.19,1.19,0,0,0,.87-.36,3.11,3.11,0,0,0,.2-3.14,4.07,4.07,0,0,0-1-1.51,1.45,1.45,0,0,0-1.26-.5.63.63,0,0,0-.54.61c0,.22.09.34.06.36s-.19,0-.26-.34a.81.81,0,0,1,.08-.53.94.94,0,0,1,.57-.45,1.76,1.76,0,0,1,1.65.5,4.37,4.37,0,0,1,1.21,1.67c.54,1.36.4,2.91-.43,3.6a1.35,1.35,0,0,1-1.14.29C189.88,123.37,189.78,123.24,189.79,123.22Z" style="fill:#eb996e"></path><path d="M171.88,99.4l-27,13.49a13.68,13.68,0,0,1,1.81-6.53A23.52,23.52,0,0,1,157,96.09c4.4-2.18,16-1,20.68.49,3.74,1.23,4.73,3.36,4.73,3.36,2.08,3.34,2,8.29,2.85,12.13.45,2,2.22,7.77,2.22,7.77h0c-1.5.7-2.62-.23-3.1-1.82l-2.47-6a9.72,9.72,0,0,1-7.55-9C174.47,102.35,174.15,99.53,171.88,99.4Z" style="fill:#263238"></path><path d="M175.94,122.77a.2.2,0,1,0-.22-.15A.18.18,0,0,0,175.94,122.77Z" style="fill:#eb996e"></path><path d="M172.83,123.47a.2.2,0,0,0,.12-.26.18.18,0,1,0-.35.08A.22.22,0,0,0,172.83,123.47Z" style="fill:#eb996e"></path><path d="M170.92,124.32c.1,0,.13-.18.08-.34s-.17-.25-.26-.22-.13.18-.08.34S170.83,124.35,170.92,124.32Z" style="fill:#eb996e"></path><path d="M175.4,125.19c.09,0,.14-.13.11-.18s-.12-.07-.21,0-.14.12-.11.18S175.31,125.23,175.4,125.19Z" style="fill:#eb996e"></path><path d="M172.54,125.81a.18.18,0,0,0,.1-.25.18.18,0,1,0-.34.12A.19.19,0,0,0,172.54,125.81Z" style="fill:#eb996e"></path><path d="M158.4,130.58a.19.19,0,0,0,.13-.24.18.18,0,1,0-.35.09A.19.19,0,0,0,158.4,130.58Z" style="fill:#eb996e"></path><path d="M156.41,131.31a.2.2,0,0,0,.09-.27.21.21,0,0,0-.25-.15.2.2,0,0,0-.09.27C156.21,131.28,156.32,131.35,156.41,131.31Z" style="fill:#eb996e"></path><path d="M160.11,129.82a.16.16,0,0,0,.14-.19.17.17,0,0,0-.22-.11.17.17,0,0,0-.13.2A.16.16,0,0,0,160.11,129.82Z" style="fill:#eb996e"></path><path d="M159.6,132.41a.2.2,0,0,0,.18-.21.21.21,0,0,0-.19-.21.2.2,0,0,0-.17.22A.2.2,0,0,0,159.6,132.41Z" style="fill:#eb996e"></path><path d="M157.82,132.86a.16.16,0,0,0,0-.23c0-.07-.15-.06-.23,0a.18.18,0,0,0,0,.23A.18.18,0,0,0,157.82,132.86Z" style="fill:#eb996e"></path><path d="M178,96.87a8.92,8.92,0,0,0-12.79-6.21,28.37,28.37,0,0,1-3.68,2.07c-2.47.86-5.19-.17-7.81,0a9.2,9.2,0,0,0-8.41,7.57c-.24,1.63-.06,3.42-1,4.8-.78,1.19-2.19,1.79-3.25,2.75a6.71,6.71,0,0,0-1.23,7.93,7.89,7.89,0,0,0,7.19,3.94,9.65,9.65,0,0,0,7.28-4.09c1.51-2.12,2.43-4.94,4.82-6s5.68.21,7.85-1.4a7.59,7.59,0,0,0,2.14-3.59,6,6,0,0,1,2.36-3.41c1.24-.68,2.73.76,2.84,2.17l3.65-6.5" style="fill:#263238"></path><path d="M143.81,109.18l.09.08a2.85,2.85,0,0,0,.28.18,4.85,4.85,0,0,0,1.2.52,5.31,5.31,0,0,0,2.07.17,5,5,0,0,0,2.54-1,5.36,5.36,0,0,0,1.9-2.72,33.09,33.09,0,0,0,.52-3.76,3.92,3.92,0,0,1,2.38-3.07,4.63,4.63,0,0,1,2.09-.38,3.81,3.81,0,0,1,2,.76c.61.45,1.16,1,1.83,1.39a2.5,2.5,0,0,0,2.25.23,3.74,3.74,0,0,0,1.64-1.45,7.63,7.63,0,0,0,.88-1.88A6.73,6.73,0,0,1,167.3,95a3.79,3.79,0,0,1,3-.65,5.1,5.1,0,0,1,2.39,1.15A8.43,8.43,0,0,1,174.12,97c.34.45.57.82.73,1.07a2.22,2.22,0,0,0,.25.38.66.66,0,0,0,0-.1l-.15-.3a9.13,9.13,0,0,0-.69-1.11,7.77,7.77,0,0,0-1.38-1.55,5.4,5.4,0,0,0-2.45-1.23,4,4,0,0,0-3.23.67,6.88,6.88,0,0,0-1.89,3.3,7.56,7.56,0,0,1-.86,1.82,3.52,3.52,0,0,1-1.52,1.34,2.21,2.21,0,0,1-2-.22c-.63-.37-1.17-.91-1.81-1.37a4,4,0,0,0-2.18-.81,4.84,4.84,0,0,0-2.23.4,4.22,4.22,0,0,0-2.52,3.28,37.09,37.09,0,0,1-.49,3.74,5.25,5.25,0,0,1-1.8,2.63,5,5,0,0,1-2.43,1,5.37,5.37,0,0,1-2-.12A7.1,7.1,0,0,1,143.81,109.18Z" style="fill:#455a64"></path><path d="M138.92,111.61a1.33,1.33,0,0,0,.13.58,4.84,4.84,0,0,0,.83,1.4,5.73,5.73,0,0,0,1.93,1.44,6.79,6.79,0,0,0,2.9.55,9.84,9.84,0,0,0,5-1.72,11.94,11.94,0,0,0,1.29-1,2.47,2.47,0,0,0,.43-.4s-.68.49-1.83,1.19a10.16,10.16,0,0,1-4.91,1.59,6.54,6.54,0,0,1-2.78-.5,5.62,5.62,0,0,1-1.88-1.33A5.91,5.91,0,0,1,138.92,111.61Z" style="fill:#455a64"></path><path d="M177.7,97.92a15.72,15.72,0,0,0-.19-1.89,8.28,8.28,0,0,0-2.42-4.43,7.8,7.8,0,0,0-7-1.84,7.59,7.59,0,0,0-2,.75,14.94,14.94,0,0,0-1.88,1.32,8.2,8.2,0,0,1-2.12,1.3,5,5,0,0,1-2.58.21,41.81,41.81,0,0,1-4.7-1.53,8.31,8.31,0,0,0-4.39-.11A13.28,13.28,0,0,0,144,95.62a37,37,0,0,0-3.25,4l-.82,1.16c-.2.26-.3.39-.32.38a1.83,1.83,0,0,1,.23-.44c.16-.28.41-.69.75-1.21a30.68,30.68,0,0,1,3.14-4.19,13.39,13.39,0,0,1,6.57-4.12,8.62,8.62,0,0,1,4.64.08,44.78,44.78,0,0,0,4.64,1.5,4.53,4.53,0,0,0,2.32-.18,8,8,0,0,0,2-1.21,14.42,14.42,0,0,1,2-1.35,7.72,7.72,0,0,1,2.16-.79,8.13,8.13,0,0,1,7.36,2A8.23,8.23,0,0,1,177.71,96a6.35,6.35,0,0,1,.07,1.43A2,2,0,0,1,177.7,97.92Z" style="fill:#263238"></path><path d="M156.47,82.81c.05,0-.14.37-.26,1.06a5.15,5.15,0,0,0,.31,2.86,4.75,4.75,0,0,0,3.1,2.7,4.9,4.9,0,0,0,2.47,0,18.2,18.2,0,0,0,2.63-.9,11.91,11.91,0,0,1,2.75-.83,7.58,7.58,0,0,1,2.7.1,8.36,8.36,0,0,1,4,2.11,7.49,7.49,0,0,1,1.76,2.48,4.41,4.41,0,0,1,.26.79c.05.18.06.28,0,.28a9.55,9.55,0,0,0-2.3-3.27,8.38,8.38,0,0,0-3.84-1.92,7.31,7.31,0,0,0-2.52-.06,12,12,0,0,0-2.64.8,16.64,16.64,0,0,1-2.71.92,5.43,5.43,0,0,1-2.72-.07,5.06,5.06,0,0,1-3.3-3,4.89,4.89,0,0,1-.16-3A2.37,2.37,0,0,1,156.47,82.81Z" style="fill:#263238"></path><path d="M234,247.1H149.92a3.26,3.26,0,0,0-3.26,3.26h0a3.26,3.26,0,0,0,3.26,3.27H234a3.26,3.26,0,0,0,3.26-3.27h0A3.26,3.26,0,0,0,234,247.1Z" style="fill:#455a64"></path><path d="M478.71,352.08l-.94.14a25.24,25.24,0,0,1-2.78.23,21.52,21.52,0,0,1-4.53-.42,16.43,16.43,0,0,1-5.7-2.42c-3.95-2.57-7.34-7.69-8.75-14.2-.09-.4-.17-.81-.23-1.24s-.08-.84-.11-1.27c-.07-.86-.15-1.72-.22-2.6-.25-1.75-.43-3.56-.82-5.4a67.23,67.23,0,0,0-3.14-11.42,63.35,63.35,0,0,0-5.81-11.66,66,66,0,0,0-8.83-11,71.36,71.36,0,0,0-26.19-16.49,62.42,62.42,0,0,0-8-2.28c-1.37-.3-2.76-.54-4.17-.71s-2.83-.38-4.27-.47a94.92,94.92,0,0,0-17.58.18c-11.92,1.2-24,4.34-36,8.46s-23.5,8.92-34.75,13.08-22.3,7.8-33.16,9.87a106.23,106.23,0,0,1-31.2,1.71,77.16,77.16,0,0,1-13.94-2.74,65.29,65.29,0,0,1-12.12-5,59.94,59.94,0,0,1-10-6.5l-1.1-.87-1-.92c-.68-.61-1.36-1.2-2-1.82-1.23-1.28-2.47-2.46-3.5-3.77a48.77,48.77,0,0,1-5.32-7.56c-.64-1.26-1.27-2.47-1.81-3.65s-1-2.34-1.33-3.45a40.48,40.48,0,0,1-2-10.54c0-1.22,0-2.16,0-2.8s0-1,0-1,0,.32,0,1,0,1.57,0,2.79a41.08,41.08,0,0,0,2.05,10.48c.38,1.1.88,2.23,1.35,3.43s1.17,2.37,1.82,3.62a48.54,48.54,0,0,0,5.32,7.49c1,1.3,2.27,2.47,3.5,3.74.63.61,1.32,1.19,2,1.8l1,.91,1.1.86a60,60,0,0,0,9.93,6.44,66.07,66.07,0,0,0,12.07,4.91,76.28,76.28,0,0,0,13.86,2.69A106.13,106.13,0,0,0,272.62,302c10.82-2.08,21.84-5.69,33.07-9.87s22.71-9,34.76-13.1,24.15-7.28,36.13-8.48a96.76,96.76,0,0,1,17.67-.17c1.45.1,2.87.29,4.29.48s2.83.41,4.22.72a62.78,62.78,0,0,1,8.06,2.31,71.52,71.52,0,0,1,26.33,16.64A65.58,65.58,0,0,1,446,301.61a63.65,63.65,0,0,1,5.81,11.74A66.29,66.29,0,0,1,455,324.84c.38,1.85.55,3.67.8,5.42.07.89.14,1.75.21,2.61,0,.42.07.85.1,1.26s.14.82.22,1.22c1.38,6.45,4.71,11.53,8.58,14.09a16.47,16.47,0,0,0,5.62,2.44,22.21,22.21,0,0,0,4.5.46c1.22,0,2.15-.09,2.78-.17S478.71,352.08,478.71,352.08Z" style="fill:#263238"></path><path d="M246.56,195.21S245.08,188,244,180.87a131.92,131.92,0,0,0-3.54-17.42c-1.68-6.13-5.56-12.74-14.51-15.56s-11.48,4.61-11.48,4.61-2.78,6.85.69,19.08l12.33,44.28-15.8,15.31-9.1,15.93h3.28a14.35,14.35,0,0,1-.09,6.52c-.91,3.05,1.48,5.55,3.14,6.38s5.55-1.67,5.55-1.67c3.34,1.39,3.6-2.21,3.6-2.21l1.38-.44A21.94,21.94,0,0,0,223,253.9h2.77c1.38,0,1.66-7.21,1.66-7.21V236.44s18.34-7.39,21.64-13.28S246.56,195.21,246.56,195.21Z" style="fill:#ffbe9d"></path><path d="M239.42,205a8.36,8.36,0,0,1-1.07,1.07l-3,2.77c-2.54,2.34-6,5.59-9.85,9.22l-9.74,9.35-3,2.82a7.81,7.81,0,0,1-1.14,1,8.35,8.35,0,0,1,1-1.13c.67-.7,1.64-1.71,2.85-2.94,2.43-2.46,5.82-5.83,9.64-9.47s7.35-6.84,10-9.11c1.31-1.14,2.37-2,3.12-2.66A8.76,8.76,0,0,1,239.42,205Z" style="fill:#eb996e"></path><path d="M215.36,250.28a10.27,10.27,0,0,1-1.06,8.1c-.15-.07.57-1.78.86-4S215.2,250.3,215.36,250.28Z" style="fill:#eb996e"></path><path d="M218.06,250.94a5.81,5.81,0,0,1,.42,4,5.88,5.88,0,0,1-1.77,3.6,22.19,22.19,0,0,0,1.26-3.69A22.1,22.1,0,0,0,218.06,250.94Z" style="fill:#eb996e"></path><path d="M223.88,249.46a4,4,0,0,1-1.38,4.79c-.11-.11.66-1,1-2.3S223.73,249.5,223.88,249.46Z" style="fill:#eb996e"></path></g><g id="freepik--Birds--inject-78"><path d="M380.15,127.77c0,.07-1.09-.38-3.12-.83a25.09,25.09,0,0,0-8.73-.33,23.47,23.47,0,0,0-11.76,5.07,24.38,24.38,0,0,0-8.3,13.18l0,.15L348,146l-.36-.89a26.3,26.3,0,0,0-9.94-12,25.44,25.44,0,0,0-12.14-4,26.79,26.79,0,0,0-8.67.79c-2,.53-3.06,1-3.09.93a4.26,4.26,0,0,1,.76-.36,20.09,20.09,0,0,1,2.26-.81,25.76,25.76,0,0,1,8.77-1,25.47,25.47,0,0,1,12.42,4,26.44,26.44,0,0,1,10.21,12.26l-.6.05,0-.15a24.74,24.74,0,0,1,8.55-13.49,23.69,23.69,0,0,1,12.07-5.07,24.08,24.08,0,0,1,8.84.54,18.58,18.58,0,0,1,2.31.73A4.48,4.48,0,0,1,380.15,127.77Z" style="fill:#263238"></path><path d="M452.18,97.44s-.62-.17-1.73-.4a13.8,13.8,0,0,0-4.78-.14,12.94,12.94,0,0,0-6.4,2.79,13.32,13.32,0,0,0-4.51,7.18l0,.08-.24.94-.36-.89a14.37,14.37,0,0,0-5.41-6.55,13.9,13.9,0,0,0-6.61-2.23,14.87,14.87,0,0,0-4.75.39c-1.1.27-1.69.51-1.71.46s.13-.1.41-.23a9.26,9.26,0,0,1,1.24-.47,13.78,13.78,0,0,1,4.84-.6,14.11,14.11,0,0,1,6.9,2.19,14.75,14.75,0,0,1,5.68,6.8l-.61,0,0-.08a13.77,13.77,0,0,1,4.76-7.5,13.24,13.24,0,0,1,11.6-2.43,9.07,9.07,0,0,1,1.26.42C452,97.34,452.19,97.42,452.18,97.44Z" style="fill:#263238"></path><path d="M398.32,78.86s-.6.69-1.68,1.91a40.73,40.73,0,0,0-4.1,5.53,40.29,40.29,0,0,0-6.08,21.52v.27l-.63,0a35.49,35.49,0,0,0-3.94-11.66A36.73,36.73,0,0,0,370.71,84c-1.33-.92-2.09-1.38-2.07-1.43a2.47,2.47,0,0,1,.59.28c.37.21.94.49,1.62.94a33.3,33.3,0,0,1,5.37,4.29,35.7,35.7,0,0,1,10.24,20l-.64,0v-.28a39.59,39.59,0,0,1,6.33-21.76,35.71,35.71,0,0,1,4.3-5.46c.55-.61,1-1,1.35-1.32A2.75,2.75,0,0,1,398.32,78.86Z" style="fill:#263238"></path></g><g id="freepik--Water--inject-78"><path d="M422.6,418.4l-2.15,0c15.11-6.18,29.46-17.19,35.75-23.69,9.19-9.51,11.14-27.62,4.6-39.11s-22.87-16.74-34.19-9.9c5.35-4,6.05-12.45,2.46-18.09s-10.47-8.59-17.16-8.81-13.23,1.94-19.35,4.64c-26.94,11.9-47.64,34.18-71.31,51.72-39.58,29.32-89.74,41.3-150,48.32-10.49.91-21.13,1.5-27.51-.31-8.6-2.43-17.35-5.85-26.18-4.5-9.8,1.49-18.41,8.74-28.32,8.4-5.9-.2-11.33-3.11-17-4.81-11.86-3.55-25.11-.13-35.42,6.72,0,0-34.61,17.35,15.9,19.35,12.6.5,62.08,2,62.08,2s-11.5,5.52-.73,14.47c9.69,8.05,71.28,14.57,97,13.32,26.86-1.31,59.4-14.85,46.3-21.4-8.73-4.36,14.32-7.49,86.91-6.06s98.59,6.74,120.41-11.06C501.11,409.92,422.6,418.4,422.6,418.4Z" style="fill:#ebebeb"></path><path d="M451.58,396.32a8.52,8.52,0,0,0,2.74-1.57,8.75,8.75,0,0,0,2.26-3.09,10.29,10.29,0,0,0,.9-5.14,9.64,9.64,0,0,0-2.75-5.87,13.4,13.4,0,0,0-6.85-3.71,15.66,15.66,0,0,0-9,.85,24.73,24.73,0,0,0-8.47,5.71l-1.13,1.13.86-1.34a67,67,0,0,0,3.67-6.17,22.19,22.19,0,0,0,2.36-7.16,13.58,13.58,0,0,0-1.27-7.74,9.33,9.33,0,0,0-6.35-4.9,23.49,23.49,0,0,0-8.73,0,57.67,57.67,0,0,0-8.95,2,59.59,59.59,0,0,0-17.3,8.46l-1,.74.7-1.07a52.58,52.58,0,0,0,4.3-7.39,16.17,16.17,0,0,0,1.57-8.42,10,10,0,0,0-4.1-7.44c-2.48-1.65-5.66-1.87-8.68-1.68a51.37,51.37,0,0,0-9.14,1.55,60.35,60.35,0,0,0-8.84,3.28,81.81,81.81,0,0,0-16.25,10.36c-10.2,8.17-18.56,17.89-27.41,26.48A131.32,131.32,0,0,1,311,396,90.14,90.14,0,0,1,296.05,405c-10.26,4.88-20.68,7.9-30.45,10.29-4.9,1.21-9.67,2.18-14.26,3.08s-9,1.59-13.28,2.16a275.32,275.32,0,0,1-40.46,2.63c-9.59-.12-14.87-.58-14.87-.58l1,0,2.87.12c2.51.1,6.23.21,11,.23A280.37,280.37,0,0,0,238,420.12c4.24-.57,8.66-1.34,13.26-2.18s9.34-1.89,14.22-3.11a156.63,156.63,0,0,0,30.36-10.3,89.9,89.9,0,0,0,14.86-8.9,130.1,130.1,0,0,0,13.66-11.87c4.4-4.3,8.71-8.86,13.18-13.39a163.94,163.94,0,0,1,14.25-13.13,82.29,82.29,0,0,1,16.36-10.42,60,60,0,0,1,8.93-3.3,50.43,50.43,0,0,1,9.24-1.57,21.28,21.28,0,0,1,4.65.16,10.78,10.78,0,0,1,4.34,1.61,10.54,10.54,0,0,1,4.32,7.8A16.71,16.71,0,0,1,398,360.2a52.73,52.73,0,0,1-4.35,7.46l-.34-.33a59.93,59.93,0,0,1,26.47-10.47,23.72,23.72,0,0,1,8.89.05,9.71,9.71,0,0,1,6.6,5.13,14,14,0,0,1,1.3,8,22.44,22.44,0,0,1-2.41,7.29,70.84,70.84,0,0,1-3.71,6.19l-.27-.22a25.08,25.08,0,0,1,8.61-5.75,15.88,15.88,0,0,1,9.13-.83,13.69,13.69,0,0,1,7,3.81,9.88,9.88,0,0,1,2.77,6,10.4,10.4,0,0,1-1,5.21,8.93,8.93,0,0,1-2.33,3.11,7.37,7.37,0,0,1-2,1.23Z" style="fill:#fff"></path><path d="M442.56,406.7a4.8,4.8,0,0,0,.19-.51,2.87,2.87,0,0,0,0-1.58,3.88,3.88,0,0,0-1.47-2.07,6.14,6.14,0,0,0-3.34-1,31.68,31.68,0,0,0-9.6,1.74c-3.67,1.1-7.71,2.82-12.45,3.89a24.54,24.54,0,0,1-7.58.55,20.8,20.8,0,0,1-7.85-2.52,29.06,29.06,0,0,1-6.95-5.44c-2.12-2.2-3.86-4.81-6-7.18a23.37,23.37,0,0,0-7.72-5.76,28.88,28.88,0,0,0-9.77-2.48,42.27,42.27,0,0,0-20.76,4c-6.69,3-12.64,7.14-18.34,11.09-2.85,2-5.65,3.94-8.45,5.77s-5.62,3.51-8.44,5a112.59,112.59,0,0,1-31.9,11.31,121.16,121.16,0,0,1-12.93,1.68c-1.92.12-3.7.2-5.34.25s-3.15,0-4.5,0l-3.59-.13c-1-.06-1.91-.15-2.62-.2l-1.61-.14-.55-.07h.55l1.62.09c.7,0,1.58.12,2.62.15l3.58.09c1.35,0,2.85,0,4.49-.05s3.42-.16,5.33-.29a121.57,121.57,0,0,0,12.88-1.75,113.13,113.13,0,0,0,31.75-11.37q4.2-2.27,8.39-5c2.79-1.83,5.58-3.79,8.43-5.77,5.7-4,11.67-8.08,18.41-11.15a42.8,42.8,0,0,1,21-4,29.43,29.43,0,0,1,9.94,2.54,23.87,23.87,0,0,1,7.87,5.89c2.12,2.41,3.85,5,5.93,7.18a28.61,28.61,0,0,0,6.83,5.38,20.39,20.39,0,0,0,7.68,2.5,23.85,23.85,0,0,0,7.46-.51c4.7-1,8.76-2.73,12.44-3.81a31.78,31.78,0,0,1,9.7-1.66,6.19,6.19,0,0,1,3.42,1.06,3.94,3.94,0,0,1,1.48,2.17,2.89,2.89,0,0,1,0,1.61A1.62,1.62,0,0,1,442.56,406.7Z" style="fill:#fff"></path><path d="M23.45,434.67h.3c.19,0,.48,0,.85,0a11.49,11.49,0,0,0,3.25-.72,40.51,40.51,0,0,0,10.74-6.51h0a41.93,41.93,0,0,1,11.68-5.39,43.23,43.23,0,0,1,15.63-1.56,41.85,41.85,0,0,1,8.63,1.63c2.89.87,5.74,2.07,8.72,3.07a25.85,25.85,0,0,0,9.39,1.62,30,30,0,0,0,9.64-2.24c5.35-2,10.38-4.76,15.78-5.86a28.64,28.64,0,0,1,8-.48,48.8,48.8,0,0,1,7.6,1.27c4.87,1.17,9.35,2.82,13.63,3.85a58.52,58.52,0,0,0,12.26.8c7.54-.18,13.62-.8,17.83-1.13l4.85-.4,1.26-.09a2,2,0,0,1,.43,0l-.43.06-1.26.14-4.83.5c-4.21.4-10.29,1.07-17.85,1.3a58.74,58.74,0,0,1-12.35-.75c-4.35-1-8.81-2.65-13.66-3.8a47.85,47.85,0,0,0-7.51-1.25,28.46,28.46,0,0,0-7.89.49c-5.3,1.08-10.31,3.78-15.7,5.85a30.66,30.66,0,0,1-9.8,2.27,26.37,26.37,0,0,1-9.57-1.66c-3-1-5.85-2.21-8.71-3.08A41.3,41.3,0,0,0,65.88,421a43.18,43.18,0,0,0-15.48,1.48,42,42,0,0,0-11.62,5.27h0a39.42,39.42,0,0,1-10.89,6.43,11.22,11.22,0,0,1-3.3.65C23.84,434.74,23.45,434.67,23.45,434.67Z" style="fill:#263238"></path><path d="M484.57,423.37s-.35.13-1.06.36a9.16,9.16,0,0,1-3.26.19c-2.9-.35-6.82-2.08-12.06-3.52-2.62-.74-5.58-1.42-8.83-2-1.62-.33-3.33-.56-5.11-.82s-3.63-.41-5.56-.51a110.44,110.44,0,0,0-26.06,1.54l-.89.16.75-.51L453.55,397h0a34.51,34.51,0,0,0,6.23-6.89,32.19,32.19,0,0,0,4-8.73,34,34,0,0,0-.63-19.85,29.42,29.42,0,0,0-4.91-9.18,22.42,22.42,0,0,0-8.39-6.41,27,27,0,0,0-5.14-1.71,32.79,32.79,0,0,0-5.42-.68,43,43,0,0,0-11,1l-.49.11.2-.47.59-1.38.54-1.47a19.35,19.35,0,0,0,1-9.33,13.51,13.51,0,0,0-4.49-7.94,19.07,19.07,0,0,0-8.3-3.78,37.49,37.49,0,0,0-9.07-.8c-6.08.07-11.75,2.26-17,4.7a122.79,122.79,0,0,0-14.93,8.35c-18.82,12.06-33.78,25.63-46.65,36.55a174.13,174.13,0,0,1-18.37,13.52,124.41,124.41,0,0,1-15.11,8.24c-4.3,2-7.78,3.17-10.12,4l-2.7.84-.93.27s.31-.12.91-.32l2.68-.89c2.34-.86,5.79-2.1,10.07-4.08a127.22,127.22,0,0,0,15.05-8.31,176.83,176.83,0,0,0,18.28-13.55c12.83-10.94,27.79-24.56,46.63-36.67a122.22,122.22,0,0,1,15-8.4,65.54,65.54,0,0,1,8.27-3.27,32.07,32.07,0,0,1,4.4-1.06,38.32,38.32,0,0,1,4.54-.43,37.61,37.61,0,0,1,9.2.81,19.6,19.6,0,0,1,8.54,3.89,14,14,0,0,1,4.65,8.25,19.94,19.94,0,0,1-1,9.58c-.19.5-.37,1-.56,1.49s-.4,1-.6,1.4l-.29-.36A43.46,43.46,0,0,1,439.27,343a35.29,35.29,0,0,1,5.52.69,28,28,0,0,1,5.23,1.75A22.87,22.87,0,0,1,458.6,352a29.92,29.92,0,0,1,5,9.34,34.57,34.57,0,0,1,.62,20.14,32.79,32.79,0,0,1-4,8.87,35.81,35.81,0,0,1-6.33,7h0L422.7,418.56l-.14-.35a109.89,109.89,0,0,1,26.15-1.47c1.94.11,3.79.33,5.58.53s3.5.51,5.12.85c3.26.62,6.21,1.31,8.83,2.08,5.26,1.47,9.17,3.23,12,3.61A9.26,9.26,0,0,0,484.57,423.37Z" style="fill:#263238"></path><path d="M407.12,431.86l-.68-.31-2-1c-1.74-.84-4.3-2.1-7.64-3.63a127,127,0,0,0-12.4-5,82.93,82.93,0,0,0-8-2.2,57.7,57.7,0,0,0-9.26-1.16,61.91,61.91,0,0,0-21.07,3.19c-7.37,2.28-14.92,5.61-23,8.9s-16.73,6.38-26.19,7.43a46.4,46.4,0,0,1-14.42-.58c-4.83-1-9.4-3.08-13.92-5.21s-9-4.27-13.76-5.33a33.11,33.11,0,0,0-14.19.16c-9.19,2.11-17.32,6.47-25.58,9.22a51.77,51.77,0,0,1-12.43,2.7,59.45,59.45,0,0,1-12-.32c-7.7-.91-14.7-2.66-21.14-3.91a90.93,90.93,0,0,0-17.55-2,46.09,46.09,0,0,0-13.18,1.76,31.88,31.88,0,0,0-7.69,3.41c-.83.48-1.41,1-1.82,1.22l-.63.42a28.52,28.52,0,0,1,2.39-1.73,31,31,0,0,1,7.69-3.51,45.43,45.43,0,0,1,13.24-1.86,89.48,89.48,0,0,1,17.62,1.94c6.45,1.23,13.46,2.95,21.11,3.84a58.83,58.83,0,0,0,11.91.29,50.87,50.87,0,0,0,12.3-2.7c4.11-1.38,8.19-3.14,12.41-4.85a87.61,87.61,0,0,1,13.22-4.41,33.64,33.64,0,0,1,14.41-.16c4.82,1.07,9.34,3.23,13.87,5.36s9,4.19,13.8,5.17a46,46,0,0,0,14.26.59c9.38-1,18-4.15,26.07-7.38s15.61-6.59,23-8.86a62.24,62.24,0,0,1,21.21-3.15,58.22,58.22,0,0,1,9.31,1.21,81.57,81.57,0,0,1,8.06,2.24,125.27,125.27,0,0,1,12.4,5.07c3.32,1.56,5.87,2.85,7.59,3.72l2,1Z" style="fill:#263238"></path><ellipse cx="288.54" cy="470.1" rx="13.87" ry="5.48" style="fill:#ebebeb"></ellipse></g></svg>