<svg xmlns="http://www.w3.org/2000/svg" viewBox="0 0 500 500"><g id="freepik--background-simple--inject-15"><path d="M107.37,285.29c-22.26-12.85-43.94-43.35-40.84-68.87,4.67-38.38,19.32-51.9,45-58.4,24.23-6.13,48.2-5.8,72.87-1.8s51.09,10.87,74,.75c21.23-9.38,33.86-30.91,46.66-50.27s29.67-39.28,52.73-41.83C375,63,392.09,71.66,404,84.19c19.37,20.33,26.86,50.41,22.45,78.14S411.24,213.28,389.54,239c-18.12,21.45-42.52,42.13-68.83,51.95-54.13,20.23-157.77,31.79-213.34-5.65" style="fill:#f5f5f5"></path></g><g id="freepik--Floor--inject-15"><path d="M446.87,367.64c0,.14-87.37.26-195.11.26s-195.13-.12-195.13-.26,87.34-.26,195.13-.26S446.87,367.5,446.87,367.64Z" style="fill:#263238"></path></g><g id="freepik--hill--inject-15"><polygon points="141.19 97.18 116.96 146.06 124.19 146.33 103.66 185.17 114.45 185.17 97.63 219.68 191.66 219.68 170.95 185.17 180.88 184.74 161.03 145.92 168.37 145.49 141.19 97.18" style="fill:#455a64"></polygon><path d="M145.29,153.88c.14,0,0,21.88-.32,48.87s-.71,48.87-.85,48.86,0-21.88.32-48.87S145.14,153.88,145.29,153.88Z" style="fill:#263238"></path><path d="M144.8,198.66a50.09,50.09,0,0,1-5.32-2.49,45.4,45.4,0,0,1-5.23-2.67,26.31,26.31,0,0,1,5.46,2.21A25.09,25.09,0,0,1,144.8,198.66Z" style="fill:#263238"></path><path d="M156.42,161.82a13.83,13.83,0,0,1-1.43,2.36c-1,1.42-2.32,3.34-3.9,5.4s-3.1,3.87-4.23,5.14a14.1,14.1,0,0,1-1.93,2,16.2,16.2,0,0,1,1.64-2.22l4.1-5.23c1.52-2,2.88-3.8,4-5.29A14.62,14.62,0,0,1,156.42,161.82Z" style="fill:#263238"></path><polygon points="390.76 115.54 371.61 154.18 377.33 154.39 361.1 185.09 369.62 185.09 356.33 212.37 430.65 212.37 414.29 185.09 422.13 184.75 406.45 154.07 412.24 153.73 390.76 115.54" style="fill:#FF725E"></polygon><path d="M394,160.36c.15,0,.06,16.86-.19,37.65s-.56,37.64-.71,37.64-.06-16.85.19-37.65S393.86,160.36,394,160.36Z" style="fill:#263238"></path><path d="M393.62,195.75a26.39,26.39,0,0,1-4.24-1.91,28.25,28.25,0,0,1-4.11-2.16,16.89,16.89,0,0,1,4.34,1.69A17.2,17.2,0,0,1,393.62,195.75Z" style="fill:#263238"></path><path d="M402.8,166.63a8.71,8.71,0,0,1-1.1,1.9c-.74,1.12-1.82,2.64-3.07,4.27s-2.46,3.06-3.36,4.06a8.64,8.64,0,0,1-1.55,1.54c-.11-.1,2-2.67,4.5-5.92S402.67,166.55,402.8,166.63Z" style="fill:#263238"></path><path d="M436,267l-.76-.81L433,263.8c-2-2.05-4.94-5.14-9.09-8.7a118.9,118.9,0,0,0-16.06-11.71,108.8,108.8,0,0,0-10.93-5.89,107.21,107.21,0,0,0-44.31-10.31,100.81,100.81,0,0,0-35.9,6.09c-12.19,4.36-23.6,11.92-35.14,19.9-5.79,4-11.64,8.12-17.8,12a117.51,117.51,0,0,1-19.63,10.17,63.54,63.54,0,0,1-21.6,4.54A69.14,69.14,0,0,1,201.3,277a140.49,140.49,0,0,1-19.32-7.5c-6.15-2.86-12-5.88-17.84-8.73C152.57,255,141.25,250,130,247.77c-1.41-.3-2.81-.5-4.2-.73l-2.09-.25a20.65,20.65,0,0,0-2.07-.18l-4.11-.22c-1.35,0-2.7.06-4,.09-.66,0-1.32,0-2,.07l-1.95.21c-1.3.15-2.59.21-3.84.45l-3.73.67c-1.23.19-2.41.57-3.6.84a94,94,0,0,0-24.24,10.07A134.24,134.24,0,0,0,57.73,270c-4.23,3.45-7.39,6.29-9.48,8.27-1,1-1.83,1.74-2.37,2.26l-.82.75.78-.79,2.34-2.3c2.07-2,5.2-4.87,9.43-8.34A131.6,131.6,0,0,1,74,258.54a93.86,93.86,0,0,1,24.3-10.17c1.19-.28,2.37-.67,3.61-.86l3.75-.68c1.26-.24,2.56-.3,3.86-.47l2-.2c.66-.07,1.33-.06,2-.08,1.34,0,2.69-.11,4.05-.09l4.13.21a18.62,18.62,0,0,1,2.09.18l2.1.24c1.39.23,2.81.43,4.22.73,11.35,2.22,22.72,7.24,34.3,12.94,5.8,2.85,11.7,5.86,17.84,8.7a139.68,139.68,0,0,0,19.25,7.47,68.85,68.85,0,0,0,21.1,2.9A63.12,63.12,0,0,0,244,274.85a116.45,116.45,0,0,0,19.54-10.12c6.15-3.86,12-8,17.79-12,11.55-8,23-15.55,35.26-19.93a101.14,101.14,0,0,1,36.08-6.07,107.14,107.14,0,0,1,44.44,10.44A109,109,0,0,1,408,243.14a115.59,115.59,0,0,1,16,11.81,124.1,124.1,0,0,1,9,8.78l2.18,2.45C435.74,266.73,436,267,436,267Z" style="fill:#263238"></path></g><g id="freepik--Character--inject-15"><path d="M266.78,230.44h0a8.31,8.31,0,0,1-8.29-9.15c.27-2.67.5-4.84.5-4.84s-6.57-1-6.67-7.57,1-21.66,1-21.66h0a22.79,22.79,0,0,1,22.94,2.83l1,.74-2.2,31.91A8.31,8.31,0,0,1,266.78,230.44Z" style="fill:#ffbe9d"></path><path d="M255.18,199.59a1,1,0,1,0-1.35-.06A1,1,0,0,0,255.18,199.59Z" style="fill:#263238"></path><path d="M253.35,196.86c.1.12.75-.38,1.65-.39s1.56.46,1.66.35-.05-.26-.34-.48a2.24,2.24,0,0,0-2.64,0C253.4,196.61,253.3,196.81,253.35,196.86Z" style="fill:#263238"></path><path d="M263.48,199a1,1,0,1,0,1.31.31A.94.94,0,0,0,263.48,199Z" style="fill:#263238"></path><path d="M262.88,197.51c.1.11.75-.39,1.65-.4s1.56.46,1.66.35-.05-.26-.34-.48a2.24,2.24,0,0,0-2.64,0C262.93,197.25,262.83,197.46,262.88,197.51Z" style="fill:#263238"></path><path d="M259.49,205.26A3.91,3.91,0,0,0,258,205c-.24,0-.43-.08-.44-.21a1.26,1.26,0,0,1,.16-.67c.24-.6.47-1.21.72-1.84a25.45,25.45,0,0,0,1.53-4.84,25.82,25.82,0,0,0-2,4.66l-.67,1.85a1.49,1.49,0,0,0-.13,1,.64.64,0,0,0,.41.38,1.27,1.27,0,0,0,.41.05A4.57,4.57,0,0,0,259.49,205.26Z" style="fill:#263238"></path><path d="M259,216.35a15.26,15.26,0,0,0,8.56-2.45s-2,4.73-8.57,4.16Z" style="fill:#eb996e"></path><path d="M276.5,197.74c.14,0,5.39-.27,4.24,4.72-1,4.32-5.6,2.68-5.59,2.54S276.5,197.74,276.5,197.74Z" style="fill:#ffbe9d"></path><path d="M277.11,203.2s.06.06.18.13a.71.71,0,0,0,.56.09,1.87,1.87,0,0,0,1.1-1.54,2.72,2.72,0,0,0-.06-1.11.86.86,0,0,0-.49-.65.38.38,0,0,0-.47.14c-.08.11-.06.2-.08.21s-.09-.09,0-.26A.49.49,0,0,1,278,200a.57.57,0,0,1,.43-.05,1.06,1.06,0,0,1,.69.78,2.54,2.54,0,0,1,.1,1.24,2,2,0,0,1-1.36,1.71.82.82,0,0,1-.67-.21C277.1,203.3,277.09,203.2,277.11,203.2Z" style="fill:#eb996e"></path><path d="M275.12,202.2c-1.05.55-2.38-.3-2.84-1.39a8.6,8.6,0,0,1-.28-3.51,18,18,0,0,0-.52-4.79,4.16,4.16,0,0,0-1.5-2.63,4.21,4.21,0,0,0-3.43-.12,8,8,0,0,1-3.45.62c-1.54-.24-2.74-1.54-4.27-1.85s-2.84.31-4.26.62a6.37,6.37,0,0,1-4.24-.38,3.64,3.64,0,0,1-2.05-3.53,2.59,2.59,0,0,1,3.15-2.14,2.09,2.09,0,0,1-.15-3.17,3.32,3.32,0,0,1,3.45-.46,8.8,8.8,0,0,1,2.92,2.2,2.45,2.45,0,0,1,2.45-1.82,5.11,5.11,0,0,1,3,1.25c.88.68,1.66,1.48,2.59,2.07,1.86,1.19,4.14,1.45,6.28,2s4.4,1.56,5.32,3.56c.82,1.77.06,3.78-.14,5.71s-.24,2.47-.46,4.36C276.7,198.8,276.65,201.45,275.12,202.2Z" style="fill:#263238"></path><path d="M258.5,207.84c0,.06.24.19.68.21a2.87,2.87,0,0,0,1.65-.47,2.8,2.8,0,0,0,1.08-1.32c.15-.41.14-.69.08-.7s-.42,1-1.42,1.63A6.47,6.47,0,0,1,258.5,207.84Z" style="fill:#fff"></path><path d="M274.58,187.63c.13.06.53-.7,1.41-1.17s1.73-.41,1.75-.54-.2-.17-.57-.2a2.65,2.65,0,0,0-1.4.33,2.58,2.58,0,0,0-1,1C274.55,187.37,274.53,187.61,274.58,187.63Z" style="fill:#263238"></path><path d="M275.66,182.84c-.13,0,0,1-.24,2.21s-.71,2.07-.6,2.15a4.11,4.11,0,0,0,.84-4.36Z" style="fill:#263238"></path><path d="M276.82,205.56s-.25.37.08.93a1.34,1.34,0,1,0,1.61-2c-.6-.22-1,.06-.93.1s.36,0,.8.2a1.16,1.16,0,0,1,.51.61,1,1,0,0,1-.21.88,1,1,0,0,1-.82.36,1.16,1.16,0,0,1-.69-.39C276.85,205.92,276.9,205.56,276.82,205.56Z" style="fill:#263238"></path><path d="M286.1,245.82s20.32,12.11,19.47,14.38-22.64,15.59-22.64,15.59l5.09,10.7s37.72-12.43,35.67-28.22c-1.66-12.74-27.08-26.07-27.08-26.07Z" style="fill:#ffbe9d"></path><path d="M281.14,274.22c3.42.45,5.34.53,5.34.53l3.18.38,3.89,9.31-9.64,5.23c-3.05-.65-9.08-4.84-8.85-7.95s3.87-5.28,3.87-5.28S277.57,273.75,281.14,274.22Z" style="fill:#ffbe9d"></path><path d="M265.91,316.41s14.56,43.8,35,55.41,60.79,27.85,60.79,27.85l6.2-13.66s-54.45-27.11-57.22-35.31l-9.26-23.64" style="fill:#ffbe9d"></path><path d="M248.85,316.41c-.75,1.22-19.42,30.83-20.42,43S247,436.31,247,436.31l14.41-4.42s-14-65.14-12-67.75,27.49-38.35,27.49-38.35Z" style="fill:#ffbe9d"></path><path d="M240.25,237s-10,21.43-12.36,20.81c-1.92-.5-12.64-14.26-16.44-19.2,0-.9,0-2.13,0-3.69.11-3.59-2.43-2-2.43-2s-2.52-3.42-5.64-3.33-6.69,6.51-7,9.61l6.17,9.07c5.19,9.92,17.32,30.1,29.07,27.35,12.51-2.93,23.21-29.56,23.21-29.56Z" style="fill:#ffbe9d"></path><polygon points="243.47 425.51 248.18 439.68 262.55 435.5 258.44 417.87 243.47 425.51" style="fill:#ebebeb"></polygon><path d="M246.6,437l-.11-1.33,15.15-4.19,1.34,5.85-1,.28c-4.2,1.19-21.45,5.75-24.48,5.53-3.39-.26,9-6.14,9-6.14" style="fill:#FF725E"></path><g style="opacity:0.5"><path d="M257.34,438.21a4.7,4.7,0,0,1,4.58-5.66l1,4.31Z" style="fill:#fff"></path></g><g style="opacity:0.4"><path d="M240.59,440.1s-4.41,2.51-3.56,3c1.32.73,18.35-3.33,26-5.75l-.17-.61-20.59,4.91S241.49,439.93,240.59,440.1Z" style="fill:#fff"></path></g><path d="M263.09,436.67l-.26.09-.75.22-2.77.75c-2.35.62-5.61,1.43-9.22,2.24s-6.9,1.48-9.29,1.93l-2.82.51-.77.13a1,1,0,0,1-.28,0l.27-.07.76-.16,2.82-.57c2.38-.49,5.66-1.17,9.27-2s6.87-1.6,9.22-2.18l2.79-.69.76-.19Z" style="fill:#263238"></path><path d="M242.42,441.76a7,7,0,0,0-.83-1.22,6.19,6.19,0,0,0-1.19-.85,2.11,2.11,0,0,1,1.33.72A2.19,2.19,0,0,1,242.42,441.76Z" style="fill:#263238"></path><path d="M246.45,438.43s-.32-.17-.62-.48-.52-.58-.49-.62.32.18.62.49S246.48,438.4,246.45,438.43Z" style="fill:#263238"></path><path d="M247.55,437.49c0,.05-.31-.06-.63-.24s-.56-.36-.53-.4.31.06.63.24S247.57,437.45,247.55,437.49Z" style="fill:#263238"></path><path d="M245.62,437.21a2.87,2.87,0,0,1-1,.21,5.77,5.77,0,0,1-1.11,0,2.8,2.8,0,0,1-.66-.12.53.53,0,0,1-.31-.25.4.4,0,0,1,.06-.43,1.87,1.87,0,0,1,2.37,0,1.84,1.84,0,0,1,.47.59c.08.16.09.26.08.26a2.59,2.59,0,0,0-.64-.74,1.77,1.77,0,0,0-1-.36,1.54,1.54,0,0,0-1.16.34c-.13.15,0,.32.17.39a3.12,3.12,0,0,0,.61.11,6.86,6.86,0,0,0,1.08,0C245.24,437.26,245.62,437.18,245.62,437.21Z" style="fill:#263238"></path><path d="M245.38,437.31s-.22-.2-.27-.66a1.49,1.49,0,0,1,.11-.78,1,1,0,0,1,.71-.69.39.39,0,0,1,.4.39,1.08,1.08,0,0,1-.06.48,3.52,3.52,0,0,1-.34.7,1.53,1.53,0,0,1-.47.53,6.23,6.23,0,0,1,.36-.6,3.79,3.79,0,0,0,.28-.69c.09-.24.09-.63-.16-.62s-.46.33-.56.57a1.68,1.68,0,0,0-.14.7A3.57,3.57,0,0,0,245.38,437.31Z" style="fill:#263238"></path><path d="M261.83,432.53a10.45,10.45,0,0,0-1.13.29,5.15,5.15,0,0,0-2.26,1.58,5.26,5.26,0,0,0-1.06,2.55c-.08.71,0,1.16,0,1.16a.86.86,0,0,1-.07-.31,3.88,3.88,0,0,1,0-.87,4.86,4.86,0,0,1,1.05-2.65,4.92,4.92,0,0,1,2.36-1.59,5,5,0,0,1,.85-.17C261.71,432.51,261.83,432.51,261.83,432.53Z" style="fill:#263238"></path><path d="M255.06,437.14a8.66,8.66,0,0,1-2.2.73,8.81,8.81,0,0,1-2.3.33c0-.06,1-.22,2.25-.52S255,437.09,255.06,437.14Z" style="fill:#263238"></path><path d="M258.08,436.46s0,.23-.09.48-.06.47-.11.48-.14-.22-.07-.52S258,436.43,258.08,436.46Z" style="fill:#263238"></path><path d="M258.9,434.78s0,.22-.14.41-.26.34-.31.31,0-.21.14-.41S258.85,434.76,258.9,434.78Z" style="fill:#263238"></path><path d="M260.38,433.77c0,.06-.2.1-.41.23s-.35.29-.39.26,0-.27.29-.42S260.39,433.72,260.38,433.77Z" style="fill:#263238"></path><path d="M261.47,433.2c0,.05,0,.15-.15.23s-.24.1-.27.06,0-.14.16-.22S261.44,433.16,261.47,433.2Z" style="fill:#263238"></path><polygon points="353.89 396.46 367.71 402.11 373.89 388.49 357.83 380.13 353.89 396.46" style="fill:#ebebeb"></polygon><path d="M364.67,401.59l-1.07-.78,6.67-14.23,5.31,2.79-.4.9c-1.83,4-9.6,20-11.74,22.18-2.4,2.41,1.23-10.86,1.23-10.86" style="fill:#FF725E"></path><g style="opacity:0.5"><path d="M372.55,394.2a4.71,4.71,0,0,1-1.31-7.16l3.9,2.07Z" style="fill:#fff"></path></g><g style="opacity:0.4"><path d="M363.09,408.15s-1,5,0,4.64c1.41-.53,9.41-16.09,12.53-23.45l-.57-.27-9.68,18.83S363.55,407.36,363.09,408.15Z" style="fill:#fff"></path></g><path d="M375.14,388.84a2.15,2.15,0,0,1-.11.25c-.09.21-.2.45-.32.71l-1.24,2.6c-1.06,2.18-2.56,5.18-4.29,8.45s-3.37,6.2-4.58,8.31l-1.46,2.48-.4.67a2.26,2.26,0,0,1-.15.22.81.81,0,0,1,.12-.24l.37-.69,1.4-2.51c1.18-2.12,2.79-5.06,4.53-8.33s3.25-6.26,4.34-8.42l1.29-2.57c.14-.26.25-.49.36-.7S375.13,388.83,375.14,388.84Z" style="fill:#263238"></path><path d="M365.54,407.85a6,6,0,0,0-1.46-.17,6.06,6.06,0,0,0-1.43.35,2,2,0,0,1,1.42-.54A2.1,2.1,0,0,1,365.54,407.85Z" style="fill:#263238"></path><path d="M365.64,402.62a1.72,1.72,0,0,1-.77.15,1.69,1.69,0,0,1-.79,0,1.81,1.81,0,0,1,.77-.16A1.77,1.77,0,0,1,365.64,402.62Z" style="fill:#263238"></path><path d="M365.64,401.17c0,.05-.25.19-.59.32s-.64.19-.66.14.25-.2.59-.32S365.62,401.12,365.64,401.17Z" style="fill:#263238"></path><path d="M364.17,402.45a3,3,0,0,1-.48.89,5.69,5.69,0,0,1-.72.84,3.31,3.31,0,0,1-.52.43.51.51,0,0,1-.39.07.38.38,0,0,1-.29-.32,1.89,1.89,0,0,1,2.32-1.76.62.62,0,0,1,.25.11,2.83,2.83,0,0,0-1,0,1.93,1.93,0,0,0-.91.5,1.6,1.6,0,0,0-.49,1.11c0,.2.23.23.41.12a2.49,2.49,0,0,0,.48-.39,7.25,7.25,0,0,0,.73-.79C364,402.77,364.14,402.43,364.17,402.45Z" style="fill:#263238"></path><path d="M364.09,402.7a1,1,0,0,1-.68-.23,1.61,1.61,0,0,1-.52-.59,1,1,0,0,1-.06-1,.4.4,0,0,1,.56-.05,1.19,1.19,0,0,1,.32.36,3,3,0,0,1,.31.71,1.54,1.54,0,0,1,.1.71,6.89,6.89,0,0,1-.22-.66,4.23,4.23,0,0,0-.34-.67c-.13-.22-.42-.48-.58-.28a.92.92,0,0,0,.06.79,1.67,1.67,0,0,0,.45.57A3.33,3.33,0,0,0,364.09,402.7Z" style="fill:#263238"></path><path d="M371.16,387.1a11.13,11.13,0,0,0-.51,1,5.12,5.12,0,0,0-.26,2.74,5,5,0,0,0,1.24,2.46c.48.53.88.76.85.79a1.21,1.21,0,0,1-.28-.15,4.18,4.18,0,0,1-.67-.55,4.81,4.81,0,0,1-1-5.35,3.65,3.65,0,0,1,.43-.75A1,1,0,0,1,371.16,387.1Z" style="fill:#263238"></path><path d="M370.26,395.24a8.78,8.78,0,0,1-.88,2.14,8.37,8.37,0,0,1-1.25,2s.5-.91,1.08-2S370.21,395.22,370.26,395.24Z" style="fill:#263238"></path><path d="M371.71,392.5c.05,0,.15.18.31.38s.32.36.29.4-.26,0-.44-.28S371.66,392.51,371.71,392.5Z" style="fill:#263238"></path><path d="M371,390.79s.15.15.22.37.09.42,0,.43-.14-.15-.21-.37S370.92,390.81,371,390.79Z" style="fill:#263238"></path><path d="M371.17,389s-.06.22-.1.47,0,.45-.05.46-.18-.19-.14-.49S371.13,389,371.17,389Z" style="fill:#263238"></path><path d="M371.45,387.81c.05,0,.08.12.06.26s-.07.25-.12.24-.08-.12-.07-.26S371.4,387.8,371.45,387.81Z" style="fill:#263238"></path><path d="M265.78,180.92s.19,0,.37-.2a.56.56,0,0,0-.21-.87,2.06,2.06,0,0,0-1.66.06,1,1,0,0,0-.62.62,1.22,1.22,0,0,0,.23.95,8.07,8.07,0,0,0,2.89,2.87,5,5,0,0,0,1.66.35c0,.05-.69.39-1.8,0a4.74,4.74,0,0,1-1.66-1.1,12.18,12.18,0,0,1-1.54-1.85,1.69,1.69,0,0,1-.27-1.36,1.49,1.49,0,0,1,.92-.93,3.38,3.38,0,0,1,1.09-.19,1.69,1.69,0,0,1,1,.27,1,1,0,0,1,.42.75.69.69,0,0,1-.29.58C266,181.09,265.75,180.94,265.78,180.92Z" style="fill:#263238"></path><path d="M253.63,306.52s16.51,36.43,19.63,36.65c0,0,33-12.71,32.56-14.05s-8-15.39-8.25-19-6.28-13.06-6.28-13.06Z" style="fill:#263238"></path><polygon points="253.63 306.52 236.46 333.58 265.91 348.75 277.72 331.58 253.63 306.52" style="fill:#263238"></polygon><path d="M273.1,343.43c-.13.06-3.46-7-7.43-15.69s-7.09-15.84-7-15.9,3.46,7,7.43,15.69S273.23,343.37,273.1,343.43Z" style="fill:#455a64"></path><path d="M305.9,328.77a7.76,7.76,0,0,1-1.2.73c-.78.45-1.93,1.06-3.37,1.8-2.86,1.48-6.87,3.43-11.38,5.39s-8.67,3.58-11.7,4.66c-1.52.55-2.76,1-3.62,1.24a6.57,6.57,0,0,1-1.35.37,8,8,0,0,1,1.29-.56l3.55-1.39c3-1.18,7.12-2.83,11.62-4.79s8.53-3.85,11.43-5.25l3.44-1.65A7.56,7.56,0,0,1,305.9,328.77Z" style="fill:#455a64"></path><path d="M305.22,326.9a8.07,8.07,0,0,1-1.18.77c-.77.47-1.9,1.12-3.32,1.88a118.8,118.8,0,0,1-11.41,5.36,116.11,116.11,0,0,1-11.92,4.1c-1.55.44-2.81.77-3.69,1a6.79,6.79,0,0,1-1.38.26,7.26,7.26,0,0,1,1.32-.46l3.65-1.12c3.07-1,7.27-2.39,11.82-4.24s8.57-3.75,11.44-5.19l3.4-1.74A7.18,7.18,0,0,1,305.22,326.9Z" style="fill:#455a64"></path><path d="M279.86,311.91a8.74,8.74,0,0,1-2.39,1.46,11.5,11.5,0,0,1-6.65,1.09,8,8,0,0,1-3.5-1.44,7,7,0,0,1-2-2.35,5.58,5.58,0,0,1-.59-2,1.58,1.58,0,0,1,0-.76,8.78,8.78,0,0,0,.87,2.57,6.9,6.9,0,0,0,2,2.14,7.79,7.79,0,0,0,3.3,1.31,12.06,12.06,0,0,0,6.43-.91C278.9,312.39,279.82,311.84,279.86,311.91Z" style="fill:#455a64"></path><path d="M262.56,320.68s-.22.12-.65.21a4.43,4.43,0,0,1-1.87.05,2.55,2.55,0,0,1-1.18-.64,4.81,4.81,0,0,1-.86-1.24c-.45-.93-.9-2-1.31-3.07a30.56,30.56,0,0,1-1.56-5.83,8.45,8.45,0,0,1-.22-2.49,18.75,18.75,0,0,1,.58,2.42,44.12,44.12,0,0,0,1.68,5.72c.41,1.1.84,2.12,1.26,3a2.82,2.82,0,0,0,1.71,1.75,5.23,5.23,0,0,0,1.75.1C262.31,320.66,262.55,320.64,262.56,320.68Z" style="fill:#455a64"></path><path d="M274.54,223.5c8.39-.38,15.13,2.73,30.75,12.42l-9,17.82L284.18,247Z" style="fill:#FF725E"></path><path d="M250.63,250.78l-.82,25.33,2.13,30.41s36.15-4.5,41.71-11.3l-7.16-18.31L287.7,239a16.74,16.74,0,0,0-3.06-10.24c-2.52-3.31-8.11-5-11.51-5.65H253.85s-13.18-.36-15.69,13.19Z" style="fill:#FF725E"></path><path d="M250.65,254.93h9.17v24.84l-9.6,2.15S248.65,264.15,250.65,254.93Z" style="fill:#fff;opacity:0.30000000000000004"></path><path d="M286.69,270.81c-.15,0,0-8.22.26-18.34s.64-18.33.79-18.32,0,8.21-.27,18.33S286.83,270.81,286.69,270.81Z" style="fill:#263238"></path><path d="M242.67,227.48s-2.38.33-12.06,24.2L248.82,263s8.28-23.08,7.94-27.78S249.3,221.06,242.67,227.48Z" style="fill:#FF725E"></path><path d="M245.73,225.1a1.54,1.54,0,0,1,.46-.15,6,6,0,0,1,1.35-.2,10,10,0,0,1,7.63,3.33,6.6,6.6,0,0,1,1.08,1.66,8.44,8.44,0,0,1,.57,2c.5,2.82-.07,5.95-.85,9.06-1.6,6.27-3.74,11.7-5,15.7-.67,2-1.17,3.63-1.53,4.75-.16.51-.3.94-.41,1.3a2.78,2.78,0,0,1-.17.44,1.27,1.27,0,0,1,.07-.47c.09-.36.19-.8.32-1.32.29-1.15.75-2.79,1.37-4.81,1.21-4,3.3-9.5,4.88-15.72.78-3.09,1.35-6.14.89-8.85a7.51,7.51,0,0,0-4.11-5.58,9.9,9.9,0,0,0-4.69-1.3C246.38,225,245.75,225.16,245.73,225.1Z" style="fill:#263238"></path><g style="opacity:0.4"><path d="M287.11,248.76l8.19,4.44a.89.89,0,0,0,.54.15.61.61,0,0,0,.42-.72,1.88,1.88,0,0,0-.45-.8,50.93,50.93,0,0,1-8.25-14.49Z"></path></g><g style="opacity:0.4"><path d="M251.63,254.69a22.34,22.34,0,0,0,5.24-22.31,46.29,46.29,0,0,1-1.6,10.16C254,246.51,251.63,254.69,251.63,254.69Z"></path></g></g></svg>