<svg xmlns="http://www.w3.org/2000/svg" viewBox="0 0 500 500"><g id="freepik--Shadow--inject-35"><ellipse cx="421.29" cy="421.41" rx="46.34" ry="10.9" style="fill:#ebebeb"></ellipse><ellipse cx="86.7" cy="435.8" rx="46.34" ry="10.9" style="fill:#ebebeb"></ellipse><ellipse cx="112.02" cy="421.8" rx="46.34" ry="10.9" style="fill:#ebebeb"></ellipse><ellipse cx="272.39" cy="439.36" rx="160.74" ry="20.21" style="fill:#ebebeb"></ellipse></g><g id="freepik--Plant--inject-35"><path d="M50.09,313.26c12.3,12,14.37,30.67,11.77,47-.06.37-.64.27-.64-.08,0-3.72.12-7.4.1-11.07-.06-.17-.12-.32-.19-.49-3.21-2.34-6.16-5-8-8.59-2-4-2.86-8.59-4.43-12.81-.15-.41.28-.29.57-.08,7.48,5.52,9.86,11.46,12,19.39A65.49,65.49,0,0,0,60,334.17c-1.62-7.53-4.82-15-10.22-20.59C49.56,313.37,49.88,313,50.09,313.26Z" style="fill:#263238"></path><path d="M47.78,314.66c-2.12.07-3.44,3.46-5.09,4.44a1.6,1.6,0,0,1-2.34-.36c-1.63-2.29.61-5.1,2.72-6.67-1.51.62-2.76,1.71-4.39,2a1.51,1.51,0,0,1-2-1.18c-.72-3.11,3.18-4.49,5.85-4.56-1.29-.9-5-3.35-3-4.56s6.37,2.3,7.79,3.45c2.09,1.7,4.59,4.24,4.68,6.89C52.12,317.22,49.41,315.31,47.78,314.66Z" style="fill:#FFC727"></path><path d="M47.78,314.66c-2.12.07-3.44,3.46-5.09,4.44a1.6,1.6,0,0,1-2.34-.36c-1.63-2.29.61-5.1,2.72-6.67-1.51.62-2.76,1.71-4.39,2a1.51,1.51,0,0,1-2-1.18c-.72-3.11,3.18-4.49,5.85-4.56-1.29-.9-5-3.35-3-4.56s6.37,2.3,7.79,3.45c2.09,1.7,4.59,4.24,4.68,6.89C52.12,317.22,49.41,315.31,47.78,314.66Z" style="opacity:0.1"></path><path d="M48.39,315.18c-2.7-1.23-7.9.54-8.34-.48-.9-2.08,3.25-3.51,5.5-3.79-2.07-.56-6-1.45-5.9-3.44.15-2.43,6.06-.34,9.06,1.95,3.77,2.9,3.75,5.69,3.13,6.25C51,316.44,48.84,315.39,48.39,315.18Z" style="fill:#FFC727"></path><path d="M78.1,312.07c-12.75,11.56-15.52,30.1-13.55,46.5,0,.38.63.3.64-.05.15-3.71.17-7.4.32-11.06.08-.17.14-.32.21-.49,3.3-2.21,6.35-4.73,8.31-8.27,2.21-4,3.19-8.49,4.92-12.64.16-.4-.27-.3-.56-.1-7.69,5.23-10.3,11.07-12.74,18.92a64.8,64.8,0,0,1,1.77-12.3c1.9-7.46,5.38-14.8,11-20.18A.23.23,0,0,0,78.1,312.07Z" style="fill:#263238"></path><path d="M80.36,313.56c2.11.15,3.31,3.58,4.92,4.63a1.59,1.59,0,0,0,2.35-.28c1.72-2.22-.42-5.11-2.46-6.77,1.48.68,2.69,1.82,4.3,2.19a1.53,1.53,0,0,0,2-1.11c.84-3.08-3-4.61-5.68-4.78,1.33-.85,5.14-3.16,3.21-4.44s-6.45,2.05-7.91,3.15c-2.16,1.62-4.75,4.06-4.94,6.7C75.93,316,78.71,314.14,80.36,313.56Z" style="fill:#FFC727"></path><path d="M80.36,313.56c2.11.15,3.31,3.58,4.92,4.63a1.59,1.59,0,0,0,2.35-.28c1.72-2.22-.42-5.11-2.46-6.77,1.48.68,2.69,1.82,4.3,2.19a1.53,1.53,0,0,0,2-1.11c.84-3.08-3-4.61-5.68-4.78,1.33-.85,5.14-3.16,3.21-4.44s-6.45,2.05-7.91,3.15c-2.16,1.62-4.75,4.06-4.94,6.7C75.93,316,78.71,314.14,80.36,313.56Z" style="opacity:0.1"></path><path d="M79.73,314.05c2.75-1.12,7.87.84,8.35-.16,1-2.05-3.12-3.64-5.35-4,2.09-.48,6.07-1.22,6-3.21-.06-2.44-6.05-.57-9.13,1.61-3.88,2.75-4,5.54-3.36,6.12C77.09,315.21,79.27,314.24,79.73,314.05Z" style="fill:#FFC727"></path><path d="M65.07,342.61a126.5,126.5,0,0,1-4,18.29.45.45,0,0,1-.89-.18c.83-5.64,2.36-11.17,3.2-16.8a85.2,85.2,0,0,0,1-17.25c-.54-9.5-3.12-19.6-9.32-27-.13-.18.16-.43.3-.26,12.4,14.46,10.43,32.2,10.42,33.79,1.75-6,3.56-12.86,10.21-18.95.28-.27.51-.14.46.3-1.19,11.11-4.28,16.91-10.72,22.85C65.57,339.13,65.35,340.88,65.07,342.61Z" style="fill:#263238"></path><path d="M55,301.3c-2.23-1-5.31,1.85-7.52,2.05a1.83,1.83,0,0,1-2.23-1.56c-.55-3.19,3.19-5,6.17-5.55-1.88-.12-3.72.38-5.56-.11a1.76,1.76,0,0,1-1.46-2.23c.82-3.59,5.56-3.06,8.37-1.78-.89-1.59-3.51-6-.86-6.26s5.45,5.58,6.35,7.5c1.31,2.81,2.63,6.7,1.39,9.5C58.19,306.14,56.34,302.8,55,301.3Z" style="fill:#FFC727"></path><path d="M55,301.3c-2.23-1-5.31,1.85-7.52,2.05a1.83,1.83,0,0,1-2.23-1.56c-.55-3.19,3.19-5,6.17-5.55-1.88-.12-3.72.38-5.56-.11a1.76,1.76,0,0,1-1.46-2.23c.82-3.59,5.56-3.06,8.37-1.78-.89-1.59-3.51-6-.86-6.26s5.45,5.58,6.35,7.5c1.31,2.81,2.63,6.7,1.39,9.5C58.19,306.14,56.34,302.8,55,301.3Z" style="opacity:0.1"></path><path d="M55.35,302.15c-2.19-2.64-8.48-3.42-8.42-4.7.12-2.61,5.15-2,7.61-1.17-1.86-1.62-5.51-4.53-4.38-6.54,1.37-2.44,6.46,2.71,8.42,6.6,2.45,4.9,1,7.78.09,8.05C57.4,304.76,55.71,302.59,55.35,302.15Z" style="fill:#FFC727"></path><path d="M73.23,346l5.47,41.81H45.4c.69-3.71,6.89-41.86,6.89-41.86Z" style="fill:#FFC727"></path></g><g id="freepik--Floor--inject-35"><polygon points="37.69 387.76 90.77 387.51 143.85 387.43 250 387.26 356.15 387.43 409.23 387.51 462.31 387.76 409.23 388 356.15 388.09 250 388.26 143.85 388.09 90.77 388 37.69 387.76" style="fill:#263238"></polygon></g><g id="freepik--Dumbbell--inject-35"><rect x="83.09" y="396.86" width="11.36" height="25.94" style="fill:#455a64"></rect><rect x="77.63" y="399.65" width="5.46" height="20.37" style="fill:#455a64"></rect><rect x="80.37" y="399.65" width="2.73" height="20.37" style="fill:#37474f"></rect><rect x="128.08" y="396.86" width="11.36" height="25.94" transform="translate(267.52 819.67) rotate(180)" style="fill:#455a64"></rect><rect x="139.44" y="399.65" width="5.46" height="20.37" transform="translate(284.34 819.67) rotate(180)" style="fill:#455a64"></rect><rect x="139.44" y="399.64" width="2.73" height="20.37" style="fill:#37474f"></rect><rect x="94.45" y="404.91" width="33.63" height="9.85" style="fill:#37474f"></rect><rect x="55.96" y="411.11" width="11.36" height="25.94" style="fill:#455a64"></rect><rect x="50.5" y="413.9" width="5.46" height="20.37" style="fill:#455a64"></rect><rect x="53.23" y="413.9" width="2.73" height="20.37" style="fill:#37474f"></rect><rect x="100.95" y="411.11" width="11.36" height="25.94" transform="translate(213.25 848.16) rotate(180)" style="fill:#455a64"></rect><rect x="112.3" y="413.9" width="5.46" height="20.37" transform="translate(230.07 848.16) rotate(180)" style="fill:#455a64"></rect><rect x="112.3" y="413.89" width="2.73" height="20.37" style="fill:#37474f"></rect><rect x="67.31" y="419.16" width="33.63" height="9.85" style="fill:#37474f"></rect></g><g id="freepik--gym-ball--inject-35"><ellipse cx="219.65" cy="379.29" rx="68.84" ry="62.52" style="fill:#FFC727"></ellipse><path d="M288.49,379.29c0,34.53-30.82,62.53-68.84,62.53-25.25,0-47.32-12.35-59.29-30.75a57.92,57.92,0,0,1-9.55-31.78c0-34.53,30.82-62.52,68.84-62.52a74.28,74.28,0,0,1,30.19,6.32C272.73,333.24,288.49,354.59,288.49,379.29Z" style="fill:#FFC727"></path><path d="M245.46,321.32a113.84,113.84,0,0,1-27.23,3.34,106.9,106.9,0,0,1-18.44-1.58c-2.41-.43-4.69-.92-6.81-1.44.6-.23,1.2-.46,1.81-.67h0a108.92,108.92,0,0,0,48.95-.26C244.33,320.9,244.9,321.11,245.46,321.32ZM257.34,327c-34.76,12.47-62.89,5.22-75.8.25l-1.09.67a97.52,97.52,0,0,0,19.34,5.44,105.83,105.83,0,0,0,18.44,1.59,116.64,116.64,0,0,0,40.2-7.29C258.07,327.4,257.71,327.18,257.34,327Zm11.26,8.36c-46.36,17.66-83.54,6.44-98.24.32-.27.24-.53.49-.79.74a126.84,126.84,0,0,0,48.71,9.44,141.81,141.81,0,0,0,51.14-9.74Zm-89.66,94.38c1,.69,2.08,1.36,3.16,2h0a131.09,131.09,0,0,0,36.16,5A139.7,139.7,0,0,0,259,430.6c1-.63,2-1.29,3-2C225.87,440.48,196,435.18,178.94,429.71Zm98.4-84.55c-35.4,13.65-65.86,12.64-85.69,9.16a137.1,137.1,0,0,1-30-8.76l-.57.83a136.78,136.78,0,0,0,30.33,8.91,151.13,151.13,0,0,0,26.2,2.25A166.16,166.16,0,0,0,277.93,346Zm-85.69,77.62a137.78,137.78,0,0,1-28.92-8.32c.39.53.79,1.05,1.21,1.57a140.09,140.09,0,0,0,27.49,7.72,151.13,151.13,0,0,0,26.2,2.25A165.79,165.79,0,0,0,276,415.17c.39-.49.76-1,1.12-1.49C241.83,427.26,211.44,426.25,191.65,422.78Zm92.2-66.1c-38.73,15.83-72.14,14.83-93.65,11.05A140.38,140.38,0,0,1,155.31,357c-.13.31-.26.62-.37.93a141.42,141.42,0,0,0,35,10.77,158.55,158.55,0,0,0,27.55,2.37,175.56,175.56,0,0,0,66.7-13.47C284.11,357.29,284,357,283.85,356.68Zm3.58,11.59c-40.25,17.4-75.06,16.44-97.23,12.56-21.07-3.7-35-10.67-38.35-12.46l-.18,1c3.88,2.05,17.72,8.78,38.31,12.4a158.55,158.55,0,0,0,27.55,2.37,176.33,176.33,0,0,0,70.08-14.88Zm-98,27.8c-20-3.51-33.74-9.89-38.42-12.28,0,.39.06.78.11,1.16a141.43,141.43,0,0,0,38.09,12.1,164.51,164.51,0,0,0,28.28,2.43,180.6,180.6,0,0,0,70.76-14.78c0-.37.07-.74.1-1.12C247.39,401,212,400,189.41,396.07Zm.79,14a138.63,138.63,0,0,1-36-11.25c.16.45.33.89.51,1.34h0A141.05,141.05,0,0,0,190,411a158.55,158.55,0,0,0,27.55,2.37,175.73,175.73,0,0,0,67.21-13.67h0c.16-.43.32-.84.47-1.27C245.9,414.83,212,413.84,190.2,410Z" style="fill:#fff"></path><path d="M288.49,379.29c0,34.53-30.82,62.53-68.84,62.53-25.25,0-47.32-12.35-59.29-30.75,12.94,10.42,34.36,22.13,62.91,19,34.79-3.84,74.49-53.84,26.57-107C272.73,333.24,288.49,354.59,288.49,379.29Z" style="opacity:0.1"></path></g><g id="freepik--water-bottle--inject-35"><rect x="421.7" y="350.73" width="7.34" height="8.44" style="fill:#a6a6a6"></rect><rect x="419.39" y="356.44" width="11.97" height="9.64" style="fill:#c7c7c7"></rect><path d="M439.6,378v44.13H411.14V378c0-8.74,5.49-15.48,14.23-15.48S439.6,369.28,439.6,378Z" style="fill:#FFC727"></path><path d="M423.83,365.84a1.11,1.11,0,1,1-1.1-1.11A1.11,1.11,0,0,1,423.83,365.84Zm13,8.87a1.11,1.11,0,1,0,1.11,1.11A1.11,1.11,0,0,0,436.86,374.71Zm-12.6,1.11a1.11,1.11,0,1,0,1.11,1.1A1.1,1.1,0,0,0,424.26,375.82Zm1.11,10.59a1.11,1.11,0,1,0,1.11,1.11A1.11,1.11,0,0,0,425.37,386.41Zm-11.46,11.08a1.11,1.11,0,1,0,1.11,1.1A1.11,1.11,0,0,0,413.91,397.49Zm-1.11-9.86a1.11,1.11,0,1,0,1.11,1.11A1.11,1.11,0,0,0,412.8,387.63Zm.28-10.44a1.11,1.11,0,1,0,1.11,1.11A1.11,1.11,0,0,0,413.08,377.19Zm4.81-6.39a1.11,1.11,0,1,0,1.11,1.11A1.11,1.11,0,0,0,417.89,370.8Zm1.11,11a1.11,1.11,0,1,0,1.11,1.11A1.11,1.11,0,0,0,419,381.79Zm10.85-12a1.11,1.11,0,1,0,1.11,1.11A1.11,1.11,0,0,0,429.85,369.83Zm1.34,10.77a1.11,1.11,0,1,0,1.11,1.1A1.11,1.11,0,0,0,431.19,380.6Zm-11.6,11.51a1.11,1.11,0,1,0,1.11,1.11A1.11,1.11,0,0,0,419.59,392.11Zm12,8.76a1.11,1.11,0,1,0,1.11,1.1A1.11,1.11,0,0,0,431.54,400.87Zm-.17,8.34a1.11,1.11,0,1,0,1.11,1.1A1.11,1.11,0,0,0,431.37,409.21Zm-11.11-8.15a1.11,1.11,0,1,0,1.11,1.11A1.11,1.11,0,0,0,420.26,401.06Zm-5.4,13a1.11,1.11,0,1,0,1.1,1.11A1.1,1.1,0,0,0,414.86,414.06Zm11.14-18a1.11,1.11,0,1,0,1.1,1.11A1.11,1.11,0,0,0,426,396.07Zm.13,9a1.11,1.11,0,1,0,1.11,1.11A1.1,1.1,0,0,0,426.13,405.08Zm0,9a1.11,1.11,0,1,0,1.11,1.11A1.1,1.1,0,0,0,426.13,414.06Zm5.64,4.15a1.11,1.11,0,1,0,1.11,1.11A1.11,1.11,0,0,0,431.77,418.21Zm-17-12.6a1.11,1.11,0,1,0,1.11,1.1A1.1,1.1,0,0,0,414.72,405.61Zm5.54,4a1.11,1.11,0,1,0,1.11,1.1A1.11,1.11,0,0,0,420.26,409.6Zm16.79,4.46a1.11,1.11,0,1,0,1.11,1.11A1.11,1.11,0,0,0,437.05,414.06Zm-16.54,4.24a1.11,1.11,0,1,0,1.11,1.11A1.11,1.11,0,0,0,420.51,418.3Zm16.71-21.92a1.11,1.11,0,1,0,1.11,1.11A1.11,1.11,0,0,0,437.22,396.38Zm0,8.7a1.11,1.11,0,1,0,1.11,1.11A1.11,1.11,0,0,0,437.22,405.08Zm-5.45-13.3a1.11,1.11,0,1,0,1.11,1.11A1.11,1.11,0,0,0,431.77,391.78Zm6-5.53a1.11,1.11,0,1,0,1.11,1.11A1.1,1.1,0,0,0,437.77,386.25Z" style="fill:#fff"></path></g><g id="freepik--Character--inject-35"><path d="M156.21,231.11c-3.08,1.21-13.79,7-20.11,13-3.06,2.92-11,12.25-8.91,14.78s4.62,0,4.62,0-2.76,4.44-.45,6.8,6.16-1.71,6.16-1.71-2.5,4.77,0,6.95,5.65-2.54,5.65-2.54-2.48,4.25.31,5.2c3.36,1.13,7.06-7.23,10.61-10.3.81-.69,17.36-12.94,17.36-12.94Z" style="fill:#eb9481"></path><path d="M143.25,268.35c2.73-6.14,5-8.36,10.49-12,.1-.07,0-.25-.1-.19-5.71,3.11-8.95,5.48-10.7,12.1C142.86,268.56,143.12,268.64,143.25,268.35Z" style="fill:#263238"></path><path d="M137.33,264.18c3.39-6.13,5.82-8.55,11.3-12.83.08-.06,0-.2-.1-.14-5.72,3.74-8.9,6.18-11.48,12.75C136.93,264.26,137.18,264.46,137.33,264.18Z" style="fill:#263238"></path><path d="M132.11,258.39c3.72-5.7,6.26-8.47,12.12-11.94a.13.13,0,0,0-.12-.22c-6.31,3-9.51,6.39-12.16,12C131.77,258.64,131.88,258.75,132.11,258.39Z" style="fill:#263238"></path><path d="M176,249s-4,7.43-6.44,10.31-15.59,10.22-17.34,7.47c-2.26-3.54,4.49-9.28,8.16-11.65,0,0-5.23-8.2-1.27-13.36S176,249,176,249Z" style="fill:#eb9481"></path><path d="M151.94,265.58c.28-4.71,5.3-7.52,8.68-10.09a.39.39,0,0,0,0-.64c-2-3.59-3.69-9.21-1.77-13.07a.1.1,0,0,0-.17-.1c-2.62,3.86-1.37,9.52,1,13.31-3.51,2.58-8.42,5.62-7.81,10.59A0,0,0,1,0,151.94,265.58Z" style="fill:#263238"></path><path d="M183.5,290.71C196.63,271,206,230,196.6,225.32c-9.12-4.54-25.82-2.1-41.85,6.37-2.33,1.24,1.81,4.57,7.5,11.92,2.69,3.48,5.61,17.19,8.21,14.56,1.47-1.5,6.2-3.83,7.81-4.55,1.32-.59-4.1,23.69-6.75,32.83C167.28,301.07,180,296,183.5,290.71Z" style="fill:#eb9481"></path><path d="M191,276.36a87.32,87.32,0,0,1-7.49,14.35c-3.07,4.61-13.12,9.06-12.83.43Z" style="fill:#263238"></path><path d="M106.61,295.1c.27-3.3,3.32-14.3,7.27-22.09,1.92-3.78,8.57-14,11.59-12.8s1.33,4.43,1.33,4.43,3.46-3.92,6.38-2.39.14,6.39.14,6.39,3.85-3.76,6.65-2-.8,6.15-.8,6.15,3.36-3.6,5.06-1.2c2.05,2.89-4.89,8.84-6.8,13.12-.43,1-7.38,20.36-7.38,20.36Z" style="fill:#eb9481"></path><path d="M139.17,272.86c-5.1,4.39-6.57,7.19-8.5,13.51,0,.13-.23.1-.2,0,1.33-6.37,2.66-10.15,8.5-13.74C139.25,272.43,139.41,272.65,139.17,272.86Z" style="fill:#263238"></path><path d="M133.47,268.4c-4.89,5-6.51,8-9,14.52,0,.09-.19,0-.16-.06,1.93-6.56,3.35-10.3,8.9-14.67C133.43,268,133.69,268.17,133.47,268.4Z" style="fill:#263238"></path><path d="M126.42,265.07c-4.39,5.2-6.31,8.44-7.94,15a.13.13,0,0,1-.25,0c1-6.9,3.38-11,8-15.12C126.56,264.67,126.69,264.74,126.42,265.07Z" style="fill:#263238"></path><path d="M130.07,309.83s6-5.95,8-9.14,5.29-17.88,2.16-18.76c-4.05-1.14-7.59,7-8.81,11.18,0,0-9.36-2.65-13.16,2.63S130.07,309.83,130.07,309.83Z" style="fill:#eb9481"></path><path d="M139,282c-4.43,1.63-5.68,7.24-7.16,11.23a.39.39,0,0,1-.61.19c-4-.85-9.88-.88-13,2.07a.1.1,0,0,1-.15-.13c2.94-3.62,8.72-4.06,13-2.86,1.46-4.11,2.95-9.69,7.89-10.54C139,281.94,139.05,282,139,282Z" style="fill:#263238"></path><path d="M229,281.06s7.55,11.46,12.35,54.7c0,0-56-4.43-73-15-7.72-4.79-7.92-10.94-4.73-16.83.79-1.46,16.45-17.58,23.09-20.28,5.87-2.39,13.63,1.22,13.63,1.22Z" style="fill:#eb9481"></path><path d="M162.91,308.41c2.26-3.89,12.14-5.66,17.63-4.84s12.3,7.77,9.47,13.28-21.68,3.94-21.68,3.94,12.86,9.59,37.31,10.56c0,0,8.14-15.49,0-47.16l-4.92.62s-6.09-3.57-12.2-2.2C180.62,284.38,165.7,298,163.6,304s-1.52,9.61-1.52,9.61S161.8,310.32,162.91,308.41Z" style="fill:#455a64"></path><path d="M178.48,319.14c-18.56,12.18-62,25.38-69.16,17.73-7-7.43-4.77-34.71-2.58-43.33.65-2.56,5.53,1.32,14.21,4.65,4.12,1.57,18.09.42,16.31,3.66-1,1.84-4.89,10.94-2.39,11.41,1.42.27,20.35-5.29,36.06-7.32C189,303.62,183.8,315.65,178.48,319.14Z" style="fill:#eb9481"></path><path d="M132.36,261.46c-2.49-3.46-8.87-8.55-15.44-6.19-14.09,5-10.31,26.67-19.48,41.62-11.08,18.05-10,32.37,1,33.54,12.39,1.3,22.68-12.72,19.1-40-2.24-17.05,1.84-25.21,5.39-25.12a13,13,0,0,1,6.46,2.19Z" style="fill:#263238"></path><path d="M116.56,281c.16,2.73.63,5.42,1,8.12s.8,5.39,1.11,8.09.54,5.4.57,8.1a39.9,39.9,0,0,1-.59,8,20.78,20.78,0,0,1-2.74,7.46,23.31,23.31,0,0,1-5.51,5.88A17.77,17.77,0,0,1,103,330a16.61,16.61,0,0,1-4.11.28,14,14,0,0,1-2.05-.28,7.07,7.07,0,0,1-2-.62,10.57,10.57,0,0,0,4,1.23,16.79,16.79,0,0,0,4.25,0,18,18,0,0,0,4.14-1.08,19.55,19.55,0,0,0,3.76-2.05,22,22,0,0,0,3.25-2.75L115,324l.7-.8a18.27,18.27,0,0,0,1.28-1.72,21.78,21.78,0,0,0,3-7.87,51.74,51.74,0,0,0-.25-16.48c-.4-2.71-.93-5.39-1.49-8.06S117,283.71,116.56,281Z" style="fill:#263238"></path><path d="M131.19,260.11a22.82,22.82,0,0,0-4.28-3.71,12.56,12.56,0,0,0-5.21-1.88,12.71,12.71,0,0,0-5.44.57,16.22,16.22,0,0,0-2.51,1.14,13.86,13.86,0,0,0-2.26,1.54,15.73,15.73,0,0,0-3.35,4.29,26.61,26.61,0,0,0-2,5.18c-1.06,3.59-1.68,7.34-2.46,11.08a76.86,76.86,0,0,1-3,11.11,74.21,74.21,0,0,1-5.13,10.29,86.8,86.8,0,0,0-5.3,10,22,22,0,0,0-1.61,5.39l-.19,1.4c0,.47,0,.94,0,1.41l0,.71.08.71.15,1.42a19.23,19.23,0,0,1,.92-11.31,86.17,86.17,0,0,1,5-10.33,84.29,84.29,0,0,0,4.81-10.24A75.48,75.48,0,0,0,102.2,278c.81-3.7,1.44-7.47,2.57-11.18a28,28,0,0,1,2.22-5.4,15.82,15.82,0,0,1,3.77-4.54,14.22,14.22,0,0,1,2.5-1.58,16.92,16.92,0,0,1,2.72-1.12,12.4,12.4,0,0,1,11.15,1.88A20.72,20.72,0,0,1,131.19,260.11Z" style="fill:#263238"></path><path d="M136.17,261.74c-.77-1.15-2.6-2-3.47-1.71s-4.62,6.46-4.1,8.17,3.78,1.24,3.78,1.24Z" style="fill:#FFC727"></path><path d="M164.48,302.16c1.12.41,14.81-2.09,19.84-10.9,1.68-2.94-12.3-.5-12.3-.5l-.5-.52-7-7.24L152,288.55l-1.74.86s2,1.85,4.62,4.14l.36.33c.14.13.28.26.42.37.37.35.76.7,1.16,1.05l.91.78.95.8C161.86,299.5,164,302,164.48,302.16Z" style="fill:#eb9481"></path><path d="M154.86,293.55a20.17,20.17,0,0,0,16.66-3.31l-7-7.24L152,288.55l-1.74.86S152.29,291.26,154.86,293.55Z" style="fill:#263238"></path><path d="M164.16,263.55c11.77,13.18,5.2,21.72,2.36,24.26-2.59,2.3-11.68,9.81-24.75-2.09s-10.66-21.54-5-27.12S152.39,250.36,164.16,263.55Z" style="fill:#eb9481"></path><path d="M160.27,262.93a11.21,11.21,0,0,1-1.08.58,2,2,0,0,1-1.2.39.63.63,0,0,1-.5-.58,1.59,1.59,0,0,1,.93-1.28,2.31,2.31,0,0,1,1.62-.32A.68.68,0,0,1,160.27,262.93Z" style="fill:#263238"></path><path d="M151,270.77a9.91,9.91,0,0,0,.75-1,2,2,0,0,0,.57-1.14.63.63,0,0,0-.5-.58,1.55,1.55,0,0,0-1.4.72,2.29,2.29,0,0,0-.57,1.55A.67.67,0,0,0,151,270.77Z" style="fill:#263238"></path><path d="M156,272.25s0,.11,0,.14c.83.88,1.64,2,1.1,3a0,0,0,0,0,.05,0C158,274.44,156.9,273,156,272.25Z" style="fill:#263238"></path><path d="M154.33,272c-1.54,1.18.94,4.18,2.37,3.08S155.62,271,154.33,272Z" style="fill:#263238"></path><path d="M153.88,272.68c-.13.38-.13.89-.42,1.19a1.46,1.46,0,0,1-1.36.14s-.06,0,0,.08a1.41,1.41,0,0,0,1.86.56,1.45,1.45,0,0,0,.27-1.92C154.15,272.6,153.92,272.52,153.88,272.68Z" style="fill:#263238"></path><path d="M161,267.79s.1,0,.13,0c.73.95,1.73,1.93,2.83,1.55,0,0,.07,0,0,.06C162.81,270.12,161.5,268.82,161,267.79Z" style="fill:#263238"></path><path d="M161,266.14c1.41-1.34,4,1.58,2.68,2.82S159.82,267.26,161,266.14Z" style="fill:#263238"></path><path d="M161.78,265.8c.37-.05.84,0,1.13-.2s.3-.78.24-1.26c0,0,0,0,.07,0a1.47,1.47,0,0,1,.39,1.87c-.4.52-1.18.36-1.8-.08C161.69,266,161.63,265.82,161.78,265.8Z" style="fill:#263238"></path><path d="M162.16,280a1.82,1.82,0,0,0,1.24,0,3.36,3.36,0,0,0,.85-1s.07,0,.08,0a1.66,1.66,0,0,1-.83,1.44,1.29,1.29,0,0,1-1.4-.28A.07.07,0,0,1,162.16,280Z" style="fill:#263238"></path><path d="M163.19,273.38s1.35,1.21,1.9,1.86c0,.06-.08.22-.29.42,0,0,0,0,0,0a4,4,0,0,1-4,1.38c-.09,0-.07-.16,0-.17a6.05,6.05,0,0,0,3.5-1.57c-.11-.22-2.39-2-2.29-2.09a7.37,7.37,0,0,1,1.75-.91c-2.74-2.61-5.88-4.75-8.57-7.39a.11.11,0,0,1,.13-.18,60.65,60.65,0,0,1,9.57,7.56C165.29,272.63,163.54,273.27,163.19,273.38Z" style="fill:#263238"></path><path d="M164.44,275.43a4.89,4.89,0,0,1-.34,2.46,2.17,2.17,0,0,1-.9,1c-.87.5-1.51-.12-1.91-.79a5.19,5.19,0,0,1-.51-1.14A6.33,6.33,0,0,0,164.44,275.43Z" style="fill:#263238"></path><path d="M164.1,277.89a2.17,2.17,0,0,1-.9,1c-.87.5-1.51-.12-1.91-.79A2.27,2.27,0,0,1,164.1,277.89Z" style="fill:#ff9bbc"></path><path d="M143.66,285.87c1.31-1.42,1.26-8.7-5.06-15.5,0,0,5.25,6.5,5.64,7.81s0-4.08-5.06-9.64a30.27,30.27,0,0,0,8.3-2.44c3.24-1.73,4.78-3.26,4.78-3.62s-4.88,2.06-7,1.87c0,0,9.81-3.36,13.17-6.12.39-.32-6.32-8.17-14.19-6.69s-12.25,12.24-12.4,16.21c0,0-2.08,2.66-1.28,8.76S142.25,287.39,143.66,285.87Z" style="fill:#263238"></path><path d="M146.09,290.6a3.73,3.73,0,0,0,.78-.32,2.74,2.74,0,0,0,.68-.48,2.41,2.41,0,0,0,.62-.88,2.8,2.8,0,0,0,.22-.81,3.33,3.33,0,0,0,0-1.19l-3.62-3.2s-6.39-2.1-7.57.5S143.08,291.49,146.09,290.6Z" style="fill:#eb9481"></path><path d="M139.22,285.5s0,.09,0,.07c2.15-.56,4.17.32,6,1.45a1.64,1.64,0,0,0-2.24,1.12c0,.06.07.1.11.05a1.85,1.85,0,0,1,2-.7,9.66,9.66,0,0,1,1.76.74c.18.08.39-.19.21-.32l0,0C145.47,285.75,141.64,284,139.22,285.5Z" style="fill:#263238"></path><path d="M145.84,289.86a.82.82,0,0,0,1.16-.07.81.81,0,0,0-.07-1.15.83.83,0,0,0-1.16.06A.82.82,0,0,0,145.84,289.86Z" style="fill:#fff"></path><path d="M143.75,289.88a.58.58,0,0,0,.77-.87.58.58,0,0,0-.77.87Z" style="fill:#fff"></path><path d="M141.37,289.5a15.6,15.6,0,0,1-3.77-3.28c-.32-.54-.74-1.42-.41-2,.05-.09,0-.11-.08,0a2.33,2.33,0,0,0-.11,1.72,4.8,4.8,0,0,0,1.14,1.64,9,9,0,0,0,3.21,2S141.4,289.52,141.37,289.5Z" style="fill:#263238"></path><path d="M158.52,258.22c-.1,0-.17,0-.08,0,.51.41,5,4.72,5.51,5.1a0,0,0,0,0,.07-.06C163.7,262.81,160.46,259.18,158.52,258.22Z" style="fill:#263238"></path><path d="M416.53,442.16c-2.68.82-80.48-1.28-83.33-3.16a1.11,1.11,0,0,1-.3-.47c-.85-2.32.78-12.21.7-24.35,0-.22.18-4,.43-9.44.67-14.11,1.89-39,1.89-39l50.72,1L383.28,406l-.78,9.13s28.75,13.67,31.63,16.07S419.2,441.34,416.53,442.16Z" style="fill:#eb9481"></path><path d="M416.53,442.16c-2.68.82-80.48-1.28-83.33-3.16a1.11,1.11,0,0,1-.3-.47c-.85-2.32.78-12.21.7-24.35,0-.22.18-4,.43-9.44l49.25,1.3-.78,9.13s28.75,13.67,31.63,16.07S419.2,441.34,416.53,442.16Z" style="fill:#fff"></path><path d="M416.53,442.16c-2.67.82-80.48-1.28-83.33-3.17-1.09-.71-1.52-11.07.4-24.8l48.9,1s28.74,13.65,31.64,16.06S419.2,441.33,416.53,442.16Z" style="fill:#FFC727"></path><path d="M415.51,439.1c-12.7-.61-64-1.85-76.62-1.48-.1,0-.1.07,0,.08,12.58.88,63.9,1.7,76.62,1.61C415.78,439.3,415.78,439.11,415.51,439.1Z" style="fill:#263238"></path><path d="M409.33,428.4a10.27,10.27,0,0,0-7.68,2.93,9.91,9.91,0,0,0-3,6.73c0,.07.14.08.16,0a11.81,11.81,0,0,1,10.51-9.5A.08.08,0,0,0,409.33,428.4Z" style="fill:#263238"></path><path d="M387.4,416.55c-5.08-.18-11,1.48-14.28,5.56-.13.16.1.34.25.27a70.05,70.05,0,0,1,14.11-5.2A.32.32,0,0,0,387.4,416.55Z" style="fill:#263238"></path><path d="M391.3,418.18c-5.09-.19-11,1.47-14.29,5.56-.13.16.1.33.25.26a70.67,70.67,0,0,1,14.11-5.2A.32.32,0,0,0,391.3,418.18Z" style="fill:#263238"></path><path d="M395.19,419.8c-5.09-.19-11,1.47-14.29,5.56-.12.16.1.33.26.26a69.94,69.94,0,0,1,14.1-5.19A.32.32,0,0,0,395.19,419.8Z" style="fill:#263238"></path><path d="M399.08,421.42c-5.08-.19-11,1.47-14.28,5.56-.13.16.1.34.25.26a70.41,70.41,0,0,1,14.11-5.19A.32.32,0,0,0,399.08,421.42Z" style="fill:#263238"></path><path d="M342.41,425.62c-5.71-.11-5.9,8.76-.18,8.87S348.13,425.74,342.41,425.62Z" style="fill:#263238"></path><path d="M393.22,403.1c-2.53-2.19-5.82-.18-7.46,2A26.72,26.72,0,0,0,380.83,418a.14.14,0,0,0,.16.15.62.62,0,0,0,.9.43c3.68-2.43,7.92-4.56,10.75-8C394.29,408.52,395.6,405.18,393.22,403.1Zm-6.5,10.67c-1.78,1.24-3.61,2.38-5.34,3.68a77.9,77.9,0,0,1,3-7.47,28.24,28.24,0,0,1,1.93-3.39c1.15-1.66,6.24-5.8,6.62-.25C393.18,409.4,388.85,412.3,386.72,413.77Z" style="fill:#263238"></path><path d="M368.15,419.6c4.41.78,9-.37,13.38-1a.62.62,0,0,0,.4-.92.13.13,0,0,0,0-.21A26.61,26.61,0,0,0,369.79,411c-2.67-.58-6.48,0-7,3.36C362.39,417.48,365.57,419.14,368.15,419.6Zm-3-3c-3.34-4.44,3.22-4.64,5.17-4.14a29.75,29.75,0,0,1,3.68,1.3c2.5,1,4.81,2.39,7.19,3.66-2.16.15-4.3.49-6.45.72C372.16,418.44,367,419.09,365.14,416.63Z" style="fill:#263238"></path><path d="M239.43,335.76c21.41,3.9,92-15.05,95.9-8.75,3.45,5.55,0,46.22,0,46.22h51S394.51,322.76,385,296c-1.55-4.38-6.83-9.62-14.12-15.15-26-19.67-131.68-1.18-131.68-1.18Z" style="fill:#263238"></path><path d="M363.76,356.94v10.2l-27.33-10.71c.16-3.26.3-6.7.37-10.05Z" style="fill:#FFC727"></path><path d="M363.76,339.12v10.19l-26.92-10.55c-.08-4.6-.37-8.46-1-10.59Z" style="fill:#FFC727"></path><path d="M409.4,186.8c-.65,2.73-41.9,68.72-45,70.24a1.15,1.15,0,0,1-.54,0c-2.44-.44-10.14-6.86-20.64-12.94-.19-.11-3.38-2.2-7.92-5.16l-35.9-9.14L326,186.6l35.38,10.56,7.48,5.3s26.35-17.85,29.88-19.13S410,184.09,409.4,186.8Z" style="fill:#eb9481"></path><path d="M409.4,186.8c-.65,2.73-41.9,68.72-45,70.24a1.15,1.15,0,0,1-.54,0c-2.44-.44-10.14-6.86-20.64-12.94-.19-.11-3.38-2.2-7.92-5.16l26.08-41.79,7.48,5.3s26.35-17.85,29.88-19.13S410,184.09,409.4,186.8Z" style="fill:#fff"></path><path d="M409.4,186.8c-.65,2.72-41.89,68.73-45,70.23-1.17.57-10.31-4.3-21.17-12.92l25.63-41.65s26.34-17.85,29.89-19.13S410,184.08,409.4,186.8Z" style="fill:#FFC727"></path><path d="M406.24,186.13c-7,10.65-34,54.24-40.1,65.3-.05.09,0,.12.06,0,7.13-10.4,33.85-54.22,40.22-65.23C406.55,186,406.39,185.9,406.24,186.13Z" style="fill:#263238"></path><path d="M393.89,186a10.23,10.23,0,0,0-1.37,8.1,9.91,9.91,0,0,0,4.28,6c.07,0,.14-.08.08-.13A11.8,11.8,0,0,1,394,186.12.08.08,0,0,0,393.89,186Z" style="fill:#263238"></path><path d="M372.56,198.93c-2.74,4.29-4.32,10.25-2.44,15.14.07.18.34.08.35-.09a70.88,70.88,0,0,1,2.67-14.79A.32.32,0,0,0,372.56,198.93Z" style="fill:#263238"></path><path d="M375.93,196.4c-2.74,4.29-4.32,10.25-2.44,15.13.07.19.34.08.35-.08a71,71,0,0,1,2.67-14.8A.32.32,0,0,0,375.93,196.4Z" style="fill:#263238"></path><path d="M379.3,193.86c-2.74,4.29-4.32,10.26-2.44,15.14.07.19.34.08.35-.09a70.88,70.88,0,0,1,2.67-14.79A.32.32,0,0,0,379.3,193.86Z" style="fill:#263238"></path><path d="M382.68,191.33c-2.74,4.29-4.32,10.25-2.45,15.13.07.19.34.09.35-.08a70.88,70.88,0,0,1,2.67-14.79A.32.32,0,0,0,382.68,191.33Z" style="fill:#263238"></path><path d="M357.57,242.31c-3,4.87,4.56,9.53,7.56,4.65S360.57,237.44,357.57,242.31Z" style="fill:#263238"></path><path d="M363.91,187.1c-3.17,1.07-3.11,4.93-2.06,7.45a26.68,26.68,0,0,0,8.63,10.78.13.13,0,0,0,.21-.06c.37.1.86-.1.83-.56-.22-4.4.09-9.13-1.48-13.33C369.13,188.93,366.91,186.1,363.91,187.1Zm5.91,11c.16,2.16.22,4.32.46,6.47a78.1,78.1,0,0,1-4.9-6.41,27,27,0,0,1-1.94-3.39c-.85-1.82-1.83-8.31,3.14-5.82C369.32,190.33,369.63,195.53,369.82,198.11Z" style="fill:#263238"></path><path d="M365.43,217.08c2.91-3.41,4.25-8,6-12a.61.61,0,0,0-.58-.81.13.13,0,0,0-.18-.13,26.64,26.64,0,0,0-11.8,7.17c-1.85,2-3.24,5.61-.62,7.7S363.73,219.07,365.43,217.08Zm-4.08,1.08c-5.53.63-2.38-5.12-1-6.55a30.05,30.05,0,0,1,3-2.52c2.16-1.63,4.5-2.93,6.8-4.34-1,1.95-1.76,3.95-2.65,5.93C366.47,213,364.39,217.82,361.35,218.16Z" style="fill:#263238"></path><path d="M327.88,187.15,304.19,231s-40.81-11.25-40.65-5.89c.41,14.32,28.18,66.25,19.26,92.23C274.14,342.57,233.07,335,233.07,335l-11-53a28.48,28.48,0,0,1,6.91-.93s-21.25-72.44-7.34-91.65c4.55-6.29,16.53-14.42,28.18-15.52C283,170.78,327.88,187.15,327.88,187.15Z" style="fill:#263238"></path><path d="M279,274.37c1.07,3.13,2.15,6.26,3.11,9.44a91.93,91.93,0,0,1,2.3,9.71,55.19,55.19,0,0,1,.22,20.06,31.57,31.57,0,0,1-3.5,9.58,21.91,21.91,0,0,1-7.28,7.18,38.75,38.75,0,0,1-19.16,5.29,50.36,50.36,0,0,0,9.58-2.33A36,36,0,0,0,273,329a21.14,21.14,0,0,0,6.51-6.84,30.6,30.6,0,0,0,3.17-9,60.57,60.57,0,0,0,.21-19.43C282,287.25,280.44,280.84,279,274.37Z" style="fill:#455a64"></path><path d="M303.34,199.63,292.23,228c-2.94-.7-6.17-1.43-9.37-2.09l10.28-26.24Z" style="fill:#FFC727"></path><path d="M285.51,199.63l-9.76,24.91a43.63,43.63,0,0,0-9.88-.79l9.45-24.12Z" style="fill:#FFC727"></path></g></svg>