<svg xmlns="http://www.w3.org/2000/svg" viewBox="0 0 500 500"><g id="freepik--Floor--inject-1"><path d="M461.79,439.6c0,.14-93.07.26-207.85.26s-207.86-.12-207.86-.26,93.05-.26,207.86-.26S461.79,439.46,461.79,439.6Z" style="fill:#263238"></path><path d="M440.36,439a10.52,10.52,0,0,1-.07-1.14c0-.8-.07-1.94-.12-3.4-.09-3-.22-7.33-.38-12.78l.28.08-7.52,10.4-.28.39-.07-.47c-.94-6.47-2-13.86-3.2-21.91l.46,0c-1.48,5.33-3.07,11.08-4.73,17.07l-.21.74-.27-.72c-2.42-6.33-5-13-7.62-19.91q-1-2.5-1.91-4.95c-.32-.82-.64-1.63-1-2.44l-.48-1.21-.24-.6-.12-.3-.07-.14,0-.06v0h0l.07.07a.24.24,0,0,0,.23,0c.12,0,.21-.23.17-.28l-1.14-1.4.63,1.51s0,0,0,.08c.42.24.43-.08.43,0a.39.39,0,0,0,0-.08h0v.49l0,.57,0,1.15.09,2.29c.07,1.52.14,3,.2,4.52q.19,4.49.39,8.79c.13,2.86.25,5.67.36,8.4.05,1.36.11,2.71.16,4q0,1,.06,2l0,1v1s0,0,0,.07l0,0s0,0-.15.13-.18,0-.21,0a.18.18,0,0,1-.06-.09l0,.06L400,415.59l0,0,0-.09c0-.08.11-.22.17-.2s.19.1.18.12l0,.06,0,.09.05.18.1.35.18.69c.12.46.24.91.35,1.36.22.9.44,1.77.65,2.61l1.15,4.78,1.82,7.64c.48,2.07.86,3.68,1.12,4.8s.38,1.7.36,1.64a12.6,12.6,0,0,1-.46-1.62l-1.21-4.78-1.9-7.61q-.56-2.23-1.2-4.77l-.66-2.61c-.12-.44-.23-.89-.35-1.35l-.19-.69-.1-.34-.05-.17,0-.08v0s.18,0,.15-.07,0,0,.05,0a.14.14,0,0,0,.12,0l0-.12,14.26,16.22.31.35-.41-.23s-.06.05-.06,0-.06,0-.1,0l-.11,0v-.88l0-1c0-.65,0-1.31-.07-2-.05-1.33-.11-2.68-.16-4-.13-2.73-.25-5.53-.38-8.4s-.27-5.8-.41-8.78c-.06-1.5-.13-3-.2-4.53l-.09-2.29-.05-1.15v-1.17a.25.25,0,0,1,0-.1c0,.05,0-.27.44,0a.49.49,0,0,1,.05.11l-.51.11a.3.3,0,0,1,.17-.32.27.27,0,0,1,.25.05.3.3,0,0,1,.08.09h0l0,0,0,.09.07.15.13.3.24.6.48,1.22c.32.81.64,1.62.95,2.44.64,1.64,1.27,3.29,1.92,4.95,2.63,6.89,5.19,13.59,7.6,19.92l-.48,0c1.67-6,3.28-11.73,4.77-17.05l.3-1.08.16,1.11c1.14,8,2.19,15.44,3.11,21.91l-.34-.08,7.58-10.36.27-.36v.45c.1,5.46.17,9.79.23,12.78,0,1.47,0,2.61,0,3.4S440.37,439.05,440.36,439Z" style="fill:#263238"></path></g><g id="freepik--Character--inject-1"><path d="M85.69,108.05h0A10.39,10.39,0,0,0,88,122.7l96.83,69.16L193.15,180l-92.61-73.9A10.4,10.4,0,0,0,85.69,108.05Z" style="fill:#455a64"></path><path d="M92.9,123a2.09,2.09,0,0,1-.77-.18,7.84,7.84,0,0,1-1.89-1,8.68,8.68,0,0,1-1.62-12.71,7.68,7.68,0,0,1,1.58-1.47,2.34,2.34,0,0,1,.7-.37,19.52,19.52,0,0,0-2,2.06,8.66,8.66,0,0,0,1.55,12.19A17.31,17.31,0,0,0,92.9,123Z" style="fill:#fff"></path><path d="M98,126.46c-.09.11-.72-.23-1.41-.76s-1.18-1.06-1.09-1.18.72.23,1.41.77S98.11,126.35,98,126.46Z" style="fill:#fff"></path><path d="M190.84,121.17l.76,3.4,11,51c1.27,5.92,7.38,9.54,13.71,8.13h0c6.39-1.43,10.61-7.45,9.42-13.45-1.25-6.31-2.45-13-2.45-13s7.84-3,7.39-13.91c-.22-5.43-2.22-14-4.09-21a11.4,11.4,0,0,0-14.43-7.94Z" style="fill:#825c49"></path><path d="M225.61,128.87a1.39,1.39,0,0,1-1,1.64,1.33,1.33,0,0,1-1.65-.95,1.39,1.39,0,0,1,1-1.63A1.32,1.32,0,0,1,225.61,128.87Z" style="fill:#263238"></path><path d="M225.6,127.29c-.13.21-1.31-.34-2.77,0s-2.38,1.24-2.58,1.1,0-.42.41-.86a3.8,3.8,0,0,1,2-1.09,3.65,3.65,0,0,1,2.25.25C225.45,126.91,225.67,127.2,225.6,127.29Z" style="fill:#263238"></path><path d="M211,131.82a1.38,1.38,0,0,1-1,1.63,1.33,1.33,0,0,1-1.65-.94,1.4,1.4,0,0,1,1-1.64A1.33,1.33,0,0,1,211,131.82Z" style="fill:#263238"></path><path d="M211.3,130.46c-.13.21-1.32-.35-2.78-.05s-2.38,1.25-2.57,1.1,0-.42.41-.85a3.81,3.81,0,0,1,2-1.1,3.59,3.59,0,0,1,2.25.26C211.15,130.07,211.36,130.36,211.3,130.46Z" style="fill:#263238"></path><path d="M218.78,140.22a9.9,9.9,0,0,1,2.29-.9c.36-.12.7-.26.71-.53a1.83,1.83,0,0,0-.47-1l-1.67-2.62c-2.35-3.74-4.13-6.84-4-6.93s2.18,2.86,4.52,6.59l1.64,2.65a2.25,2.25,0,0,1,.49,1.42,1,1,0,0,1-.51.67,2.68,2.68,0,0,1-.61.22A9.48,9.48,0,0,1,218.78,140.22Z" style="fill:#263238"></path><path d="M223.27,157.31a27.5,27.5,0,0,1-14.94-.93s4.91,6.58,15.3,3.46Z" style="fill:#543728"></path><path d="M214.69,142.1c.23-.06.55,1.52,2.14,2.38s3.23.33,3.29.55-.31.39-1,.55a4.09,4.09,0,0,1-2.74-.38,3.53,3.53,0,0,1-1.69-2C214.48,142.54,214.58,142.11,214.69,142.1Z" style="fill:#263238"></path><path d="M210.52,124.66c-.06.42-1.56.53-3.23,1.08s-3,1.3-3.26,1c-.14-.15,0-.58.51-1.07a5.51,5.51,0,0,1,2.29-1.36,5.66,5.66,0,0,1,2.66-.22C210.17,124.21,210.55,124.46,210.52,124.66Z" style="fill:#263238"></path><path d="M224.21,123.17c-.19.39-1.26.25-2.47.47s-2.19.68-2.5.38c-.14-.15,0-.52.34-.92a3.65,3.65,0,0,1,4-.68C224.09,122.68,224.3,123,224.21,123.17Z" style="fill:#263238"></path><path d="M226.84,112.36a5.55,5.55,0,0,1-4.78,8.15,35.9,35.9,0,0,1-8.85-.81c-5.2-1.23-10.9-1.1-11.88.12s-.1,6.08-4.39,8.56c0,0,2.47,9.09-1.26,9.61-2.55.37-4.65-8.5-5.71-14.12a4.65,4.65,0,0,1,3.62-5.41l5.23-1.11,9.31-4.13,9.49-.86Z" style="fill:#263238"></path><path d="M195.13,134.15c-.17,0-6.54-.86-5.36,5.33s7.15,3.73,7.12,3.55S195.13,134.15,195.13,134.15Z" style="fill:#825c49"></path><path d="M194.56,141s-.1.1-.26.22a1.14,1.14,0,0,1-.81.17,2.74,2.74,0,0,1-1.69-2.16,3.74,3.74,0,0,1,0-1.6,1.27,1.27,0,0,1,.65-1,.56.56,0,0,1,.7.17c.11.16.1.29.13.29s.11-.13,0-.37a.69.69,0,0,0-.32-.34.79.79,0,0,0-.63-.05,1.57,1.57,0,0,0-.94,1.18,3.83,3.83,0,0,0,0,1.79,2.84,2.84,0,0,0,2.09,2.37,1.12,1.12,0,0,0,.95-.35C194.57,141.19,194.58,141.05,194.56,141Z" style="fill:#543728"></path><path d="M212.29,137.5a17.42,17.42,0,0,1-4.88,1.31,18,18,0,0,1-5,.39,41.08,41.08,0,0,1,5-.91A41.29,41.29,0,0,1,212.29,137.5Z" style="fill:#FF725E"></path><path d="M212.91,139.14a18.2,18.2,0,0,1-4.89,1.3,17.49,17.49,0,0,1-5,.39,41.92,41.92,0,0,1,5-.9A37.25,37.25,0,0,1,212.91,139.14Z" style="fill:#455a64"></path><path d="M190.11,126.33c-4.11-12.37,6.27-20.65,11.22-22.5,8.11-3,19.62.27,24.28,7.57,0,0,18.31-3.26,18.08-2.39C242.8,112.36,190.11,126.33,190.11,126.33Z" style="fill:#FF725E"></path><path d="M225.61,111.4l-35.5,14.93s-2.82-7.19,1.42-14A19,19,0,0,1,202,103.59c4.56-1.66,9.44-.8,13,.24A18.45,18.45,0,0,1,225.61,111.4Z" style="opacity:0.30000000000000004"></path><path d="M196.51,123.1a3.21,3.21,0,0,1-.28-.8,13,13,0,0,1-.44-2.27,18.09,18.09,0,0,1-.08-3.44,21.17,21.17,0,0,1,.74-4.14,21.76,21.76,0,0,1,1.62-3.89,18.49,18.49,0,0,1,1.92-2.85,14,14,0,0,1,1.6-1.67c.41-.36.65-.54.67-.51s-.82.88-2,2.41a22.06,22.06,0,0,0-1.79,2.84A23.57,23.57,0,0,0,197,112.6a22.52,22.52,0,0,0-.76,4,21.17,21.17,0,0,0,0,3.36C196.3,121.91,196.61,123.07,196.51,123.1Z" style="fill:#263238"></path><path d="M213.2,116.87c-.09,0-.28-1-.86-2.47a18.42,18.42,0,0,0-8-9.32c-1.4-.8-2.35-1.15-2.32-1.23s.26,0,.7.16a12.08,12.08,0,0,1,1.79.74,16.6,16.6,0,0,1,8.17,9.52,11.62,11.62,0,0,1,.46,1.89C213.22,116.61,213.24,116.86,213.2,116.87Z" style="fill:#263238"></path><polygon points="210.52 113.53 211.31 115.36 218.99 112.36 218.37 110.36 210.52 113.53" style="fill:#fafafa"></polygon><path d="M253.15,205.7S268,222.55,272.32,226c5.35,4.24,16-2.75,13.86-10.73C283.66,206,272.32,193,272.32,193Z" style="fill:#825c49"></path><path d="M165.65,218.28S157,240.06,162,249.81c2.2,4.27,6.34,5.7,10.29,6a20.7,20.7,0,0,0,13.94-4.38L201,240,196,225.27l-14.86,9.79,3.77-10.13Z" style="fill:#825c49"></path><path d="M173.63,247a22.6,22.6,0,0,0,8-12.52,6.43,6.43,0,0,1-.33,2.23,17.46,17.46,0,0,1-5.81,9.06A6.62,6.62,0,0,1,173.63,247Z" style="fill:#543728"></path><path d="M274.7,191.39l-14.59-16.92a24.88,24.88,0,0,0-18.81-8.61l-32.89.51a29.75,29.75,0,0,0-14.51,4l-5.33,3.11a47.42,47.42,0,0,0-19.38,21.61l-8.58,19.23c15.77,13.22,26.32,13.13,31,12h0l20.34,38.51L262,249.16l-8.5-43.11Z" style="fill:#FF725E"></path><path d="M193.74,224.59c-2.65-11,.63-18.86,6.94-20.94s12.65,2.55,15.3,13.58-.62,18.86-7,21S196.4,235.62,193.74,224.59ZM211,218.88c-2-8.11-5.37-11-9-9.81s-5.22,5.76-3.27,13.87,5.37,11,9,9.83S213,227,211,218.88Z" style="fill:#fafafa"></path><path d="M235.17,192.76l1,4.18-3.26,32.82-5.29,1.75,3.19-31.61-10.46,3.46,1.38,5.71-4.61,1.52-2.64-11Z" style="fill:#fafafa"></path><path d="M191.6,226.4l-3.59-12-3.77,12.24A14.58,14.58,0,0,0,191.6,226.4Z" style="opacity:0.30000000000000004"></path><path d="M273.7,192.08a2.78,2.78,0,0,1-.49.4l-1.44,1.05-5.44,3.86-18.51,12.93-.24.17-.13-.27c-1-1.95-2.07-4-3.15-6.07-2.48-4.69-4.87-9.17-6.94-13.28-1-2.06-2-4-2.76-6a21.88,21.88,0,0,1-1.41-5.55,13,13,0,0,1,1.59-8.05,10,10,0,0,1,1.4-1.77,4.41,4.41,0,0,1,.61-.5,12.59,12.59,0,0,0-1.83,2.38,13,13,0,0,0-1.41,7.9,21.83,21.83,0,0,0,1.45,5.44c.75,1.89,1.73,3.84,2.79,5.89,2.09,4.1,4.48,8.56,7,13.26l3.15,6.08-.38-.09,18.61-12.79,5.52-3.73,1.5-1A3.42,3.42,0,0,1,273.7,192.08Z" style="fill:#263238"></path><path d="M199,240.46a10.14,10.14,0,0,1-.89-1.41c-.56-.92-1.32-2.27-2.23-4a136.14,136.14,0,0,1-6.27-13.64c-2.15-5.45-3.86-10.48-5.21-14.06-.67-1.8-1.23-3.24-1.62-4.24a10.76,10.76,0,0,1-.57-1.57,9.53,9.53,0,0,1,.75,1.49c.45,1,1.07,2.4,1.78,4.19,1.45,3.56,3.21,8.56,5.36,14s4.38,10.24,6.11,13.66c.86,1.71,1.57,3.09,2.07,4A11.09,11.09,0,0,1,199,240.46Z" style="fill:#263238"></path><path d="M227.91,166s0,.11-.09.3a3.05,3.05,0,0,1-.46.74,5.38,5.38,0,0,1-2.74,1.65,25.19,25.19,0,0,1-4.68.6c-1.77.13-3.71.21-5.75.23a93.27,93.27,0,0,1-10.44-.49c-1.33-.15-2.4-.3-3.14-.42a4.91,4.91,0,0,1-1.14-.24,4.75,4.75,0,0,1,1.17,0l3.14.25c2.66.19,6.34.38,10.41.34,2,0,4-.09,5.72-.19a27.81,27.81,0,0,0,4.62-.47,5.49,5.49,0,0,0,2.68-1.44A10.75,10.75,0,0,0,227.91,166Z" style="fill:#263238"></path><path d="M253.23,205.76c-.11.1-.84-.56-1.63-1.47s-1.35-1.73-1.24-1.82.84.56,1.63,1.48S253.34,205.67,253.23,205.76Z" style="fill:#263238"></path><path d="M259.29,202.4c-.12.09-.92-.78-1.79-1.94a6.62,6.62,0,0,1-1.36-2.25c.11-.09.91.78,1.78,1.94A7,7,0,0,1,259.29,202.4Z" style="fill:#263238"></path><path d="M265.65,198.09c-.11.09-.95-.76-1.88-1.91a7.29,7.29,0,0,1-1.49-2.24c.11-.09,1,.76,1.89,1.91A6.94,6.94,0,0,1,265.65,198.09Z" style="fill:#263238"></path><path d="M271.5,193.13c-.12.08-.86-.77-1.79-1.8s-1.69-1.86-1.59-2,1,.57,2,1.62S271.62,193.05,271.5,193.13Z" style="fill:#263238"></path><path d="M271.5,187.68a5.6,5.6,0,0,1-1,.76l-2.79,1.9-9.23,6.26c-3.6,2.44-6.89,4.62-9.31,6.14-1.21.76-2.19,1.37-2.88,1.77a5.88,5.88,0,0,1-1.1.58,6.42,6.42,0,0,1,1-.75l2.79-1.91,9.22-6.26c3.61-2.44,6.9-4.61,9.31-6.13,1.21-.77,2.2-1.37,2.89-1.77A5.45,5.45,0,0,1,271.5,187.68Z" style="fill:#263238"></path><path d="M191,221.76a5.88,5.88,0,0,1-1.28.08c-.41,0-.91,0-1.5,0s-1.25,0-2-.14a36.52,36.52,0,0,1-5.11-.86,41.56,41.56,0,0,1-6-2,42.71,42.71,0,0,1-5.62-3,36.59,36.59,0,0,1-4.16-3.09c-.58-.46-1-.93-1.48-1.33s-.77-.77-1.05-1.07a5.64,5.64,0,0,1-.82-1c.07-.07,1.31,1.26,3.58,3.1a39.59,39.59,0,0,0,4.19,3,45.71,45.71,0,0,0,5.56,2.89,47.33,47.33,0,0,0,5.94,2,44.49,44.49,0,0,0,5,1C189.18,221.69,191,221.66,191,221.76Z" style="fill:#263238"></path><g style="opacity:0.30000000000000004"><path d="M235.84,187.06a178.45,178.45,0,0,0,9.39,29.41,103.9,103.9,0,0,0,9.3-5.38l-1-5-5.81,4.06Z"></path></g><path d="M262.87,266.4l54.33,48.45a32.61,32.61,0,0,1,7.53,9.91L363,402.47a5.83,5.83,0,0,1-1.56,7.11l-11.7,9.49a5.83,5.83,0,0,1-8.62-1.43l-43.88-70a5.9,5.9,0,0,0-1.94-1.91L256,322.14a5.84,5.84,0,0,1-2.83-5V270.76A5.84,5.84,0,0,1,262.87,266.4Z" style="fill:#FF725E"></path><path d="M262.87,266.4l54.33,48.45a32.61,32.61,0,0,1,7.53,9.91L363,402.47a5.83,5.83,0,0,1-1.56,7.11l-11.7,9.49a5.83,5.83,0,0,1-8.62-1.43l-43.88-70a5.9,5.9,0,0,0-1.94-1.91L256,322.14a5.84,5.84,0,0,1-2.83-5V270.76A5.84,5.84,0,0,1,262.87,266.4Z" style="opacity:0.30000000000000004"></path><path d="M304.33,338.3a30.48,30.48,0,0,1-3.83,4.09,29.62,29.62,0,0,1-4.19,3.71,61.59,61.59,0,0,1,8-7.8Z" style="fill:#263238"></path><path d="M309.22,341c0,.15-2.55,1-5.55,2.38s-5.29,2.88-5.38,2.75A25.58,25.58,0,0,1,309.22,341Z" style="fill:#263238"></path><path d="M286.87,344.54c-4.93-26.78-11.49-62.22-11.91-63.46-.53-1.59-8.22-20.36-11.5-28.35a4.53,4.53,0,0,0-.75-1.19l-1.9-9-52,14.49,3.15,8.27a4.53,4.53,0,0,0-.08,1.28c.69,7.54,2.3,24.39,3,28.09,1.33,6.68,14.45,17.2,18.36,20.2a4.4,4.4,0,0,1,1.51,2.16L247,355.4a4.37,4.37,0,0,1-1.59,4.86l-53.89,39.42a13.22,13.22,0,0,0,14.19,22.25l60.23-33.19A41.84,41.84,0,0,0,286.87,344.54Z" style="fill:#FF725E"></path><path d="M286.87,344.54c-4.93-26.78-11.49-62.22-11.91-63.46-.53-1.59-8.22-20.36-11.5-28.35a4.53,4.53,0,0,0-.75-1.19l-1.9-9L208.1,257.41l3.84,7.5a7.28,7.28,0,0,0,0,1.62c.69,7.54,2.3,24.39,3,28.09,1.33,6.68,14.45,17.2,18.36,20.2a4.4,4.4,0,0,1,1.51,2.16L247,355.4a4.37,4.37,0,0,1-1.59,4.86l-53.89,39.42a13.22,13.22,0,0,0,14.19,22.25l60.23-33.19A41.84,41.84,0,0,0,286.87,344.54Z" style="opacity:0.30000000000000004"></path><path d="M288,350.22a3.32,3.32,0,0,1-.16-.7l-.36-2c-.32-1.82-.76-4.34-1.29-7.43-1.11-6.27-2.71-14.92-4.56-24.46s-3.55-18.12-4.79-24.42c-.6-3.08-1.09-5.59-1.45-7.4-.15-.83-.28-1.5-.37-2a3.84,3.84,0,0,1-.1-.71,2.93,2.93,0,0,1,.2.68c.12.51.28,1.17.47,2,.39,1.8.94,4.3,1.61,7.37,1.33,6.23,3.1,14.85,4.94,24.39s3.39,18.21,4.41,24.49c.5,3.15.9,5.7,1.13,7.46.11.85.19,1.52.26,2A3.15,3.15,0,0,1,288,350.22Z" style="fill:#263238"></path><polygon points="217.65 254.51 220.62 262.49 228.3 260.11 225.46 252.34 217.65 254.51" style="fill:#263238"></polygon><polygon points="237.39 249 240.36 256.97 248.04 254.6 245.27 247.03 237.39 249" style="fill:#263238"></polygon><path d="M262.83,250.65c0,.14-11.45,3.48-25.67,7.46s-25.77,7.1-25.81,7,11.46-3.47,25.67-7.46S262.79,250.52,262.83,250.65Z" style="fill:#263238"></path><path d="M251.53,259.43a3.84,3.84,0,0,1,.64.9,15.41,15.41,0,0,1,1.3,2.71,17.42,17.42,0,0,1-4.08,18.45,15.16,15.16,0,0,1-2.32,1.91,3.63,3.63,0,0,1-1,.54c-.06-.08,1.3-.89,3-2.71a17.91,17.91,0,0,0,4-18.07A39.61,39.61,0,0,0,251.53,259.43Z" style="fill:#263238"></path><path d="M253.71,361.47c-.11.11-1.39-1.09-3.18-2.27s-3.38-1.92-3.33-2.06a8.6,8.6,0,0,1,3.62,1.63A8.9,8.9,0,0,1,253.71,361.47Z" style="fill:#263238"></path><path d="M254.64,356.07a24.59,24.59,0,0,1-7.13-.22,12.3,12.3,0,0,1,3.58-.15A12,12,0,0,1,254.64,356.07Z" style="fill:#263238"></path><path d="M80.74,168.5a3.31,3.31,0,0,1-.43-.51c-.3-.38-.68-.88-1.15-1.5-.25-.33-.53-.7-.82-1.1s-.57-.87-.89-1.36c-.63-1-1.39-2.08-2.07-3.4l-1.11-2c-.38-.71-.7-1.48-1.08-2.26-.77-1.56-1.41-3.3-2.12-5.11A70.44,70.44,0,0,1,68,139a69.69,69.69,0,0,1-.68-12.65c.13-1.95.21-3.8.49-5.51.12-.86.2-1.69.36-2.48s.3-1.54.45-2.27c.25-1.45.66-2.72,1-3.85.15-.57.29-1.09.44-1.57s.32-.9.46-1.29c.26-.73.48-1.32.64-1.78a3.08,3.08,0,0,1,.26-.61,2.89,2.89,0,0,1-.16.64c-.14.47-.32,1.07-.55,1.81-.13.4-.26.83-.41,1.3s-.26,1-.4,1.57c-.27,1.13-.65,2.41-.88,3.86q-.2,1.08-.42,2.25c-.14.79-.21,1.62-.32,2.47-.26,1.71-.33,3.55-.45,5.48a73.54,73.54,0,0,0,.72,12.55,72.58,72.58,0,0,0,3.07,12.19c.69,1.8,1.3,3.54,2,5.09.37.78.68,1.55,1,2.26l1.07,2c.65,1.31,1.4,2.41,2,3.41.31.5.58,1,.85,1.38l.78,1.12,1.07,1.56A3.84,3.84,0,0,1,80.74,168.5Z" style="fill:#263238"></path><path d="M73.36,168.66a9.11,9.11,0,0,1-1.13-1.29,19.59,19.59,0,0,1-1.23-1.6c-.45-.64-1-1.35-1.51-2.2s-1.11-1.75-1.66-2.78-1.11-2.13-1.68-3.31a51.14,51.14,0,0,1-4.43-16.39c-.1-1.3-.22-2.54-.22-3.71s0-2.25,0-3.23.13-1.88.2-2.67.16-1.45.25-2a10,10,0,0,1,.33-1.68,11.22,11.22,0,0,1-.13,1.71c-.06.55-.13,1.22-.16,2s-.13,1.66-.12,2.65,0,2.06,0,3.21.15,2.38.27,3.67a57.53,57.53,0,0,0,1.55,8.3,60.12,60.12,0,0,0,2.83,7.94c.56,1.17,1.06,2.3,1.63,3.31s1.08,1.95,1.59,2.79,1,1.57,1.44,2.23.82,1.2,1.15,1.64A11.17,11.17,0,0,1,73.36,168.66Z" style="fill:#263238"></path><path d="M360.15,441.16c5.87-3.74,26.92-17.69,29.87-21.54,3.29-4.3-16.89,4.26-16.89,4.26L365.22,413,349,424.68Z" style="fill:#263238"></path><path d="M375.28,425.52a2.76,2.76,0,0,0,.08-1.25,2.79,2.79,0,0,0-.22-1.23c-.09,0-.13.56-.09,1.25S375.19,425.52,375.28,425.52Z" style="fill:#455a64"></path><path d="M373,425.83c.08,0,.25-.43.38-1s.16-1.05.08-1.06-.26.43-.38,1S372.91,425.81,373,425.83Z" style="fill:#455a64"></path><path d="M370.56,424.65c.05.07.57-.21,1.16-.63s1-.81,1-.88-.56.21-1.16.63S370.51,424.58,370.56,424.65Z" style="fill:#455a64"></path><path d="M369.22,423.54a2.53,2.53,0,0,0,1.44-.5c.74-.45,1.18-1,1.12-1.05a7.91,7.91,0,0,0-1.27.79A8.7,8.7,0,0,0,369.22,423.54Z" style="fill:#455a64"></path><path d="M374.69,423.24a5,5,0,0,0,1.31-1,8.74,8.74,0,0,0,1.18-1.31,4.32,4.32,0,0,0,.56-.9.87.87,0,0,0,0-.64.67.67,0,0,0-.58-.39,3,3,0,0,0-2.28,4,1,1,0,0,0,.22.38,4.63,4.63,0,0,1-.2-1.55,2.84,2.84,0,0,1,.6-1.53,2.48,2.48,0,0,1,1.64-1c.32,0,.42.31.28.61a4.35,4.35,0,0,1-.51.85,10.64,10.64,0,0,1-1.1,1.32C375.16,422.83,374.66,423.19,374.69,423.24Z" style="fill:#455a64"></path><path d="M375.08,423.06a1.62,1.62,0,0,0-.5-1,2.79,2.79,0,0,0-1.05-.7,1.64,1.64,0,0,0-1.58.12.65.65,0,0,0,0,.89,1.71,1.71,0,0,0,.65.43,4.59,4.59,0,0,0,1.19.35,2.17,2.17,0,0,0,1.13,0s-.43,0-1.09-.2a5.46,5.46,0,0,1-1.12-.4c-.38-.14-.86-.55-.57-.85a1.44,1.44,0,0,1,1.27-.06,2.54,2.54,0,0,1,1,.59A6.12,6.12,0,0,1,375.08,423.06Z" style="fill:#455a64"></path><path d="M389.67,418.47c.09.12-6.61,4.93-14.94,10.75s-15.16,10.43-15.24,10.32,6.61-4.93,14.94-10.75S389.59,418.35,389.67,418.47Z" style="fill:#f5f5f5"></path><path d="M370,429a20.86,20.86,0,0,1-3.74,2.83,21.73,21.73,0,0,1-4,2.4,20.86,20.86,0,0,1,3.74-2.83A21.07,21.07,0,0,1,370,429Z" style="fill:#f5f5f5"></path><path d="M368.93,427.63a25.54,25.54,0,0,1-3.82,2.69,27.54,27.54,0,0,1-4,2.44,29.88,29.88,0,0,1,7.81-5.13Z" style="fill:#f5f5f5"></path><polygon points="349.75 425.83 345.43 420.38 363.09 407.47 366.11 414.22 349.75 425.83" style="fill:#FF725E"></polygon><path d="M352.47,423.9a12.11,12.11,0,0,1-2.37-2.56,11.33,11.33,0,0,1-2-2.87,11.72,11.72,0,0,1,2.36,2.55A12.05,12.05,0,0,1,352.47,423.9Z" style="fill:#263238"></path><path d="M355.57,421.62a12.11,12.11,0,0,1-2.37-2.56,11.53,11.53,0,0,1-1.95-2.87,11.72,11.72,0,0,1,2.36,2.55A12.05,12.05,0,0,1,355.57,421.62Z" style="fill:#263238"></path><path d="M358.67,419.33a11.9,11.9,0,0,1-2.37-2.55,11.48,11.48,0,0,1-1.95-2.88,12.24,12.24,0,0,1,2.36,2.56A11.75,11.75,0,0,1,358.67,419.33Z" style="fill:#263238"></path><path d="M361.77,417.05a11.72,11.72,0,0,1-2.36-2.55,11.36,11.36,0,0,1-2-2.88,11.93,11.93,0,0,1,2.36,2.56A11.55,11.55,0,0,1,361.77,417.05Z" style="fill:#263238"></path><path d="M364.87,414.77a23.35,23.35,0,0,1-4.32-5.43,23.35,23.35,0,0,1,4.32,5.43Z" style="fill:#263238"></path><path d="M167.76,418.9c3.7,5.9,17.5,27,21.33,30C193.37,452.24,185,432,185,432l10.93-7.83-11.55-16.34Z" style="fill:#263238"></path><path d="M183.3,434.14a2.78,2.78,0,0,0,1.25.09c.68,0,1.23-.13,1.23-.22a2.81,2.81,0,0,0-1.25-.09C183.85,434,183.3,434.05,183.3,434.14Z" style="fill:#455a64"></path><path d="M183,431.85c0,.08.43.25,1,.38s1,.17,1.06.09-.42-.26-1-.39S183,431.77,183,431.85Z" style="fill:#455a64"></path><path d="M184.2,429.43c-.07,0,.21.57.62,1.17s.81,1,.87,1-.2-.57-.62-1.17S184.27,429.38,184.2,429.43Z" style="fill:#455a64"></path><path d="M185.32,428.1a2.49,2.49,0,0,0,.49,1.44c.44.74,1,1.18,1,1.12a8.22,8.22,0,0,0-.78-1.28A8.73,8.73,0,0,0,185.32,428.1Z" style="fill:#455a64"></path><path d="M185.59,433.57a4.52,4.52,0,0,0,.94,1.31,9.14,9.14,0,0,0,1.3,1.19,4.8,4.8,0,0,0,.9.57.87.87,0,0,0,.64,0,.64.64,0,0,0,.39-.58,3,3,0,0,0-4-2.3c-.27.11-.39.2-.38.22a4.56,4.56,0,0,1,1.55-.2,3,3,0,0,1,1.53.61,2.5,2.5,0,0,1,1,1.66c0,.31-.31.41-.61.27a4.53,4.53,0,0,1-.84-.52,10.64,10.64,0,0,1-1.32-1.11C186,434,185.63,433.54,185.59,433.57Z" style="fill:#455a64"></path><path d="M185.76,434a1.57,1.57,0,0,0,1-.49,2.66,2.66,0,0,0,.71-1,1.61,1.61,0,0,0-.11-1.58.64.64,0,0,0-.89,0,1.87,1.87,0,0,0-.44.65,4.64,4.64,0,0,0-.35,1.18,2.41,2.41,0,0,0,0,1.14c.05,0,.06-.43.22-1.09a5.2,5.2,0,0,1,.4-1.11c.15-.38.56-.86.86-.57a1.46,1.46,0,0,1,0,1.26,2.59,2.59,0,0,1-.59,1A5.86,5.86,0,0,1,185.76,434Z" style="fill:#455a64"></path><path d="M190.25,448.58c-.12.08-4.89-6.64-10.64-15s-10.34-15.23-10.22-15.31,4.88,6.64,10.64,15S190.37,448.5,190.25,448.58Z" style="fill:#f5f5f5"></path><path d="M179.82,428.83a21.72,21.72,0,0,1-2.8-3.76,21.29,21.29,0,0,1-2.37-4.05,41.1,41.1,0,0,1,5.17,7.81Z" style="fill:#f5f5f5"></path><path d="M181.23,427.78a27.58,27.58,0,0,1-2.66-3.85,25.73,25.73,0,0,1-2.41-4,30.17,30.17,0,0,1,5.07,7.86Z" style="fill:#f5f5f5"></path><polygon points="183.17 408.6 188.65 404.32 201.43 422.08 194.66 425.04 183.17 408.6" style="fill:#FF725E"></polygon><path d="M185.08,411.34a12,12,0,0,1,2.57-2.35,11.52,11.52,0,0,1,2.89-1.93,23.62,23.62,0,0,1-5.46,4.28Z" style="fill:#263238"></path><path d="M187.34,414.46a11.4,11.4,0,0,1,2.57-2.35,12.1,12.1,0,0,1,2.89-1.94,11.67,11.67,0,0,1-2.57,2.35A12.1,12.1,0,0,1,187.34,414.46Z" style="fill:#263238"></path><path d="M189.6,417.57a23.62,23.62,0,0,1,5.46-4.28,12,12,0,0,1-2.57,2.35A11.52,11.52,0,0,1,189.6,417.57Z" style="fill:#263238"></path><path d="M191.86,420.69a12,12,0,0,1,2.57-2.35,11.52,11.52,0,0,1,2.89-1.93,23.62,23.62,0,0,1-5.46,4.28Z" style="fill:#263238"></path><path d="M194.12,423.81a11.4,11.4,0,0,1,2.57-2.35,12.1,12.1,0,0,1,2.89-1.94,11.4,11.4,0,0,1-2.57,2.35A12.1,12.1,0,0,1,194.12,423.81Z" style="fill:#263238"></path></g><g id="freepik--Plants--inject-1"><path d="M118.58,417.44c-.79-3.16,1.3-6.32,3.63-8.6s5.13-4.32,6.35-7.35c2-4.9-.61-11.27,2.76-15.35,2-2.4,5.51-3.19,7.26-5.75a13.12,13.12,0,0,0,1.6-4.6,46.85,46.85,0,0,1,11.75-21.69,40.57,40.57,0,0,1-4.68,20.95c-1.37,2.56-3,5.07-3.51,7.94-.75,4.67,1.83,9.49.65,14.07-1.34,5.23-7.25,8.71-7.56,14.11-.26,4.56,3.69,8.59,3.37,13.14a12.37,12.37,0,0,1-2.06,5.4c-3.56,5.85-8.77,9.86-16.62,9.68l-9.63.29Z" style="fill:#FF725E"></path><g style="opacity:0.30000000000000004"><path d="M118.58,417.44c-.79-3.16,1.3-6.32,3.63-8.6s5.13-4.32,6.35-7.35c2-4.9-.61-11.27,2.76-15.35,2-2.4,5.51-3.19,7.26-5.75a13.12,13.12,0,0,0,1.6-4.6,46.85,46.85,0,0,1,11.75-21.69,40.57,40.57,0,0,1-4.68,20.95c-1.37,2.56-3,5.07-3.51,7.94-.75,4.67,1.83,9.49.65,14.07-1.34,5.23-7.25,8.71-7.56,14.11-.26,4.56,3.69,8.59,3.37,13.14a12.37,12.37,0,0,1-2.06,5.4c-3.56,5.85-8.77,9.86-16.62,9.68l-9.63.29Z"></path></g><path d="M109.94,439.92a7.64,7.64,0,0,1-2.65-.07,16.79,16.79,0,0,1-3.12-.81,13,13,0,0,1-3.85-2.14,5.41,5.41,0,0,1-1.57-2.12,9.75,9.75,0,0,1-.44-2.88,27.85,27.85,0,0,0-.21-3.11,8.38,8.38,0,0,0-1.16-3.11c-1.12-2-3-3.89-3.59-6.6s-.15-5.54.31-8.43.92-6-.17-9-3.11-5.74-4.14-9.14-.53-7.11-.73-10.75a14.24,14.24,0,0,0-1.22-5.35c-.77-1.71-1.84-3.32-2.67-5.12-1.69-3.63-2-7.74-2.41-11.77q-.33-3-.66-6.15a30.38,30.38,0,0,0-1-6.16,53.65,53.65,0,0,0-2.27-6,19.49,19.49,0,0,1-1.1-3.12,31.26,31.26,0,0,1-.29-3.31,39.13,39.13,0,0,1,.29-6.66c.28-2.22.69-4.42.94-6.64l0-.39,0-.44.39.2a14.84,14.84,0,0,1,5.16,4.4A23.57,23.57,0,0,1,87,331.12c1.58,4.14,2.13,8.47,2.92,12.61s1.79,8.21,3.89,11.66c1,1.72,2.31,3.29,3.42,5a13.66,13.66,0,0,1,2.35,5.5c.55,4.07-1.71,7.64-1.27,11.24a12.53,12.53,0,0,0,1.73,5c.87,1.54,1.88,3,2.85,4.41a28,28,0,0,1,2.56,4.45,14.09,14.09,0,0,1,1.15,4.84c.22,3.24-.26,6.32,0,9.22a21.35,21.35,0,0,0,2.33,7.93c1.15,2.37,2.44,4.52,3.51,6.6a32.57,32.57,0,0,1,1.44,3.08,14.67,14.67,0,0,1,.83,3,19.47,19.47,0,0,1,0,5.49,13.75,13.75,0,0,1-2.8,7,5.92,5.92,0,0,1-.78.84,3.76,3.76,0,0,1-.63.53c-.36.27-.56.39-.56.39a12.27,12.27,0,0,0,1.88-1.83,14.08,14.08,0,0,0,2.65-6.95,19.4,19.4,0,0,0-.09-5.41,14.83,14.83,0,0,0-.84-3,31.87,31.87,0,0,0-1.45-3c-1.08-2.06-2.38-4.2-3.55-6.59a21.61,21.61,0,0,1-2.41-8.06c-.24-3,.23-6.06,0-9.23a13.71,13.71,0,0,0-1.13-4.67,27.86,27.86,0,0,0-2.53-4.36c-1-1.43-2-2.87-2.89-4.44a13.22,13.22,0,0,1-1.81-5.21c-.44-3.84,1.81-7.43,1.25-11.22a13.14,13.14,0,0,0-2.28-5.26c-1.09-1.64-2.36-3.22-3.44-5-2.16-3.55-3.2-7.7-4-11.85s-1.35-8.46-2.91-12.52a22.79,22.79,0,0,0-3.07-5.73,14.33,14.33,0,0,0-4.93-4.22l.44-.24,0,.39c-.26,2.25-.67,4.45-.94,6.65a37.91,37.91,0,0,0-.3,6.55c.06,1.08.12,2.2.28,3.22a20.24,20.24,0,0,0,1.06,3,53.11,53.11,0,0,1,2.29,6,30.23,30.23,0,0,1,1.05,6.26c.21,2.07.43,4.12.64,6.16.44,4,.72,8.09,2.34,11.59.81,1.75,1.88,3.37,2.67,5.13a15,15,0,0,1,1.26,5.55c.18,3.71-.32,7.34.67,10.64s3.06,6,4.1,9.13.63,6.39.16,9.26-1,5.72-.36,8.28,2.36,4.47,3.5,6.52a8.84,8.84,0,0,1,1.18,3.23,26.63,26.63,0,0,1,.18,3.15,10,10,0,0,0,.4,2.8,5.17,5.17,0,0,0,1.48,2,13.14,13.14,0,0,0,3.76,2.15,16.71,16.71,0,0,0,3.07.85,11.83,11.83,0,0,0,2,.2Z" style="fill:#263238"></path><path d="M80.18,326.38a1.31,1.31,0,0,1,.09.3l.21.86c.19.76.41,1.91.76,3.34s1.24,3,2,5a70.25,70.25,0,0,1,2.25,6.83c.72,2.57,1.35,5.43,2,8.48a35.45,35.45,0,0,0,3,9.42c.78,1.57,1.66,3.15,2.36,4.89a22.71,22.71,0,0,1,1.35,5.53,111.52,111.52,0,0,0,2,11.65c1.88,7.9,3.68,15.42,5.31,22.27s3.19,13,4.46,18.16,2.24,9.31,3,12.25l.78,3.34c.07.36.13.64.18.88a.94.94,0,0,1,0,.3,1.65,1.65,0,0,1-.1-.29c-.07-.23-.15-.51-.25-.86-.21-.8-.51-1.91-.88-3.31-.76-2.93-1.83-7.09-3.14-12.21s-2.87-11.31-4.59-18.12-3.46-14.38-5.37-22.28a110.18,110.18,0,0,1-2-11.7,22.48,22.48,0,0,0-1.3-5.39c-.67-1.69-1.54-3.27-2.32-4.86a36.17,36.17,0,0,1-3-9.56c-.64-3.06-1.24-5.91-1.93-8.47S83.62,338,82.89,336s-1.54-3.62-1.88-5.1-.5-2.6-.65-3.37l-.15-.88A1.18,1.18,0,0,1,80.18,326.38Z" style="fill:#263238"></path><path d="M108.25,439.94c-6.27-3.77-8-15.12-5.35-21.93s7.29-13,8-20.3c.57-5.59-1.23-11.34.11-16.8,1.8-7.37,9-13.05,9-20.63,0-4.26-2.42-8.28-2.2-12.53.27-5.21,4.29-9.32,6.8-13.9,3.83-7,4.13-15.33,5.47-23.2s4.4-16.31,11.41-20.14c1,6.7,2.73,11.29,2.12,20.36-.22,3.25-4,9.46-4.59,16.6-.33,4.26-.57,8.53-.85,12.8s-.58,8.38-2.09,12.26c-1.15,3-3,5.67-3.87,8.74-1.62,5.78.43,12.05-.89,17.91-1.12,5-4.58,9.21-5.31,14.24-1,7.07,3.51,14.45,1.13,21.18-1.18,3.34-4,6-4.75,9.47-.62,2.68,0,5.52-.54,8.22-.91,4.33-9.21,7.66-13.63,7.37" style="fill:#FF725E"></path><path d="M139.75,297.14a1.81,1.81,0,0,1,0,.38c0,.28-.09.64-.15,1.1-.15,1-.32,2.38-.66,4.22s-1.32,3.91-2.1,6.41-1.63,5.38-2.35,8.6-1.36,6.78-2,10.62-1.36,8-3.29,12c-.89,2-1.89,4-2.65,6.15a27.84,27.84,0,0,0-1.36,6.78A135.41,135.41,0,0,1,123.22,368c-2,9.91-3.87,19.35-5.58,27.94s-3.44,16.26-4.81,22.75-2.51,11.66-3.29,15.32l-.93,4.16c-.11.45-.19.81-.26,1.08a2.63,2.63,0,0,1-.1.37s0-.13,0-.38.12-.64.2-1.09c.19-1,.46-2.4.81-4.19l3.1-15.36c1.33-6.5,2.92-14.22,4.68-22.78s3.57-18,5.53-27.93a139.07,139.07,0,0,0,1.94-14.58,28,28,0,0,1,1.41-6.92c.77-2.18,1.79-4.2,2.68-6.18,1.92-3.93,2.61-8,3.31-11.87s1.32-7.4,2.08-10.63,1.6-6.11,2.45-8.6,1.81-4.57,2.2-6.37.58-3.23.77-4.18c.08-.45.15-.81.2-1.09A1.4,1.4,0,0,1,139.75,297.14Z" style="fill:#263238"></path></g><g id="freepik--Ball--inject-1"><circle cx="349.36" cy="139.24" r="10.23" transform="translate(-26.7 143.33) rotate(-22.35)" style="fill:#e0e0e0"></circle><path d="M359.25,142a16.71,16.71,0,0,0-2.38-.82,7.5,7.5,0,0,0-9,5.79,17.93,17.93,0,0,0-.26,2.5,1.61,1.61,0,0,1-.17-.68,6.36,6.36,0,0,1,.07-1.9,7.54,7.54,0,0,1,9.49-6.07,6.8,6.8,0,0,1,1.75.74C359.09,141.79,359.27,142,359.25,142Z" style="fill:#FF725E"></path><path d="M353,129.64s.2.17.27.62a2.41,2.41,0,0,1-.51,1.75,8.13,8.13,0,0,1-2.05,1.71,16.74,16.74,0,0,1-8.63,2.67,7,7,0,0,1-2.42-.23c0-.08.93,0,2.4-.14a19.37,19.37,0,0,0,5.57-1.3,19,19,0,0,0,2.82-1.4,8.72,8.72,0,0,0,2-1.54,2.37,2.37,0,0,0,.6-1.51C353,129.87,352.92,129.66,353,129.64Z" style="fill:#FF725E"></path><path d="M352.21,141.32c-.14,0-.7-1.59-1.73-3.44a16.93,16.93,0,0,1-1.74-3.47,13.41,13.41,0,0,1,2.2,3.22A8.13,8.13,0,0,1,352.21,141.32Z" style="fill:#FF725E"></path><path d="M407.42,155.37a4.15,4.15,0,0,1-.8,0h-2.26l-8.34-.13-27.51-.63-15.14-.41a47.25,47.25,0,0,1-6.61-.52,17.86,17.86,0,0,1-5.53-1.75,11.34,11.34,0,0,1-5.52-6.13,8.21,8.21,0,0,1-.41-2.25,4.83,4.83,0,0,1,.05-.79,10.17,10.17,0,0,0,.55,3,11.37,11.37,0,0,0,5.5,5.88,18.3,18.3,0,0,0,5.43,1.65,49.62,49.62,0,0,0,6.55.46l15.15.37,27.5.78,8.33.3,2.27.11A4.61,4.61,0,0,1,407.42,155.37Z" style="fill:#263238"></path><path d="M423.25,159.89a1.56,1.56,0,0,1-.51,0l-1.45,0-5.32-.24c-4.49-.21-10.7-.49-17.56-.72s-13.07-.37-17.56-.46l-5.33-.12-1.45-.06a1.51,1.51,0,0,1-.5-.05,1.51,1.51,0,0,1,.5-.05l1.45,0c1.26,0,3.08,0,5.33,0,4.5,0,10.72.08,17.58.31s13.07.57,17.56.87c2.25.15,4.06.29,5.31.41l1.45.14A2.89,2.89,0,0,1,423.25,159.89Z" style="fill:#263238"></path></g></svg>