<svg xmlns="http://www.w3.org/2000/svg" viewBox="0 0 500 500"><g id="freepik--background-complete--inject-5"><path d="M466.89,283.23c0,.14-97.37.26-217.45.26S32,283.37,32,283.23s97.35-.26,217.47-.26S466.89,283.08,466.89,283.23Z" style="fill:#ebebeb"></path><path d="M466.89,308.83c0,.14-97.37.26-217.45.26S32,309,32,308.83s97.35-.26,217.47-.26S466.89,308.69,466.89,308.83Z" style="fill:#ebebeb"></path><path d="M466.89,334.43c0,.14-97.37.26-217.45.26S32,334.57,32,334.43s97.35-.26,217.47-.26S466.89,334.29,466.89,334.43Z" style="fill:#ebebeb"></path><path d="M465.41,360c0,.14-97.37.26-217.45.26S30.49,360.17,30.49,360s97.35-.26,217.47-.26S465.41,359.89,465.41,360Z" style="fill:#ebebeb"></path><path d="M466.89,380.38c0,.14-97.37.26-217.45.26S32,380.52,32,380.38s97.35-.26,217.47-.26S466.89,380.23,466.89,380.38Z" style="fill:#ebebeb"></path><path d="M32.16,380.38c-.14,0-.26-27.61-.26-61.66s.12-61.66.26-61.66.26,27.6.26,61.66S32.31,380.38,32.16,380.38Z" style="fill:#ebebeb"></path><path d="M466.89,380.38c-.15,0-.26-27.61-.26-61.66s.11-61.66.26-61.66.26,27.6.26,61.66S467,380.38,466.89,380.38Z" style="fill:#ebebeb"></path><path d="M447.79,380.38c-.14,0-.26-27.61-.26-61.66s.12-61.66.26-61.66.26,27.6.26,61.66S447.94,380.38,447.79,380.38Z" style="fill:#ebebeb"></path><path d="M428.7,380.38c-.15,0-.26-27.61-.26-61.66s.11-61.66.26-61.66.26,27.6.26,61.66S428.84,380.38,428.7,380.38Z" style="fill:#ebebeb"></path><path d="M409.6,380.38c-.14,0-.26-27.61-.26-61.66s.12-61.66.26-61.66.26,27.6.26,61.66S409.74,380.38,409.6,380.38Z" style="fill:#ebebeb"></path><path d="M390.51,380.38c-.15,0-.26-27.61-.26-61.66s.11-61.66.26-61.66.26,27.6.26,61.66S390.65,380.38,390.51,380.38Z" style="fill:#ebebeb"></path><path d="M371.41,380.38c-.14,0-.26-27.61-.26-61.66s.12-61.66.26-61.66.26,27.6.26,61.66S371.55,380.38,371.41,380.38Z" style="fill:#ebebeb"></path><path d="M352.31,380.38c-.14,0-.26-27.61-.26-61.66s.12-61.66.26-61.66.26,27.6.26,61.66S352.46,380.38,352.31,380.38Z" style="fill:#ebebeb"></path><path d="M333.22,380.38c-.15,0-.26-27.61-.26-61.66s.11-61.66.26-61.66.26,27.6.26,61.66S333.36,380.38,333.22,380.38Z" style="fill:#ebebeb"></path><path d="M314.12,380.38c-.14,0-.26-27.61-.26-61.66s.12-61.66.26-61.66.26,27.6.26,61.66S314.27,380.38,314.12,380.38Z" style="fill:#ebebeb"></path><path d="M295,380.38c-.15,0-.26-27.61-.26-61.66s.11-61.66.26-61.66.26,27.6.26,61.66S295.17,380.38,295,380.38Z" style="fill:#ebebeb"></path><path d="M275.93,380.38c-.14,0-.26-27.61-.26-61.66s.12-61.66.26-61.66.26,27.6.26,61.66S276.08,380.38,275.93,380.38Z" style="fill:#ebebeb"></path><path d="M256.84,380.38c-.15,0-.26-27.61-.26-61.66s.11-61.66.26-61.66.26,27.6.26,61.66S257,380.38,256.84,380.38Z" style="fill:#ebebeb"></path><path d="M237.74,380.38c-.14,0-.26-27.61-.26-61.66s.12-61.66.26-61.66.26,27.6.26,61.66S237.88,380.38,237.74,380.38Z" style="fill:#ebebeb"></path><path d="M218.64,380.38c-.14,0-.26-27.61-.26-61.66s.12-61.66.26-61.66.26,27.6.26,61.66S218.79,380.38,218.64,380.38Z" style="fill:#ebebeb"></path><path d="M199.55,380.38c-.14,0-.26-27.61-.26-61.66s.12-61.66.26-61.66.26,27.6.26,61.66S199.69,380.38,199.55,380.38Z" style="fill:#ebebeb"></path><path d="M180.45,380.38c-.14,0-.26-27.61-.26-61.66s.12-61.66.26-61.66.26,27.6.26,61.66S180.6,380.38,180.45,380.38Z" style="fill:#ebebeb"></path><path d="M161.36,380.38c-.15,0-.26-27.61-.26-61.66s.11-61.66.26-61.66.26,27.6.26,61.66S161.5,380.38,161.36,380.38Z" style="fill:#ebebeb"></path><path d="M142.26,380.38c-.14,0-.26-27.61-.26-61.66s.12-61.66.26-61.66.26,27.6.26,61.66S142.41,380.38,142.26,380.38Z" style="fill:#ebebeb"></path><path d="M123.17,380.38c-.15,0-.26-27.61-.26-61.66s.11-61.66.26-61.66.26,27.6.26,61.66S123.31,380.38,123.17,380.38Z" style="fill:#ebebeb"></path><path d="M104.07,380.38c-.14,0-.26-27.61-.26-61.66s.12-61.66.26-61.66.26,27.6.26,61.66S104.21,380.38,104.07,380.38Z" style="fill:#ebebeb"></path><path d="M85,380.38c-.15,0-.27-27.61-.27-61.66s.12-61.66.27-61.66.26,27.6.26,61.66S85.12,380.38,85,380.38Z" style="fill:#ebebeb"></path><path d="M65.88,380.38c-.14,0-.26-27.61-.26-61.66s.12-61.66.26-61.66.26,27.6.26,61.66S66,380.38,65.88,380.38Z" style="fill:#ebebeb"></path><path d="M46.78,380.38c-.14,0-.26-27.61-.26-61.66s.12-61.66.26-61.66.26,27.6.26,61.66S46.93,380.38,46.78,380.38Z" style="fill:#ebebeb"></path><rect x="32.16" y="254.13" width="437.13" height="11.39" style="fill:#e0e0e0"></rect><path d="M353.54,124h80.91s-7.15-13-28-11.12c-19.89,1.81-20.9-6.41-31-7.42S356.91,112.23,353.54,124Z" style="fill:#ebebeb"></path><path d="M59.62,130.94h60s-5.31-9.65-20.74-8.25c-14.74,1.34-15.49-4.75-23-5.5S62.12,122.19,59.62,130.94Z" style="fill:#ebebeb"></path><path d="M247.51,82.9H362.38s-10.15-18.49-39.73-15.8c-28.24,2.57-29.67-9.09-44-10.53S252.29,66.15,247.51,82.9Z" style="fill:#e0e0e0"></path></g><g id="freepik--Floor--inject-5"><path d="M473.37,432.47c0,.14-100.44.26-224.31.26s-224.33-.12-224.33-.26,100.42-.26,224.33-.26S473.37,432.33,473.37,432.47Z" style="fill:#263238"></path></g><g id="freepik--Character--inject-5"><path d="M456.43,192c0,.14-17.79.26-39.72.26S377,192.17,377,192s17.79-.26,39.73-.26S456.43,191.88,456.43,192Z" style="fill:#263238"></path><path d="M431.27,196.79c0,.15-17.78.26-39.72.26s-39.72-.11-39.72-.26,17.78-.26,39.72-.26S431.27,196.65,431.27,196.79Z" style="fill:#263238"></path><path d="M288.24,398.6c0,.15-19,.26-42.42.26s-42.43-.11-42.43-.26,19-.26,42.43-.26S288.24,398.46,288.24,398.6Z" style="fill:#263238"></path><path d="M247.68,405c0,.15-14.29.27-31.91.27s-31.91-.12-31.91-.27,14.29-.26,31.91-.26S247.68,404.89,247.68,405Z" style="fill:#263238"></path><path d="M269.15,301.25l-75.34,30.93a29,29,0,0,0-13.08,10.71L137.26,408.1l18.44,10.82s43.61-52.72,48.3-58.74c0,0,69.61-11.58,73.08-12.59,17-4.94,19.12-19.64,19.12-19.64Z" style="fill:#b78876"></path><polygon points="134.82 411.2 149.51 389.74 169.47 402.25 152.35 422.96 134.82 411.2" style="fill:#ebebeb"></polygon><path d="M166.72,405.24s-.07,0-.21-.09l-.59-.31c-.51-.26-1.25-.67-2.15-1.17-1.8-1-4.26-2.47-6.91-4.17s-5-3.34-6.68-4.56c-.83-.6-1.5-1.11-2-1.46l-.52-.41-.18-.15s.08,0,.2.12l.55.38,2,1.4c1.69,1.19,4,2.8,6.7,4.5s5.09,3.17,6.88,4.22l2.11,1.23.57.34Z" style="fill:#FF725E"></path><path d="M165.92,406.49a.59.59,0,0,1-.21-.09l-.59-.31c-.52-.26-1.25-.66-2.15-1.17-1.8-1-4.26-2.47-6.92-4.17s-5-3.34-6.67-4.56c-.83-.6-1.5-1.1-2-1.46l-.53-.41-.17-.15s.07,0,.2.12l.55.38,2,1.4c1.69,1.19,4,2.8,6.7,4.5s5.09,3.18,6.87,4.22l2.12,1.23c.2.13.39.24.57.34Z" style="fill:#FF725E"></path><path d="M134.58,410.67c6.26,4.48,12.07,8.6,18.79,11.08L149,428.11l-1.16-.71c-5.16-3.19-26-16.58-28.6-19.9-2.92-3.71,15.38,3.17,15.38,3.17" style="fill:#FF725E"></path><path d="M149.51,427.87a1.48,1.48,0,0,1-.34-.18l-.92-.56L144.88,425c-2.83-1.83-6.71-4.41-10.93-7.34s-8-5.69-10.68-7.71l-3.17-2.41-.86-.68a2.07,2.07,0,0,1-.28-.24l.32.2.88.63,3.22,2.35c2.73,2,6.5,4.7,10.72,7.64s8.08,5.53,10.88,7.4L148.3,427c.34.22.63.42.9.61Z" style="fill:#263238"></path><path d="M146.35,418.44c0,.06-2.2.23-4.92.39s-4.92.24-4.92.18,2.19-.23,4.91-.39S146.34,418.39,146.35,418.44Z" style="fill:#fafafa"></path><path d="M143.13,416.36c0,.05-2.07.28-4.63.49s-4.65.35-4.65.3,2.06-.28,4.63-.5S143.12,416.3,143.13,416.36Z" style="fill:#fafafa"></path><path d="M128.23,411.2a6.91,6.91,0,0,0,.42-1.31,6.14,6.14,0,0,0-.07-1.38,2.23,2.23,0,0,1-.35,2.69Z" style="fill:#263238"></path><path d="M126.23,410.35c-.06,0,.31-.5.46-1.17a4.5,4.5,0,0,0,0-1.23,1.45,1.45,0,0,1,.25,1.27A1.78,1.78,0,0,1,126.23,410.35Z" style="fill:#263238"></path><path d="M130.23,412a6.65,6.65,0,0,0,.44-1.4,7.05,7.05,0,0,0,0-1.47,2.51,2.51,0,0,1-.39,2.87Z" style="fill:#263238"></path><path d="M131.57,409.62a1.39,1.39,0,0,1-.27-.31,8,8,0,0,1-.64-.95,3.92,3.92,0,0,1-.52-1.61,2.74,2.74,0,0,1,.12-1,1.17,1.17,0,0,1,.79-.8.75.75,0,0,1,.81.51,2.5,2.5,0,0,1,.18.86,7.4,7.4,0,0,1-.06,1.52,6.39,6.39,0,0,1-.52,1.76l0,.08v-.08a1.23,1.23,0,0,1,0-.18s0,0,.07.17h-.05a9.55,9.55,0,0,0,.41-1.77,8,8,0,0,0,0-1.48,2.42,2.42,0,0,0-.16-.8.54.54,0,0,0-.59-.38c-.64.19-.8,1-.76,1.59a4.09,4.09,0,0,0,.46,1.56C131.24,409.13,131.6,409.6,131.57,409.62Z" style="fill:#263238"></path><path d="M131.54,409.42a.86.86,0,0,1,.14-.31,5.92,5.92,0,0,1,.55-.75,5.43,5.43,0,0,1,1-.92A3.58,3.58,0,0,1,134,407a.67.67,0,0,1,.89.22.82.82,0,0,1-.18.9,5,5,0,0,1-.63.54,5.15,5.15,0,0,1-1.22.64,4.84,4.84,0,0,1-.89.24,1.1,1.1,0,0,1-.34,0s.47-.1,1.18-.4a5.42,5.42,0,0,0,1.16-.66c.36-.29.95-.69.73-1.19-.1-.21-.39-.21-.63-.12a4.09,4.09,0,0,0-.68.38,6.55,6.55,0,0,0-1,.87C131.81,409,131.57,409.43,131.54,409.42Z" style="fill:#263238"></path><path d="M149.35,420.06a10.12,10.12,0,0,1-1.42.25l-3.41.48c-1.34.19-2.55.34-3.43.43l-1.05.09h-.38a9.43,9.43,0,0,1,1.41-.24l3.42-.49c1.33-.18,2.55-.33,3.43-.42l1-.09A1.68,1.68,0,0,1,149.35,420.06Z" style="fill:#fafafa"></path><path d="M260,293.88l41.89,77.9a35.71,35.71,0,0,0,21.84,17.47L412.29,414l6.46-20.08-83.69-30.54-30.72-72.81Z" style="fill:#b78876"></path><polygon points="414.87 414.87 389.78 408.04 395.06 385.07 420.23 394.45 414.87 414.87" style="fill:#ebebeb"></polygon><path d="M398.78,386.68a.86.86,0,0,1,0,.24q0,.3-.09.66c-.09.57-.23,1.39-.41,2.41-.37,2-.93,4.83-1.67,7.9s-1.51,5.82-2.12,7.8c-.3,1-.55,1.78-.73,2.33l-.22.63a.94.94,0,0,1-.09.22.76.76,0,0,1,.05-.23c.06-.2.12-.41.18-.64.19-.67.42-1.46.67-2.35.57-2,1.32-4.74,2.06-7.81s1.32-5.85,1.73-7.88c.18-.91.33-1.71.47-2.4.05-.23.09-.45.13-.65Z" style="fill:#FF725E"></path><path d="M400.23,387a2,2,0,0,1,0,.23c0,.21-.06.43-.1.66-.08.58-.22,1.4-.4,2.42-.37,2-.94,4.83-1.68,7.9s-1.51,5.82-2.11,7.79c-.3,1-.55,1.79-.74,2.34q-.12.33-.21.63c-.06.14-.09.22-.09.21a.73.73,0,0,1,.05-.22l.17-.65c.2-.67.42-1.45.68-2.35.56-2,1.31-4.74,2.05-7.8s1.33-5.85,1.73-7.88c.18-.92.34-1.71.47-2.4.05-.23.1-.45.14-.65A.79.79,0,0,1,400.23,387Z" style="fill:#FF725E"></path><path d="M414.45,415.28c2.18-7.39,4.17-14.23,4.3-21.39l7.46,2.08-.29,1.33c-1.32,5.91-7.14,30-9.42,33.55-2.55,4-2.05-15.57-2.05-15.57" style="fill:#FF725E"></path><path d="M425.81,395.53a2.5,2.5,0,0,1-.07.37c-.07.32-.14.67-.23,1.06l-.91,3.89c-.8,3.27-2,7.78-3.35,12.73s-2.76,9.4-3.78,12.61c-.49,1.5-.91,2.77-1.24,3.8-.13.38-.25.71-.36,1a1.26,1.26,0,0,1-.14.35,1.6,1.6,0,0,1,.09-.36c.09-.32.19-.66.31-1,.31-1,.7-2.32,1.16-3.82,1-3.22,2.31-7.68,3.7-12.63s2.58-9.45,3.42-12.71c.4-1.52.73-2.81,1-3.86.11-.39.2-.73.28-1.05A1.93,1.93,0,0,1,425.81,395.53Z" style="fill:#263238"></path><path d="M417.93,401.61c.06,0,.94,2,2,4.51s1.84,4.57,1.79,4.59-.94-2-2-4.51S417.88,401.63,417.93,401.61Z" style="fill:#fafafa"></path><path d="M417,405.33c.05,0,.94,1.87,2,4.22s1.85,4.27,1.8,4.29a45.72,45.72,0,0,1-2-4.21C417.77,407.28,417,405.36,417,405.33Z" style="fill:#fafafa"></path><path d="M417,421.1a3.77,3.77,0,0,0-2.65.55,1.81,1.81,0,0,1,1.23-.72A1.84,1.84,0,0,1,417,421.1Z" style="fill:#263238"></path><path d="M416.88,423.27a9.64,9.64,0,0,0-1.25,0,5.06,5.06,0,0,0-1.15.44,1.5,1.5,0,0,1,1.12-.65A1.73,1.73,0,0,1,416.88,423.27Z" style="fill:#263238"></path><path d="M417.15,418.94a6.84,6.84,0,0,0-1.47,0,6.92,6.92,0,0,0-1.37.53,2.1,2.1,0,0,1,1.33-.74A2.07,2.07,0,0,1,417.15,418.94Z" style="fill:#263238"></path><path d="M414.44,418.46a1.53,1.53,0,0,1-.2.36,8.39,8.39,0,0,1-.69.91,3.77,3.77,0,0,1-1.35,1,2.52,2.52,0,0,1-1,.22,1.2,1.2,0,0,1-1-.49.76.76,0,0,1,.21-.93,2.54,2.54,0,0,1,.77-.45,7.16,7.16,0,0,1,1.45-.44,5.82,5.82,0,0,1,1.84-.08h.08l-.07,0c-.11.06-.16.08-.17.07l.14-.11v.05a8.82,8.82,0,0,0-1.8.19,7.93,7.93,0,0,0-1.41.46,2.55,2.55,0,0,0-.69.42.55.55,0,0,0-.18.68c.39.54,1.23.42,1.76.19a4,4,0,0,0,1.32-.94C414.08,418.93,414.41,418.43,414.44,418.46Z" style="fill:#263238"></path><path d="M414.26,418.56a1.24,1.24,0,0,1-.34,0,4.54,4.54,0,0,1-.88-.27,5.66,5.66,0,0,1-1.21-.66,3.77,3.77,0,0,1-.63-.53.71.71,0,0,1-.09-.92A.83.83,0,0,1,412,416a3.7,3.7,0,0,1,.71.42,4.89,4.89,0,0,1,1,.94,5.2,5.2,0,0,1,.52.76,1,1,0,0,1,.13.31s-.25-.41-.76-1a5.67,5.67,0,0,0-1-.87c-.39-.25-1-.68-1.36-.31-.17.17-.08.44.09.64a4.61,4.61,0,0,0,.58.51,6.65,6.65,0,0,0,1.16.68C413.79,418.43,414.27,418.52,414.26,418.56Z" style="fill:#263238"></path><path d="M418.48,398.24a9.11,9.11,0,0,1,.69,1.26l1.58,3.07c.62,1.2,1.15,2.29,1.53,3.1l.42.95a1.64,1.64,0,0,1,.14.37,9.71,9.71,0,0,1-.7-1.26c-.52-1-1-2-1.57-3.07s-1.16-2.3-1.53-3.1c-.14-.31-.28-.63-.43-.95A1.89,1.89,0,0,1,418.48,398.24Z" style="fill:#fafafa"></path><path d="M330,370.06a14.27,14.27,0,0,1,5.39-6.75c.1.11-1.34,1.42-2.81,3.28S330.08,370.13,330,370.06Z" style="fill:#aa6550"></path><path d="M327.18,367.8a12,12,0,0,1,7.94-4.05c0,.16-1.94.6-4.13,1.72S327.28,367.92,327.18,367.8Z" style="fill:#aa6550"></path><path d="M145.41,335.62l5.57-6.69S129.77,315,121.24,307.6,105,284.05,102.75,279.91s-7.15-31.28-33.5-37.56c-22.33-5.33-31.84,7.89-31.84,7.89-14.33,21-.36,37,9.65,45.2s22.89,9.43,33.46,9.8c12.47.44,29.4,4.5,34.74,7.06C119.19,314.18,145.41,335.62,145.41,335.62ZM95.59,292.27s-14,20.65-44.6,1.23C39.15,286,35.52,276.86,34.7,269.71a23.18,23.18,0,0,1,16.36-24.64c7.82-2.41,18.19-2.72,32.71,8.14C83.77,253.21,106,272.37,95.59,292.27Zm-3.13,12c-1-.3-4.47-.75.69-4.86,6-4.8,6.42-8.66,7.16-11a5.31,5.31,0,0,1,.94-1.87,1.12,1.12,0,0,1,1.64-.09c3.37,3.22,13.49,19.37,12.15,21.3C113.56,309.89,94,304.71,92.46,304.25Z" style="fill:#FF725E"></path><path d="M80.34,266.52c-.89,1.13-1.84,2.33-2.83,3.6l3.4,2.78,2.84-3.59Z" style="fill:none"></path><path d="M66.89,261.4l3.4,2.79,2.84-3.59-3.41-2.8Z" style="fill:none"></path><path d="M70.43,264.31l3.4,2.78,2.84-3.59-3.41-2.79Z" style="fill:none"></path><path d="M76.8,263.61,74,267.21l.65.53L77.37,270l2.84-3.59-2.58-2.11Z" style="fill:none"></path><path d="M74.56,273.88l3.38,2.78,2.84-3.59-3.4-2.79Z" style="fill:none"></path><path d="M74.43,274l-2.83,3.6L75,280.41l2.83-3.59Z" style="fill:none"></path><path d="M80.92,273.18c-.9,1.16-1.85,2.36-2.83,3.6l3.39,2.79,2.84-3.6Z" style="fill:none"></path><path d="M81.36,279.72q-1.67-1.35-3.39-2.78l-2.84,3.6,3.38,2.78Z" style="fill:none"></path><path d="M50.77,266.75l2.85-3.61-3.38-2.78L47.39,264Z" style="fill:none"></path><path d="M57.15,266.05l-3.37-2.78-2.85,3.61,3.38,2.77Z" style="fill:none"></path><path d="M50.35,260.22,53.74,263l2.84-3.61L53.2,256.6C52.28,257.78,51.33,259,50.35,260.22Z" style="fill:none"></path><path d="M56.85,259.36l3.39,2.78c1-1.24,1.93-2.45,2.85-3.6l-3.4-2.79Z" style="fill:none"></path><path d="M60.4,262.26,63.78,265l2.84-3.59-3.39-2.79Z" style="fill:none"></path><path d="M67.32,267.94l2.84-3.59-3.39-2.79c-.91,1.16-1.86,2.36-2.83,3.61Z" style="fill:none"></path><path d="M57.28,265.89l2.84-3.6-3.38-2.78c-.93,1.17-1.87,2.38-2.85,3.61Z" style="fill:none"></path><path d="M61,268.93l3.38,2.77,2.84-3.59-3.39-2.78C62.89,266.49,62,267.7,61,268.93Z" style="fill:none"></path><path d="M60.85,269.09,58,272.69l3.38,2.77,2.83-3.6Z" style="fill:none"></path><path d="M55.05,276.44l3.39,2.77,2.49-3.16c.11-.14.22-.29.34-.43l-3.38-2.77-.25.32Z" style="fill:none"></path><path d="M70.89,271.14l-2.83,3.59.26.22,3.12,2.56,2.83-3.59c-1-.8-1.94-1.6-2.93-2.41Z" style="fill:none"></path><path d="M74.49,267.9l-.65-.52L71,271l.45.38,2.93,2.4,2.84-3.59Z" style="fill:none"></path><path d="M94.49,277.88l2.86-3.61-3.44-2.81-2.83,3.61Z" style="fill:none"></path><path d="M51.35,273.41,54,270l.17-.22L50.82,267l-.09.11L48,270.64Z" style="fill:none"></path><path d="M68.47,281.27l2.84-3.6-3.12-2.56-.26-.21-2.83,3.59.08.07C66.29,279.47,67.39,280.37,68.47,281.27Z" style="fill:none"></path><path d="M67.48,268.07l3.38,2.78,2.84-3.59-3.39-2.79Z" style="fill:none"></path><path d="M74.85,280.58l-3.38-2.78-2.83,3.6L72,284.17Z" style="fill:none"></path><path d="M57.86,272.55,60.69,269l-3.38-2.78-2.83,3.6Z" style="fill:none"></path><path d="M67.77,274.77,64.39,272l-2.83,3.6,3.38,2.77Z" style="fill:none"></path><path d="M67.9,274.6,70.73,271l-3.38-2.78-2.83,3.6Z" style="fill:none"></path><path d="M57.47,273l.26-.33-3.38-2.77-.17.21-2.67,3.39,3.38,2.77Z" style="fill:none"></path><path d="M57.44,266l3.38,2.78,2.84-3.6-3.39-2.78Z" style="fill:none"></path><path d="M55.35,283.14,52,280.36,49.13,284l3.39,2.79Z" style="fill:none"></path><path d="M40.78,265l-2.86,3.63,3.39,2.77c.92-1.18,1.88-2.39,2.85-3.62Z" style="fill:none"></path><path d="M66.82,298.48l3.39,2.79c.91-1.17,1.86-2.37,2.84-3.62l-3.39-2.77Q68.21,296.74,66.82,298.48Z" style="fill:none"></path><path d="M41.35,271.63l-2.85,3.62L41.9,278l2.84-3.61Z" style="fill:none"></path><path d="M91,275.22l-2.84,3.62,3.4,2.79L94.38,278Q92.72,276.67,91,275.22Z" style="fill:none"></path><path d="M72.47,291l-3.38-2.77-2.84,3.6,3.38,2.78Q71,292.83,72.47,291Z" style="fill:none"></path><path d="M86.85,265.4l2.85-3.58L86.23,259c-.77,1-1.72,2.21-2.81,3.61Z" style="fill:none"></path><path d="M68.93,288.09l-3.38-2.77-2.84,3.59,3.38,2.78Z" style="fill:none"></path><path d="M51.94,280.07l2.83-3.6-3.38-2.77-2.84,3.6Z" style="fill:none"></path><path d="M76,293.89c-1.1-.89-2.23-1.82-3.38-2.77q-1.45,1.85-2.84,3.61l3.38,2.78Z" style="fill:none"></path><path d="M66.12,292c-1,1.23-1.92,2.44-2.84,3.59l3.39,2.79,2.84-3.61Z" style="fill:none"></path><path d="M62.43,289,59,286.17l-2.83,3.59,3.39,2.79C60.51,291.39,61.45,290.18,62.43,289Z" style="fill:none"></path><path d="M65.49,248.13l-3.42-2.82c-.88,1.11-1.83,2.33-2.85,3.63l3.41,2.79Z" style="fill:none"></path><path d="M91,275l2.85-3.6-3.43-2.82-2.83,3.61Z" style="fill:none"></path><path d="M82.78,293c1.18,1,2.3,1.89,3.38,2.78L89,292.18l-3.39-2.77Z" style="fill:none"></path><path d="M53.24,293.51l3.4,2.8,2.83-3.6-3.39-2.79Z" style="fill:none"></path><path d="M90.39,268.31l2.85-3.59-3.47-2.84c-.77,1-1.72,2.21-2.81,3.61Z" style="fill:none"></path><path d="M73.32,297.63l3.38,2.78q1.39-1.76,2.85-3.62L76.17,294Z" style="fill:none"></path><path d="M81.81,294.27l-2,2.52c1.18,1,2.3,1.89,3.38,2.78l1.89-2.41,1-1.22-3.39-2.77Z" style="fill:none"></path><path d="M62,282.41,59.17,286l3.38,2.77,2.84-3.59C64.27,284.28,63.15,283.35,62,282.41Z" style="fill:none"></path><path d="M66.18,254.63,69,251l-3.43-2.81-2.84,3.62Z" style="fill:none"></path><path d="M49,284.11l-2.84,3.6,3.4,2.79,2.83-3.6Z" style="fill:none"></path><path d="M85.74,289.27c1.18,1,2.3,1.89,3.38,2.78,1-1.24,1.94-2.45,2.86-3.63l-3.39-2.77Z" style="fill:none"></path><path d="M49.51,253.56l-2.72-2.24L43.92,255l2.73,2.22Z" style="fill:none"></path><path d="M55.6,289.53,52.54,287l-2.84,3.59L52.58,293l.52.42,2.83-3.6Z" style="fill:none"></path><path d="M37.91,262.6,35,266.24l2.73,2.23,2.85-3.63Z" style="fill:none"></path><path d="M43.59,261.08l-2.72-2.24L38,262.48l2.73,2.23Q42.13,262.92,43.59,261.08Z" style="fill:none"></path><path d="M76.23,256.69l2.85-3.59-3.46-2.84-2.82,3.61Z" style="fill:none"></path><path d="M75.54,250.2l-3.46-2.84L69.26,251l3.43,2.81Z" style="fill:none"></path><path d="M46.55,257.32l-2.72-2.24L41,258.66l-.06.07L43.69,261Z" style="fill:none"></path><path d="M62.58,289.07q-1.45,1.86-2.84,3.6l3.39,2.78,2.84-3.6Z" style="fill:none"></path><path d="M85.05,282.75l-2.84,3.61,3.38,2.78,2.85-3.62Z" style="fill:none"></path><path d="M88,279l-2.84,3.61,3.38,2.78,2.86-3.61Z" style="fill:none"></path><path d="M82.09,286.51l-2.84,3.61,3.37,2.78,2.86-3.62Z" style="fill:none"></path><path d="M81.64,294.14l.87-1.1-3.38-2.77-.78,1-2.06,2.62,3.37,2.77Z" style="fill:none"></path><path d="M79,290.14l-3.38-2.77-.69.87L72.75,291l3.38,2.78c.67-.87,1.36-1.74,2.06-2.62Z" style="fill:none"></path><path d="M45.46,281.21l-2.84,3.59,3.4,2.8L48.85,284Z" style="fill:none"></path><path d="M59,249l-3.4-2.81c-.9,1.16-1.86,2.37-2.86,3.64l3.4,2.78Z" style="fill:none"></path><path d="M52.48,249.81l-2.73-2.25-2.87,3.65c.87.7,1.78,1.45,2.73,2.23Z" style="fill:none"></path><path d="M79.77,259.59,82.62,256l-3.46-2.84-2.82,3.61Z" style="fill:none"></path><path d="M87.42,272.32l-2.83,3.61L88,278.72l2.85-3.6Z" style="fill:none"></path><path d="M81.05,273l3.4,2.79,2.84-3.59-3.41-2.8Z" style="fill:none"></path><path d="M86.83,265.65,84,269.26l3.41,2.8,2.85-3.59Z" style="fill:none"></path><path d="M84.46,276.09l-2.83,3.6L85,282.47l2.84-3.6Z" style="fill:none"></path><path d="M80.47,266.35l3.41,2.8,2.84-3.59-3.43-2.81Z" style="fill:none"></path><path d="M41.92,278.3l-2.85,3.6,3.41,2.79,2.83-3.6Q43.58,279.65,41.92,278.3Z" style="fill:none"></path><path d="M81.51,279.85l-2.84,3.6,3.38,2.78,2.85-3.61Z" style="fill:none"></path><path d="M73.39,260.54l3.41,2.8,2.84-3.59-3.43-2.81C75.35,258,74.41,259.25,73.39,260.54Z" style="fill:none"></path><path d="M79.75,259.84l-2.82,3.61.84.69,2.57,2.11q1.53-2,2.84-3.59l-2.4-2Z" style="fill:none"></path><path d="M81.93,286.38l-3.38-2.77-2.84,3.6L79.09,290Z" style="fill:none"></path><path d="M59,285.88c.91-1.17,1.86-2.37,2.83-3.6l-3.38-2.77-2.84,3.59,3.25,2.67Z" style="fill:none"></path><path d="M66.31,254.74l3.41,2.79,2.84-3.59-3.42-2.81C68.27,252.23,67.32,253.44,66.31,254.74Z" style="fill:none"></path><path d="M58.31,279.38l-3.38-2.78-2.84,3.6L55.48,283C56.4,281.81,57.34,280.6,58.31,279.38Z" style="fill:none"></path><path d="M67.83,282.08l.52-.65L65,278.72l-.07-.06-.43.54c-.81,1-1.61,2.05-2.41,3.05L65.51,285C66.27,284.06,67.05,283.08,67.83,282.08Z" style="fill:none"></path><path d="M64.81,278.52l-3.38-2.77-.34.43c-.85,1.07-1.68,2.13-2.49,3.17L62,282.12l2.41-3.05Z" style="fill:none"></path><path d="M75,280.71l-2.84,3.59,3.38,2.78,2.84-3.6Z" style="fill:none"></path><path d="M74.74,288.11l.69-.88-3.38-2.77-.6.77c-.76.95-1.5,1.9-2.24,2.83l3.38,2.78Z" style="fill:none"></path><path d="M71.28,285.1l.61-.77-3.38-2.77-.52.65-2.32,3,3.38,2.77Z" style="fill:none"></path><path d="M69.85,257.64l3.41,2.8c1-1.3,2-2.49,2.84-3.59L72.67,254Z" style="fill:none"></path><path d="M80.91,260.53l2.4,2,2.85-3.59-2.23-1.82-1.23-1-2.82,3.61Z" style="fill:none"></path><path d="M45.44,280.93c.91-1.16,1.86-2.36,2.83-3.61l-3.38-2.78L42,278.15Z" style="fill:none"></path><path d="M44.85,274.27l2.84-3.61-3.37-2.78c-1,1.23-1.93,2.44-2.85,3.61Z" style="fill:none"></path><path d="M51.23,273.56l-3.38-2.77L45,274.39l3.38,2.78C49.32,276,50.26,274.8,51.23,273.56Z" style="fill:none"></path><path d="M51.81,280.23l-3.38-2.78-2.85,3.6,3.4,2.78Z" style="fill:none"></path><path d="M56.06,289.64l2.83-3.6-.14-.11-3.25-2.66-2.83,3.59,3.06,2.51Z" style="fill:none"></path><path d="M88.7,285.51l3.39,2.78L95,284.67l-3.4-2.78Z" style="fill:none"></path><path d="M66.75,261.29l2.84-3.6-3.4-2.8-2.84,3.61Z" style="fill:none"></path><path d="M91.66,281.75c1.18,1,2.31,1.9,3.39,2.79l2.87-3.62-3.42-2.8Z" style="fill:none"></path><path d="M56.7,259.24l2.85-3.61-3.39-2.79-2.85,3.62Z" style="fill:none"></path><path d="M56.27,252.7l3.4,2.78,2.85-3.6-3.41-2.8Z" style="fill:none"></path><path d="M49.77,253.56l3.39,2.78L56,252.72l-3.39-2.79C51.71,251.1,50.75,252.31,49.77,253.56Z" style="fill:none"></path><path d="M50.57,267l.09-.11-3.38-2.78h0l-2.85,3.61,3.38,2.77Z" style="fill:none"></path><path d="M59.81,255.6l3.4,2.78,2.84-3.6-3.4-2.8Z" style="fill:none"></path><path d="M50.19,260.09q1.47-1.84,2.86-3.62c-1.18-1-2.31-1.9-3.38-2.78l-2.86,3.63Z" style="fill:none"></path><path d="M44.27,267.61,47.11,264h0l-3.37-2.78-2.87,3.63Z" style="fill:none"></path><path d="M47.23,263.85l2.85-3.62-3.37-2.78-2.86,3.63Z" style="fill:none"></path><path d="M98.35,280.38l-.33.41q-1.62-1.35-3.41-2.81l2.84-3.62h0c0-.11-.07-.21-.09-.31L94,271.3l1.61-2.05-.06-.12c-.5.64-1.06,1.33-1.66,2.09l-3.43-2.82,2.81-3.6-.34-.57-3.06-2.51.71-.92,0-.07c-.23.28-.48.59-.74.93l-3.47-2.85,1.29-1.66,0,0-1.32,1.65-2.23-1.83-1.24-1,1.62-2.09,0,0-1.65,2.07L79.28,253l1.49-1.92,0,0-1.51,1.89-3.47-2.84,1.11-1.42-.06,0L75.67,250,72.2,247.2l.48-.61-.09,0-.47.59-1.83-1.51-.52-.18L72,247.29l-2.85,3.59-3.43-2.81,2.44-3.13-.11,0L65.6,248l-3.43-2.81,1-1.27-.16,0c-.3.39-.62.79-.95,1.2l-1.68-1.37h-.27L62,245.22c-.88,1.1-1.83,2.31-2.86,3.61L55.68,246l1.76-2.24-.22,0-1.67,2.11-1.9-1.54-.18,0c.63.52,1.3,1.06,2,1.63l-2.87,3.62-2.74-2.23c.71-.91,1.39-1.78,2.06-2.62l-.3.08-1.91,2.42-1.43-1.17-.13.06,1.47,1.22-2.87,3.64-2.87-2.34a.39.39,0,0,0-.1.08l2.88,2.37c-.93,1.19-1.89,2.4-2.88,3.65L40.32,252l-.07.09L43.67,255l-2.82,3.58-.05.06-3.27-2.66-.06.1,3.24,2.68-2.87,3.64-2.27-1.85a.65.65,0,0,0,0,.13l2.22,1.84-2.87,3.64-.29-.23v.18l.2.17-.21.27c0,.11,0,.22,0,.33l.37-.47,2.73,2.24c-.91,1.14-1.78,2.26-2.63,3.33,0,.08,0,.17.05.25l2.73-3.46,3.38,2.79-2.85,3.62-3.2-2.62c0,.09.05.18.07.27l3,2.49-1.6,2.05a1.42,1.42,0,0,0,.08.18l1.67-2.11,3.39,2.79-2.84,3.61,0,0,.34.53,3.12,2.56-.61.78.11.13.63-.8,3.41,2.8L45,288.94l.12.12.94-1.19,3.4,2.79-.9,1.16.13.1.91-1.15,2.88,2.37.52.43-.61.78.15.09c.2-.25.39-.51.6-.76l3.4,2.79-.11.15.16.08.09-.12.51.42.81.4-1.19-1,2.84-3.59L63,295.61l-2.35,3,.17.07,2.33-2.95q1.73,1.42,3.39,2.78l-1.35,1.73.19.05,1.31-1.65L70,301.37l.37.06,0,0,2.85-3.61,3.38,2.77-1,1.27h.25l.9-1.14,1.24,1,.24,0c-.45-.37-.91-.74-1.37-1.13l2.85-3.61,3.39,2.76-1,1.31.33-.08c.28-.37.57-.73.86-1.1l.74.61.18-.06-.82-.67c.62-.8,1.26-1.6,1.9-2.42l1-1.21,2.62,2.14.13-.08-2.65-2.19q1.46-1.86,2.86-3.63c1.29,1.05,2.5,2.05,3.64,3l.11-.09-3.65-3q1.47-1.87,2.86-3.63l3.76,3.07.06-.13-3.72-3.07,2.85-3.63,2.57,2.09c0-.05,0-.1,0-.16l-2.51-2.06L98.05,281l.32.27v-.22l-.22-.18.21-.26A2.18,2.18,0,0,1,98.35,280.38Zm-1-6.11-2.86,3.61-3.41-2.81,2.83-3.61ZM50.82,267l3.37,2.78L54,270l-2.67,3.38L48,270.64l2.76-3.5Zm7.2,5.66,2.83-3.6,3.38,2.77-2.83,3.6Zm3.25,2.93c-.12.14-.23.29-.34.43l-2.49,3.16-3.39-2.77,2.59-3.27.25-.32Zm10.2-4.27L71,271l2.82-3.59.65.52,2.75,2.26-2.84,3.59Zm2.8,2.57-2.83,3.59L68.32,275l-.26-.22,2.83-3.59.45.37C72.33,272.32,73.31,273.12,74.27,273.92Zm-3.41-3.07-3.38-2.78,2.83-3.6,3.39,2.79Zm-.13.16L67.9,274.6l-3.38-2.77,2.83-3.6Zm-6.37.69L61,268.93c1-1.23,1.91-2.44,2.83-3.6l3.39,2.78Zm-3.54-2.9L57.44,266l2.83-3.6,3.39,2.78Zm-.13.16-2.83,3.59-3.38-2.77,2.83-3.6Zm3.7,3,3.38,2.78-2.83,3.59-3.38-2.77Zm3.54,2.91.26.21,3.12,2.56-2.84,3.6c-1.08-.9-2.18-1.8-3.29-2.71l-.08-.07Zm3.54,2.9,3.38,2.78L72,284.17l-3.37-2.77Zm.13-.16,2.83-3.6,3.38,2.78L75,280.41Zm6.37-.7q1.73,1.43,3.39,2.78l-2.85,3.6-3.38-2.78Zm.12-.16c1-1.24,1.93-2.44,2.83-3.6l3.4,2.79-2.84,3.6Zm-.15-.12-3.38-2.78,2.82-3.6,3.4,2.79Zm-.43-6.54c1-1.27,1.94-2.47,2.83-3.6l3.41,2.79-2.84,3.59Zm-.14-.12-2.75-2.26-.65-.53,2.83-3.6.83.69,2.58,2.11Zm-3.54-2.91-3.4-2.78,2.83-3.6,3.41,2.79Zm-3.54-2.9-3.4-2.79,2.83-3.6,3.41,2.8Zm-.13.16-2.84,3.59-3.38-2.77c1-1.25,1.92-2.45,2.83-3.61Zm-6.38.69-3.38-2.78,2.83-3.6,3.39,2.79Zm-3.54-2.9-3.39-2.78,2.84-3.61,3.4,2.79C62.17,259.69,61.22,260.9,60.24,262.14Zm-.12.15-2.84,3.6-3.39-2.77c1-1.23,1.92-2.44,2.85-3.61Zm-6.38.7-3.39-2.77c1-1.24,1.93-2.44,2.85-3.62l3.38,2.78Zm-.12.15-2.85,3.61L47.39,264l2.85-3.62Zm.16.13,3.37,2.78-2.84,3.6-3.38-2.77Zm.4,6.88.17-.21,3.38,2.77-.26.33-2.58,3.27-3.38-2.77Zm.59,6.32-2.83,3.6-3.39-2.77,2.84-3.6Zm.16.13,3.38,2.78c-1,1.22-1.91,2.43-2.83,3.59l-3.39-2.77Zm3.54,2.91,3.38,2.77c-1,1.23-1.92,2.43-2.83,3.6l-.14-.11-3.25-2.67Zm.13-.16c.81-1,1.64-2.1,2.49-3.17l.34-.43,3.38,2.77-.43.55L62,282.12Zm5.94-.15.43-.54.07.06,3.31,2.71-.52.65c-.78,1-1.56,2-2.32,2.94l-3.38-2.77C62.93,281.25,63.73,280.23,64.54,279.2Zm3.45,3,.52-.65,3.38,2.77-.61.77-2.23,2.83-3.38-2.77Zm3.46,3,.6-.77,3.38,2.77-.69.88-2.15,2.73-3.38-2.78C70,287.13,70.69,286.18,71.45,285.23Zm.72-.93L75,280.71l3.38,2.77-2.84,3.6Zm6.38-.69,3.38,2.77L79.09,290l-3.38-2.78Zm.12-.16,2.84-3.6,3.39,2.77-2.85,3.61Zm3-3.76,2.83-3.6,3.4,2.78L85,282.47Zm3-3.76,2.83-3.61,3.41,2.8L88,278.72Zm-.14-.12L81.05,273l2.83-3.6,3.41,2.8ZM84,269.26l2.83-3.61,3.43,2.82-2.85,3.59Zm-.12-.11-3.41-2.8,2.82-3.6,3.43,2.81Zm-3.54-2.9-2.57-2.11-.84-.69,2.82-3.61,1,.85,2.4,2Q81.88,264.29,80.34,266.25Zm-3.54-2.91-3.41-2.8c1-1.29,2-2.5,2.82-3.6l3.43,2.81Zm-3.54-2.9-3.41-2.8L72.67,254l3.43,2.82C75.23,258,74.28,259.14,73.26,260.44Zm-3.54-2.91-3.41-2.79c1-1.3,2-2.51,2.83-3.61l3.42,2.81Zm-.13.16-2.84,3.6-3.4-2.79,2.84-3.61Zm-6.38.69-3.4-2.78L62.65,252l3.4,2.8Zm-3.54-2.9-3.4-2.78,2.84-3.62,3.41,2.8Zm-.12.15-2.85,3.61-3.39-2.78,2.85-3.62Zm-6.39.71-3.39-2.78c1-1.25,1.94-2.46,2.85-3.63L56,252.72Zm-.11.13q-1.39,1.77-2.86,3.62l-3.38-2.77,2.86-3.63C50.74,254.57,51.87,255.51,53.05,256.47Zm-3,3.76-2.85,3.62-3.38-2.77,2.86-3.63Zm-3,3.76h0l-2.84,3.61-3.39-2.77,2.87-3.63Zm.16.14h0l3.38,2.78-.09.11-2.76,3.5-3.38-2.77Zm.41,6.53-2.84,3.61-3.38-2.78c.92-1.17,1.87-2.38,2.85-3.61Zm.16.13,3.38,2.77c-1,1.24-1.91,2.44-2.84,3.61L45,274.39Zm.42,6.53c-1,1.25-1.92,2.45-2.83,3.61L42,278.15l2.85-3.61Zm.16.13,3.38,2.78L49,283.83l-3.4-2.78ZM52,280.36l3.39,2.78-2.83,3.6L49.13,284Zm3.54,2.91,3.25,2.66.14.11-2.83,3.6-.33-.27-3.06-2.51Zm3.54,2.9L62.43,289c-1,1.23-1.92,2.44-2.83,3.6l-3.39-2.79Zm.13-.16,2.84-3.6c1.14.94,2.26,1.87,3.38,2.78l-2.84,3.59Zm6.38-.69,3.38,2.77-2.84,3.6-3.38-2.78Zm3.54,2.9L72.47,291q-1.45,1.85-2.84,3.61l-3.38-2.78Zm3.54,2.9c1.15.95,2.28,1.88,3.38,2.77l-2.84,3.62-3.38-2.78Q71.17,293,72.63,291.12Zm.12-.15,2.15-2.73.69-.87L79,290.14l-.78,1c-.7.88-1.39,1.75-2.06,2.62Zm5.6.29.78-1L82.51,293l-.87,1.1-2,2.51-3.37-2.77Zm.9-1.14,2.84-3.61,3.39,2.77-2.86,3.62Zm3-3.76,2.84-3.61,3.39,2.77-2.85,3.62Zm3-3.76L88,279l3.4,2.78-2.86,3.61Zm3-3.76L91,275.22q1.76,1.45,3.42,2.8l-2.86,3.61Zm5.68-7.47L91,275l-3.41-2.81,2.83-3.61Zm-.56-6.65-2.85,3.59L87,265.49c1.09-1.4,2-2.61,2.81-3.61Zm-3.54-2.9-2.85,3.58-3.43-2.81c1.09-1.4,2-2.61,2.81-3.61Zm-5.77-4.73,2.23,1.82-2.85,3.59-2.4-2-1-.85,2.82-3.61ZM82.62,256l-2.85,3.58-3.43-2.81,2.82-3.61Zm-3.54-2.91-2.85,3.59-3.43-2.82,2.82-3.61Zm-7-5.74,3.46,2.84-2.85,3.58L69.26,251ZM69,251l-2.85,3.6-3.42-2.79,2.84-3.62Zm-7-5.72,3.42,2.82-2.86,3.6-3.41-2.79C60.24,247.64,61.19,246.42,62.07,245.31Zm-6.49.85L59,249l-2.86,3.61-3.4-2.78C53.72,248.53,54.68,247.32,55.58,246.16Zm-5.83,1.4,2.73,2.25-2.87,3.63c-1-.78-1.86-1.53-2.73-2.23Zm-3,3.76,2.72,2.24-2.86,3.63L43.92,255ZM41,258.66l2.81-3.58,2.72,2.24L43.69,261,41,258.73Zm-.15.18,2.72,2.24q-1.47,1.85-2.86,3.63L38,262.48ZM35,266.24l2.87-3.64,2.71,2.24-2.85,3.63Zm2.88,2.36L40.78,265l3.38,2.78c-1,1.23-1.93,2.44-2.85,3.62Zm.58,6.65,2.85-3.62,3.39,2.79L41.9,278Zm.57,6.65,2.85-3.6q1.66,1.35,3.39,2.79l-2.83,3.6Zm3.55,2.9,2.84-3.59L48.85,284,46,287.6Zm3.54,2.91,2.84-3.6,3.39,2.79-2.83,3.6ZM52.58,293l-2.88-2.37L52.54,287l3.06,2.51.33.27-2.83,3.6Zm4.06,3.33-3.4-2.8,2.84-3.59,3.39,2.79Zm3.1-3.64q1.38-1.74,2.84-3.6L66,291.85l-2.84,3.6Zm3.54,2.9c.92-1.15,1.87-2.36,2.84-3.59l3.39,2.77-2.84,3.61Zm6.93,5.7-3.39-2.79q1.38-1.74,2.84-3.6l3.39,2.77C72.07,298.9,71.12,300.1,70.21,301.27Zm6.49-.86-3.38-2.78,2.85-3.6,3.38,2.76Q78.1,298.65,76.7,300.41Zm8.39-3.25-1.89,2.41c-1.08-.89-2.2-1.82-3.38-2.78l2-2.52.86-1.1,3.39,2.77Zm1.07-1.35c-1.08-.89-2.2-1.82-3.38-2.78l2.85-3.62L89,292.18Zm3-3.76c-1.08-.89-2.2-1.82-3.38-2.78l2.85-3.62L92,288.42C91.06,289.6,90.1,290.81,89.12,292.05Zm3-3.76-3.39-2.78,2.85-3.62,3.4,2.78Zm3-3.75c-1.08-.89-2.21-1.83-3.39-2.79l2.84-3.63,3.42,2.8Z" style="fill:#263238"></path><polygon points="131.52 324.43 136.33 318.98 150.98 328.93 145.41 335.62 131.52 324.43" style="fill:#f5f5f5"></polygon><path d="M221.34,159a12.67,12.67,0,0,1,13-16.06c3.09.18,6.29,1.47,9.18.36a10.45,10.45,0,0,0,4.06-3.33,19.56,19.56,0,0,1,3.68-3.81,5.08,5.08,0,0,1,5-.65c1.58.81,2.3,3.17,1.08,4.45,3.14-1.53,7.36-1,9.53,1.77s1.38,7.49-1.81,8.9c3.47-.75,7.14,1.94,8,5.39a9.48,9.48,0,0,1-3.63,9.4A14.28,14.28,0,0,1,259.32,168a29.51,29.51,0,0,1-10.1-3.2c-3.19-1.56-6.25-3.38-9.49-4.84a14.4,14.4,0,0,0-6.79-1.6c-2.34.17-4.73,1.54-5.47,3.77" style="fill:#263238"></path><path d="M204.46,205.35c-2.37.16-4.32-1.91-5.32-4.06s-1.47-4.57-2.86-6.49c-1-1.37-2.4-2.44-3.09-4s-.53-3.6-1.11-5.32c-.8-2.41-3-4.1-3.94-6.47a6.41,6.41,0,1,1,12.24-3.7" style="fill:#263238"></path><path d="M227.43,166.43l1.14,3.31,17.3,49.54c2,5.75-1.33,12.06-7.51,14.16h0c-6.23,2.13-13-.83-15.13-6.6-2.23-6.07-4.69-12.41-4.69-12.41s-8.29,1.55-13.63-8.06c-2.65-4.78-5.43-13.19-7.48-20.14a11.47,11.47,0,0,1,8.22-14.38Z" style="fill:#b78876"></path><path d="M201.63,191.26a1.4,1.4,0,0,0,1.74.86,1.33,1.33,0,0,0,.92-1.67,1.4,1.4,0,0,0-1.74-.87A1.35,1.35,0,0,0,201.63,191.26Z" style="fill:#263238"></path><path d="M200.81,189.9c.23.11.95-1,2.36-1.5s2.7-.18,2.79-.41-.23-.35-.8-.51a3.74,3.74,0,0,0-2.31.12,3.58,3.58,0,0,0-1.8,1.4C200.74,189.49,200.7,189.85,200.81,189.9Z" style="fill:#263238"></path><path d="M215.72,186.12a1.39,1.39,0,0,0,1.74.86,1.32,1.32,0,0,0,.92-1.67,1.4,1.4,0,0,0-1.74-.86A1.33,1.33,0,0,0,215.72,186.12Z" style="fill:#263238"></path><path d="M214.74,185.12c.23.11.95-1,2.36-1.5s2.7-.18,2.79-.41-.23-.35-.8-.51a3.74,3.74,0,0,0-2.31.12,3.67,3.67,0,0,0-1.8,1.4C214.67,184.71,214.64,185.07,214.74,185.12Z" style="fill:#263238"></path><path d="M213.44,197.42a9.83,9.83,0,0,0-2.44.42c-.37.09-.74.15-.89-.08a2,2,0,0,1-.14-1.15c0-1,0-2,.06-3.13.06-4.43,0-8-.22-8s-.37,3.6-.43,8c0,1.09,0,2.13,0,3.13a2.21,2.21,0,0,0,.33,1.48,1,1,0,0,0,.78.31,3.07,3.07,0,0,0,.64-.14A9.72,9.72,0,0,0,213.44,197.42Z" style="fill:#263238"></path><path d="M218.54,214.43a27.65,27.65,0,0,0,12.33-8.62s-.76,8.21-11.31,11Z" style="fill:#aa6550"></path><path d="M215.27,200.59a2.72,2.72,0,0,1,1.93-1.77,2.53,2.53,0,0,1,1.92.28,1.57,1.57,0,0,1,.72,1.64,1.82,1.82,0,0,1-1.68,1.13,5.56,5.56,0,0,1-2.19-.41,1.76,1.76,0,0,1-.55-.27.5.5,0,0,1-.19-.53" style="fill:#aa6550"></path><path d="M217.94,196.88c-.24.07.32,1.6-.59,3.16s-2.6,2-2.54,2.21.47.16,1.17-.07a4,4,0,0,0,2.14-1.75,3.5,3.5,0,0,0,.4-2.62C218.35,197.15,218,196.84,217.94,196.88Z" style="fill:#263238"></path><path d="M213.4,182.39c.28.33,1.62-.36,3.34-.77s3.23-.44,3.32-.86c0-.2-.32-.47-1-.65a5.79,5.79,0,0,0-2.68,0,5.68,5.68,0,0,0-2.39,1.2C213.47,181.82,213.28,182.23,213.4,182.39Z" style="fill:#263238"></path><path d="M199.84,185.65c.37.23,1.22-.45,2.38-.89s2.23-.57,2.33-1c0-.2-.23-.46-.77-.61a3.61,3.61,0,0,0-2.13.18,3.46,3.46,0,0,0-1.66,1.34C199.69,185.16,199.68,185.54,199.84,185.65Z" style="fill:#263238"></path><path d="M251.08,200.71s0,.11,0,.33a2.86,2.86,0,0,1-.15.92,4.27,4.27,0,0,1-2.28,2.51,4.93,4.93,0,0,1-4.94-.65,6.4,6.4,0,0,1-2-2.31,3.51,3.51,0,0,1-.16-3.28,2.26,2.26,0,0,1,1.38-1.11,1.93,1.93,0,0,1,1.69.41,1.52,1.52,0,0,1,.46,1.63,2,2,0,0,1-1,1.21,3.34,3.34,0,0,1-2.78-.14,5.27,5.27,0,0,1-1.9-1.46,5.33,5.33,0,0,1-1.24-3.17,3.46,3.46,0,0,1,.06-.93c0-.21.07-.31.09-.31s0,.45.05,1.22a5.4,5.4,0,0,0,1.32,2.95,5.07,5.07,0,0,0,1.79,1.31,3,3,0,0,0,2.4.1,1.55,1.55,0,0,0,.78-.92,1,1,0,0,0-.31-1.1,1.45,1.45,0,0,0-1.24-.3,1.74,1.74,0,0,0-1,.87,3,3,0,0,0,.15,2.79,6.16,6.16,0,0,0,1.81,2.15,4.58,4.58,0,0,0,4.51.7,4.19,4.19,0,0,0,2.24-2.24A8.53,8.53,0,0,0,251.08,200.71Z" style="fill:#263238"></path><path d="M248.13,189.68c0-.05.48.6.23,1.73a3.34,3.34,0,0,1-1,1.7,4,4,0,0,1-2.17,1,5.86,5.86,0,0,1-4.08-1c-.9-.6-1.34-1.11-1.3-1.16a11.36,11.36,0,0,1,1.49.85,6.11,6.11,0,0,0,3.82.84,3.73,3.73,0,0,0,1.92-.85,3.26,3.26,0,0,0,.94-1.44A4.89,4.89,0,0,0,248.13,189.68Z" style="fill:#263238"></path><path d="M212.92,162.67c0,.05-.17,0-.34-.06l-.74-.38.94.08a2.89,2.89,0,0,0,.59,0c.45,0,.79-.26.9-.16s-.17.6-.84.68a1.11,1.11,0,0,1-.79-.19l.19-.3C212.93,162.49,213,162.62,212.92,162.67Z" style="fill:#263238"></path><path d="M195.65,191.41a2.08,2.08,0,0,1-.73-.16,14,14,0,0,1-1.89-.73,6.63,6.63,0,0,1-2.43-1.84,5.85,5.85,0,0,1-1.12-3.58c0-1.33.17-2.55.18-3.66a6.71,6.71,0,0,0-.45-2.83,4.47,4.47,0,0,0-1.71-2,1.43,1.43,0,0,1,.71.28,3.87,3.87,0,0,1,1.34,1.57,6.62,6.62,0,0,1,.59,3c0,1.14-.17,2.37-.14,3.64a5.48,5.48,0,0,0,1,3.29,6.55,6.55,0,0,0,2.22,1.81C194.68,191,195.69,191.32,195.65,191.41Z" style="fill:#263238"></path><path d="M197,186.23a18,18,0,0,0-1.78-5.36c-1.79-4,10.79-12.05,33.06-8.44l2.74,5.24S199.73,176,197,186.23Z" style="fill:#FF725E"></path><path d="M214.67,162.53a26.58,26.58,0,0,1,.55,9.68c-.56,3.21-2.33,6.35-5.22,7.84-2.25,1.16-4.89,1.22-7.43,1.25l-7.33.08A13.05,13.05,0,0,1,191,181a8,8,0,0,1-5-6.89c-.39-4.17,2-8.3,5.49-10.65a19.47,19.47,0,0,1,12-2.89,52.87,52.87,0,0,1,12.27,2.62" style="fill:#263238"></path><path d="M229.23,160.26c0,.06-.48-.22-1.18-.64a10.7,10.7,0,0,0-2.83-1.33,16.21,16.21,0,0,0-3.12-.4c-.83,0-1.34-.11-1.34-.19a3.49,3.49,0,0,1,1.34-.18,10.69,10.69,0,0,1,3.26.27,8.3,8.3,0,0,1,2.9,1.52C228.92,159.83,229.27,160.21,229.23,160.26Z" style="fill:#FF725E"></path><path d="M245.36,138.09a.77.77,0,0,1-.55.1,1.44,1.44,0,0,1-1.18-1,1.8,1.8,0,0,1,1.28-2,3,3,0,0,1,3.09,1.07,4.67,4.67,0,0,1,1,3.9,5.05,5.05,0,0,1-2.79,3.64,7.12,7.12,0,0,1-5.08.46,20.58,20.58,0,0,1-4.86-2.46,10,10,0,0,0-4.95-1.66,9.7,9.7,0,0,0-4.72,1.1,10,10,0,0,0-5.06,6.33,12.58,12.58,0,0,0-.24,5.63c.25,1.32.54,2,.49,2a1.66,1.66,0,0,1-.23-.5,11.28,11.28,0,0,1-.46-1.5,12.28,12.28,0,0,1,.08-5.76,10.64,10.64,0,0,1,1.7-3.65,10.2,10.2,0,0,1,3.49-3,10.09,10.09,0,0,1,5-1.19,9,9,0,0,1,2.69.5,14.82,14.82,0,0,1,2.5,1.22,20.44,20.44,0,0,0,4.74,2.42,6.71,6.71,0,0,0,4.73-.4,4.56,4.56,0,0,0,2.57-3.3,4.27,4.27,0,0,0-.81-3.57,2.7,2.7,0,0,0-2.72-1,1.57,1.57,0,0,0-1.17,1.73,1.35,1.35,0,0,0,1,1A1.84,1.84,0,0,0,245.36,138.09Z" style="fill:#263238"></path><path d="M234.09,182.4a9.57,9.57,0,0,1,1.63-.22,31.55,31.55,0,0,0,4.39-.69,11.11,11.11,0,0,0,5.64-3.06,7.91,7.91,0,0,0,1.86-3.27,5.44,5.44,0,0,0-.37-3.91,8,8,0,0,0-2.74-3,14.14,14.14,0,0,0-3.48-1.6c-2.36-.74-4.6-1.17-6.38-1.88a11.3,11.3,0,0,1-3.84-2.35,6.51,6.51,0,0,1-.8-.93,1.54,1.54,0,0,1-.21-.37s.36.47,1.15,1.16a12,12,0,0,0,3.83,2.14c1.76.66,4,1,6.39,1.78a14.05,14.05,0,0,1,3.63,1.63,8.38,8.38,0,0,1,2.92,3.15,6,6,0,0,1,.4,4.28,8.35,8.35,0,0,1-2,3.46,11.28,11.28,0,0,1-5.9,3.09,27.6,27.6,0,0,1-4.47.54A10.81,10.81,0,0,1,234.09,182.4Z" style="fill:#263238"></path><path d="M191.68,180a1.7,1.7,0,0,1-.32-.29c-.2-.21-.49-.51-.84-.92a17,17,0,0,1-2.6-3.77,8.52,8.52,0,0,1-.84-3.08,7,7,0,0,1,.74-3.61,10,10,0,0,1,6.5-5.05,15.39,15.39,0,0,1,8.29.57,53.31,53.31,0,0,1,6.19,2.72,6.25,6.25,0,0,0,4.34.45,5.09,5.09,0,0,0,1.44-.77s-.07.14-.29.33a3.39,3.39,0,0,1-1.08.63,5.19,5.19,0,0,1-2,.3,8.14,8.14,0,0,1-2.56-.6,58.4,58.4,0,0,0-6.21-2.6,15,15,0,0,0-8-.52,9.59,9.59,0,0,0-6.2,4.75,7.16,7.16,0,0,0,0,6.33,18.93,18.93,0,0,0,2.43,3.79A11.48,11.48,0,0,1,191.68,180Z" style="fill:#455a64"></path><path d="M231.71,163.36s.2.27,0,.8a1.68,1.68,0,0,1-.59.76,2.11,2.11,0,0,1-1.23.37c-2-.06-4-1.62-6.61-2.28a6.42,6.42,0,0,0-3.65.13,7.25,7.25,0,0,0-2.58,1.57,10.54,10.54,0,0,0-1.68,2.28,1.76,1.76,0,0,1,.22-.76,6,6,0,0,1,1.2-1.79,7.18,7.18,0,0,1,2.69-1.75,6.64,6.64,0,0,1,3.92-.19c2.71.71,4.78,2.31,6.49,2.42a1.69,1.69,0,0,0,1.64-.85A2.09,2.09,0,0,0,231.71,163.36Z" style="fill:#455a64"></path><path d="M256.82,155.83a1.39,1.39,0,0,1-.7.14,2.55,2.55,0,0,1-1.83-.91,2.8,2.8,0,0,1-.22-3.15,3.5,3.5,0,0,1,1.46-1.47,4.67,4.67,0,0,1,2.25-.52,6.06,6.06,0,0,1,5.41,8.22,6.3,6.3,0,0,1-5.13,4,10.49,10.49,0,0,1-6.9-1.48,27.42,27.42,0,0,1-5.4-4.57,40.56,40.56,0,0,0-4.75-4.43,12.72,12.72,0,0,0-5.22-2.46,8.33,8.33,0,0,0-8.15,3.18,8.62,8.62,0,0,0-1.37,2.84,10.86,10.86,0,0,0-.34,2.69s0-.06,0-.18,0-.3,0-.53a7.83,7.83,0,0,1,.22-2,8.67,8.67,0,0,1,1.34-3,8.36,8.36,0,0,1,3.3-2.74,8.55,8.55,0,0,1,5.15-.69,13,13,0,0,1,5.43,2.49c3.45,2.47,6.06,6.46,10.13,8.95a10.13,10.13,0,0,0,6.57,1.42,5.82,5.82,0,0,0,4.75-3.62,5.57,5.57,0,0,0-.72-5.4,5.64,5.64,0,0,0-4.25-2.28,3.65,3.65,0,0,0-3.44,1.76,2.54,2.54,0,0,0,.12,2.88,2.47,2.47,0,0,0,1.67.93A6.53,6.53,0,0,0,256.82,155.83Z" style="fill:#455a64"></path><path d="M229.34,264.53,213,239.2l-27.66,30.53-51,31.71-6.23-.27c-1.09.08-2.38.13-3.9.13a11.61,11.61,0,0,1-3.82-.69,17.52,17.52,0,0,1-4.36-2.08,1.5,1.5,0,0,0-2.52,1.31c.34,1.31,3.45,4,8.1,5.2s-2.23,4.35-4.71,5.53c0,0-3.31,1-3.84,1.8s.81,2.88,5.47,2.07c0,0-1,2.05.74,2.78,1.25.53,4.21-.56,4.21-.56a2,2,0,0,0-.32,2.35c1.12,1.73,4.38.37,4.38.37s-.71,2.79,1.67,2.87c1.78.07,3.77-1.59,7.52-4.31l3.59-3.1,60.74-26.28Z" style="fill:#b78876"></path><path d="M375.53,234.23c-1.55-2.18,8.11,2.32,8.93.55.31-.66.45-1.2-5.45-3A137,137,0,0,0,364.44,229l-.56-.07h0L319,208a18.41,18.41,0,0,0-7.79-1.73H263.51l5.79,23.57L313.45,227l44.49,16.2,1.88,2c.55.56,1.14,1.2,1.79,1.94a10.52,10.52,0,0,1,1.76,2.91,15.79,15.79,0,0,1,1.18,4.06c.07,1.3,1.65,1.88,2.28.9s.56-4.55-1.35-8.3,4-1,6.23-.07,9.06,3.58,9.86,3.14c1.19-.66.69-2.08-1.51-3s-8.61-4.07-8.09-5.21,11.57,3.88,11.57,3.88,2.2,1.46,2.85.16c1.18-2.33-10.93-6.78-12.09-7.17-.81-.28-.28-1.54.57-1.2s10.91,5.25,12.13,2.89C387.94,238.35,377.07,236.42,375.53,234.23Z" style="fill:#b78876"></path><path d="M221.52,320.81l12,34.42s31.94-5.43,36.95-6.36c3.83-.71,11.2-1.24,16-5.8l5.43,10.1,7.72,14.35,34-14.3-26.09-58-59.23,14.62Z" style="fill:#263238"></path><path d="M298.13,326.38a12.32,12.32,0,0,1-.18,3,19,19,0,0,1-3.12,7.47,22.29,22.29,0,0,1-9.19,7.66,61,61,0,0,1-14.15,4.08l-26.25,4.9-8,1.43-2.17.36a3.58,3.58,0,0,1-.76.09,4.77,4.77,0,0,1,.74-.2l2.16-.45,7.93-1.59,26.23-5.05a61.8,61.8,0,0,0,14-4,22.08,22.08,0,0,0,9.09-7.43,19.42,19.42,0,0,0,3.22-7.3C298.11,327.45,298.07,326.38,298.13,326.38Z" style="fill:#455a64"></path><path d="M300,367.13c-.13.07-3-5.18-6.49-11.72s-6.16-11.89-6-12,3,5.18,6.49,11.72S300.13,367.06,300,367.13Z" style="fill:#455a64"></path><path d="M272.08,303.65a2.79,2.79,0,0,1,.1.61,16.15,16.15,0,0,1,.1,1.74,21.39,21.39,0,0,1-.91,6.37,13.76,13.76,0,0,1-2,4,14.17,14.17,0,0,1-3.88,3.36,59.21,59.21,0,0,1-10.58,4.94c-7.75,2.93-14.93,5.07-20.08,6.73l-6.11,2-1.65.54a2.81,2.81,0,0,1-.59.16,2.1,2.1,0,0,1,.55-.26l1.63-.63c1.42-.53,3.48-1.27,6.05-2.13,5.13-1.75,12.29-3.95,20-6.87a61.42,61.42,0,0,0,10.52-4.85,11.76,11.76,0,0,0,5.75-7.1,22.61,22.61,0,0,0,1.05-6.26c0-.75,0-1.34,0-1.74A2.44,2.44,0,0,1,272.08,303.65Z" style="fill:#ebebeb"></path><path d="M277.53,302.69a3.34,3.34,0,0,1,.18.68c.12.45.23,1.12.36,2a23.89,23.89,0,0,1-.14,7.4,18.89,18.89,0,0,1-1.58,4.89,17.07,17.07,0,0,1-3.5,4.76c-3.11,2.89-7.5,4.48-11.89,6.23-8.9,3.41-17.09,6.1-23,7.95-3,.92-5.42,1.61-7.12,2s-2.72.53-2.65.32c0,.29,3.75-.77,9.66-2.69s14.09-4.68,23-8.08c4.39-1.75,8.74-3.32,11.75-6.11a16.38,16.38,0,0,0,3.44-4.59,18.78,18.78,0,0,0,1.61-4.77,24.89,24.89,0,0,0,.3-7.3c-.1-.87-.18-1.54-.26-2A4.46,4.46,0,0,1,277.53,302.69Z" style="fill:#ebebeb"></path><path d="M308.1,363.05a5.59,5.59,0,0,1-.6-1l-1.5-2.68c-1.25-2.28-3-5.42-4.92-8.86s-3.76-6.54-5.06-8.78l-1.53-2.66a5.08,5.08,0,0,1-.51-1,4.64,4.64,0,0,1,.68.9c.41.6,1,1.48,1.67,2.58,1.39,2.19,3.25,5.27,5.2,8.71s3.63,6.63,4.8,8.94c.58,1.16,1,2.11,1.35,2.77A4.24,4.24,0,0,1,308.1,363.05Z" style="fill:#455a64"></path><path d="M308.94,295l-16.11-23-16.35-43.38-.61-22.8-10.63.18a61.81,61.81,0,0,0-26.16,6.29h0a49.8,49.8,0,0,0-9.75,6.29l-5.4,4.47c-6.88,6.38-15.73,15.81-21.27,23.85L188.05,265.1l23,17.69,16.66-16.64,22.2,26.76-1.6,16.86Z" style="fill:#FF725E"></path><polygon points="272.56 205.9 289.91 205.56 292.64 231.43 275.57 233.46 272.56 205.9" style="fill:#FF725E"></polygon><path d="M224.71,261.43a38.32,38.32,0,0,0,.73,8.49,11.62,11.62,0,0,0,12.78,9.7,38.28,38.28,0,0,0,8.89-1.71" style="fill:#FF725E"></path><g style="opacity:0.2"><path d="M225.18,268.67A16.55,16.55,0,0,0,227,274a10.53,10.53,0,0,0,5.83,4.87,25.08,25.08,0,0,0,6.31.78s5.91,7.84,8.06,10.33c2.6,3,4.78,1.74,4.78,1.74a3.81,3.81,0,0,0,1-2.87c0,.25-.23-1.8-.67-3.16a37.66,37.66,0,0,0-10.71-16.32l-.07-.07a12.78,12.78,0,0,0-14.34-1.66Z"></path></g><g style="opacity:0.2"><path d="M278.14,233a32.57,32.57,0,0,1-2.95-15,17.74,17.74,0,0,1,4,15.32"></path></g><path d="M230.6,260a25.4,25.4,0,0,0,1.64-4.82,17.1,17.1,0,0,0-10.74-19.71,25.49,25.49,0,0,0-4.93-1.24,1.41,1.41,0,0,1,.36,0,9,9,0,0,1,1,.06,15.27,15.27,0,0,1,3.68.86,17.27,17.27,0,0,1,4.92,2.71A17.45,17.45,0,0,1,231,243a17,17,0,0,1,2,6.59,17.63,17.63,0,0,1-.38,5.6,15.74,15.74,0,0,1-1.28,3.56,8.86,8.86,0,0,1-.51.89C230.69,259.86,230.62,260,230.6,260Z" style="fill:#263238"></path><path d="M271.84,214.57a3.38,3.38,0,0,1,.33.77c.22.62.48,1.33.78,2.14.65,1.81,1.53,4.32,2.48,7.1s1.79,5.3,2.37,7.14a19.27,19.27,0,0,1,.85,3,18.61,18.61,0,0,1-1.2-2.89c-.67-1.8-1.56-4.31-2.51-7.09s-1.78-5.31-2.34-7.15A13.14,13.14,0,0,1,271.84,214.57Z" style="fill:#263238"></path><path d="M288,276.63a3.79,3.79,0,0,1-.84.53,16.79,16.79,0,0,1-2.43,1.11,23.1,23.1,0,0,1-3.83,1.1,26.27,26.27,0,0,1-4.86.47,27,27,0,0,1-4.86-.48,23.44,23.44,0,0,1-3.83-1.11,17.84,17.84,0,0,1-2.44-1.13,3.43,3.43,0,0,1-.83-.53c.05-.08,1.28.59,3.39,1.31a26.35,26.35,0,0,0,3.8,1,28,28,0,0,0,4.77.44,29.4,29.4,0,0,0,4.77-.42,27.28,27.28,0,0,0,3.79-1C286.76,277.21,288,276.54,288,276.63Z" style="fill:#263238"></path><path d="M224.43,237a11.11,11.11,0,0,1-1,1.45c-.65.92-1.61,2.23-2.81,3.84-2.4,3.21-5.78,7.61-9.61,12.38s-7.4,9-10,12.07c-1.31,1.52-2.38,2.74-3.14,3.57a10.79,10.79,0,0,1-1.2,1.26,11.1,11.1,0,0,1,1-1.39c.77-.93,1.78-2.17,3-3.68,2.54-3.1,6.06-7.38,9.89-12.15s7.25-9.13,9.73-12.29l2.94-3.73A10.84,10.84,0,0,1,224.43,237Z" style="fill:#ebebeb"></path><path d="M219.9,234.71a10.62,10.62,0,0,1-1,1.43c-.63.89-1.57,2.18-2.75,3.76-2.35,3.15-5.66,7.47-9.42,12.15s-7.26,8.85-9.83,11.83c-1.29,1.49-2.34,2.68-3.08,3.5a10.72,10.72,0,0,1-1.18,1.23,11.12,11.12,0,0,1,1-1.36c.75-.92,1.74-2.14,2.95-3.61,2.5-3,5.94-7.24,9.7-11.92s7.11-8.95,9.54-12.05c1.17-1.49,2.15-2.72,2.88-3.66A10.78,10.78,0,0,1,219.9,234.71Z" style="fill:#ebebeb"></path><path d="M289.8,207.32a22,22,0,0,1-3.19.1c-2,0-4.69,0-7.69.07s-5.73.14-7.69.2a21.11,21.11,0,0,1-3.2,0,17.51,17.51,0,0,1,3.18-.38c2-.16,4.69-.31,7.7-.36s5.74,0,7.71.08A18.09,18.09,0,0,1,289.8,207.32Z" style="fill:#ebebeb"></path><path d="M290.67,210.3c0,.14-4.63.33-10.33.41s-10.34,0-10.34-.1a101.24,101.24,0,0,1,10.33-.42A101.89,101.89,0,0,1,290.67,210.3Z" style="fill:#ebebeb"></path><path d="M231.65,162.25a9.35,9.35,0,0,0,1.89,1.66c1.5.92,3.31,1.15,4.94,1.8a10,10,0,0,1,5.09,14c-.7,1.3-1.7,2.47-2,3.91s.13,3.07.16,4.62a8.13,8.13,0,0,1-10,8.05,5.25,5.25,0,0,1-4-3.43c-.53-2.06.74-4.26.23-6.32s-2.51-3.3-3.15-5.26c-.73-2.25.5-4.95-.73-7s-3.92-2.1-6.11-2.84a9.54,9.54,0,0,1-6.23-7.69l1.76-1a8.14,8.14,0,0,1,2.28-4S222.38,154.89,231.65,162.25Z" style="fill:#263238"></path><path d="M107.64,207.74a2.89,2.89,0,0,1-.69.25l-2,.62a51.69,51.69,0,0,0-7.12,3,50.07,50.07,0,0,0-9.46,6.43,53.75,53.75,0,0,0-4.82,4.75,51.18,51.18,0,0,0-4.36,5.81,47.45,47.45,0,0,0-4.43,8.8l-.16.41-.28-.34a27.59,27.59,0,0,0-7.85-6.8,28.73,28.73,0,0,0-13-3.86c-.64-.05-1.13,0-1.47,0a1.77,1.77,0,0,1-.5,0,2.8,2.8,0,0,1,.5,0c.34,0,.83-.06,1.47,0a25.5,25.5,0,0,1,5.46.64,28.19,28.19,0,0,1,15.82,9.88l-.43.07a46.42,46.42,0,0,1,4.47-8.91,49,49,0,0,1,4.41-5.86A50.94,50.94,0,0,1,88,217.71a47.81,47.81,0,0,1,9.61-6.39,44.88,44.88,0,0,1,7.22-2.9l2-.53A6.31,6.31,0,0,1,107.64,207.74Z" style="fill:#263238"></path><path d="M96.1,202.41a12.9,12.9,0,0,1,3.7-.12,13.87,13.87,0,0,1,3.68.41,13,13,0,0,1-3.7.12A13.79,13.79,0,0,1,96.1,202.41Z" style="fill:#263238"></path><path d="M99.77,196.24a9.61,9.61,0,0,1,2.89,1.24,9.71,9.71,0,0,1,2.64,1.71,9.8,9.8,0,0,1-2.89-1.25A9.37,9.37,0,0,1,99.77,196.24Z" style="fill:#263238"></path><path d="M114.54,218.7a10.27,10.27,0,0,1,1.09-7.74c.14.06-.5,1.7-.79,3.84S114.7,218.69,114.54,218.7Z" style="fill:#263238"></path><path d="M124.86,219.08a15.38,15.38,0,0,1-1.76-3.57,15.64,15.64,0,0,1-1.28-3.77,30.47,30.47,0,0,1,3,7.34Z" style="fill:#263238"></path><circle cx="117.53" cy="196.83" r="8.05" style="fill:#455a64"></circle><path d="M115.45,205c-.08-.05.39-.73.66-2a6.81,6.81,0,0,0-.7-4.78,6.89,6.89,0,0,0-3.8-3c-1.23-.38-2-.32-2-.41a3.81,3.81,0,0,1,2.15.06,6.53,6.53,0,0,1,4.76,8.21A3.81,3.81,0,0,1,115.45,205Z" style="fill:#263238"></path><path d="M124.86,201a4.75,4.75,0,0,1-2-.79,9.24,9.24,0,0,1-4.5-9.06,4.71,4.71,0,0,1,.61-2.1c.09,0-.17.82-.24,2.13a9.76,9.76,0,0,0,4.33,8.72C124.1,200.62,124.89,200.89,124.86,201Z" style="fill:#263238"></path></g><g id="freepik--Plants--inject-5"><path d="M460,406.72c-1.19,1.7-3.51,1.13-4.58.09a8.5,8.5,0,0,1-1.94-4c-.95-3.28-1.9-6.72-1.2-10.06a5.59,5.59,0,0,1,1.29-2.73,2.91,2.91,0,0,1,2.77-.93,4.29,4.29,0,0,1,2.41,2.54,23.87,23.87,0,0,1,2.37,10.3,8.34,8.34,0,0,1-1.12,4.77" style="fill:#FF725E"></path><g style="opacity:0.2"><path d="M460,406.72c-1.19,1.7-3.51,1.13-4.58.09a8.5,8.5,0,0,1-1.94-4c-.95-3.28-1.9-6.72-1.2-10.06a5.59,5.59,0,0,1,1.29-2.73,2.91,2.91,0,0,1,2.77-.93,4.29,4.29,0,0,1,2.41,2.54,23.87,23.87,0,0,1,2.37,10.3,8.34,8.34,0,0,1-1.12,4.77"></path></g><path d="M455.48,415.33a10.32,10.32,0,0,0-6.4-.77,5.32,5.32,0,0,0-3.17,1.41,2.28,2.28,0,0,0,0,3.16,3,3,0,0,0,2,.5c1.7,0,3.58-.31,4.93.71.77.58,1.29,1.54,2.21,1.83a2.18,2.18,0,0,0,2.4-1.07,3.68,3.68,0,0,0,.27-2.75A4.2,4.2,0,0,0,455.48,415.33Z" style="fill:#FF725E"></path><path d="M463.22,409.16a6.2,6.2,0,0,1-1-5.7,10.92,10.92,0,0,1,3.37-4.9,18.31,18.31,0,0,1,6.05-3.56,6.51,6.51,0,0,1,2.72-.47,2.86,2.86,0,0,1,2.28,1.38c.63,1.22,0,2.69-.64,3.89a45.57,45.57,0,0,1-4,6,10.78,10.78,0,0,1-4.36,3.75c-1.82.69-3.7.61-4.66-.65" style="fill:#FF725E"></path><path d="M460,432.39a4,4,0,0,1-.11-.77c-.05-.57-.12-1.27-.2-2.11a30.13,30.13,0,0,0-.48-3.1,23.51,23.51,0,0,0-1.12-3.65,13.62,13.62,0,0,0-1.87-3.31,6.87,6.87,0,0,0-2.36-2,6.61,6.61,0,0,0-2-.62,4.16,4.16,0,0,1-.77-.11,3.45,3.45,0,0,1,.79,0,5.9,5.9,0,0,1,2.07.54,7,7,0,0,1,2.49,2,13.28,13.28,0,0,1,1.93,3.38,22.1,22.1,0,0,1,1.12,3.71,27.05,27.05,0,0,1,.41,3.13c.07.9.09,1.63.11,2.13A3.66,3.66,0,0,1,460,432.39Z" style="fill:#263238"></path><path d="M459.88,430.77a2.81,2.81,0,0,1,0-.36c0-.27,0-.61,0-1,0-.89,0-2.18-.05-3.77-.08-3.18-.35-7.58-.88-12.41s-1.24-9.17-1.89-12.29c-.15-.78-.3-1.49-.45-2.1s-.25-1.15-.36-1.58l-.24-1a1.36,1.36,0,0,1-.07-.35,1.11,1.11,0,0,1,.13.33c.08.26.17.59.3,1s.26.95.42,1.57.33,1.31.49,2.09a116.09,116.09,0,0,1,2,12.31c.53,4.84.76,9.24.79,12.44,0,1.59,0,2.88-.06,3.77,0,.42-.05.76-.06,1A1.58,1.58,0,0,1,459.88,430.77Z" style="fill:#263238"></path><path d="M459.86,422.27a6.88,6.88,0,0,1,0-1.08,28.43,28.43,0,0,1,.33-2.9,39.91,39.91,0,0,1,2.71-9.24,26.59,26.59,0,0,1,5.2-8.09,13.6,13.6,0,0,1,1.22-1.14c.19-.15.35-.31.52-.44l.48-.32a5.87,5.87,0,0,1,.9-.58,31.31,31.31,0,0,0-3,2.64,28,28,0,0,0-5.06,8.06,38.39,38.39,0,0,0-1.78,5,40.15,40.15,0,0,0-1,4.19c-.22,1.21-.35,2.19-.43,2.87A6.86,6.86,0,0,1,459.86,422.27Z" style="fill:#263238"></path><path d="M82.09,420.2c14.71-9.11,18.93-27.3,19.28-43.84.06-2.76.52-5.65-.66-8.14s-4.14-4.31-6.67-3.29c-2.1.85-3.13,3.19-4.38,5.09a16.18,16.18,0,0,1-6.8,5.82c-1.81.81-4,1.25-5.69.2-2.3-1.44-2.4-4.74-2.24-7.48q.48-7.67.94-15.32a25.53,25.53,0,0,0-.38-8.19c-.71-2.64-2.46-5.16-5-6s-5.88.46-6.58,3.11a25.57,25.57,0,0,0-.26,3.41,2.9,2.9,0,0,1-1.84,2.62c-1.11.26-2.16-.58-2.94-1.43-2.68-2.92-4.4-6.59-6-10.23s-3.14-7.37-5.54-10.53-5.82-5.75-9.73-6.19-8.23,1.76-9.44,5.56.84,7.85,3.12,11.11a61.35,61.35,0,0,0,12.07,12.85,5,5,0,0,1,2,2.4c.5,1.86-1.33,3.58-3.17,4.08-2.08.57-4.29.24-6.44.37s-4.51.95-5.43,2.93c-1.28,2.74.9,5.8,3.1,7.85a52.51,52.51,0,0,0,15,9.81c2,.85,4.06,1.61,5.61,3.12s2.39,4,1.3,5.9-3.64,2.35-5.73,1.85-3.92-1.76-5.89-2.63c-3.69-1.63-8.56-1.64-11.16,1.48a8.71,8.71,0,0,0-1.34,7.62,20.16,20.16,0,0,0,3.78,7,52.79,52.79,0,0,0,21.64,17.05c8.57,3.51,16.62,4.77,25.47,2.07" style="fill:#FF725E"></path><path d="M81.64,432.45a120.51,120.51,0,0,0-3.24-22.83,245.49,245.49,0,0,0-8.29-27q-1.29-3.52-2.54-7c-.84-2.28-1.67-4.54-2.62-6.71a123.54,123.54,0,0,0-6.17-12.12c-2.15-3.76-4.32-7.25-6.38-10.49s-4-6.24-6-8.88a97.51,97.51,0,0,0-10-11.8c-1.29-1.3-2.32-2.27-3-2.92L32.6,322a1.61,1.61,0,0,0-.29-.23,2,2,0,0,0,.25.27l.78.77c.68.68,1.69,1.67,2.95,3a103.19,103.19,0,0,1,9.85,11.87c1.9,2.65,3.86,5.64,5.9,8.9s4.21,6.74,6.34,10.5a126.26,126.26,0,0,1,6.12,12.09c.94,2.15,1.76,4.39,2.6,6.68s1.68,4.61,2.53,7A251.5,251.5,0,0,1,78,409.73a122,122,0,0,1,3.33,22.74" style="fill:#263238"></path><path d="M64.81,369a6.19,6.19,0,0,0,.33-1.16c.18-.75.42-1.84.68-3.19.54-2.71,1.16-6.48,1.82-10.63s1.33-7.9,1.9-10.59c.29-1.35.53-2.44.71-3.19a6.1,6.1,0,0,0,.22-1.18,5.08,5.08,0,0,0-.41,1.13c-.24.74-.53,1.82-.86,3.16-.67,2.68-1.4,6.43-2.06,10.59s-1.22,7.81-1.67,10.64c-.21,1.28-.38,2.36-.52,3.22A4.62,4.62,0,0,0,64.81,369Z" style="fill:#263238"></path><path d="M29.93,360.42a7.51,7.51,0,0,0,1.4.25c.9.13,2.2.31,3.8.59,3.21.52,7.62,1.4,12.44,2.59s9.13,2.46,12.22,3.47c1.55.49,2.8.92,3.66,1.21a7.78,7.78,0,0,0,1.36.42,6.77,6.77,0,0,0-1.29-.6c-.84-.35-2.07-.84-3.61-1.38-3.08-1.09-7.39-2.42-12.22-3.62a125.63,125.63,0,0,0-12.5-2.45c-1.62-.23-2.93-.36-3.84-.43A8.94,8.94,0,0,0,29.93,360.42Z" style="fill:#263238"></path><path d="M78,409s.11-.14.27-.42l.67-1.24c.58-1.08,1.38-2.67,2.34-4.64,1.92-3.94,4.4-9.47,7.06-15.61s5.09-11.69,6.93-15.67l2.19-4.71c.23-.51.43-.93.58-1.28a2.24,2.24,0,0,0,.18-.46s-.11.13-.27.41l-.67,1.25c-.58,1.08-1.38,2.66-2.34,4.63-1.92,4-4.4,9.48-7.06,15.62S82.79,398.52,81,402.5l-2.19,4.7c-.24.51-.43.94-.59,1.28A2.42,2.42,0,0,0,78,409Z" style="fill:#263238"></path><path d="M32,391.28a1.72,1.72,0,0,0,.45.22l1.34.53,4.92,1.9c4.16,1.61,9.88,3.89,16.19,6.42s12.06,4.77,16.26,6.29c2.09.76,3.79,1.36,5,1.75l1.37.44A2.84,2.84,0,0,0,78,409a1.72,1.72,0,0,0-.45-.22l-1.33-.53-4.93-1.9c-4.16-1.61-9.88-3.89-16.19-6.42S43,395.11,38.85,393.59c-2.1-.76-3.8-1.36-5-1.75l-1.36-.44A3,3,0,0,0,32,391.28Z" style="fill:#263238"></path></g></svg>