<?xml version="1.0" encoding="utf-8"?>
<!-- Generator: Adobe Illustrator 16.0.0, SVG Export Plug-In . SVG Version: 6.00 Build 0)  -->
<!DOCTYPE svg PUBLIC "-//W3C//DTD SVG 1.1//EN" "http://www.w3.org/Graphics/SVG/1.1/DTD/svg11.dtd">
<svg version="1.1" xmlns="http://www.w3.org/2000/svg" xmlns:xlink="http://www.w3.org/1999/xlink" x="0px" y="0px" width="414px"
	 height="896px" viewBox="0 0 414 896" enable-background="new 0 0 414 896" xml:space="preserve">
<g id="레이어_1" display="none">
	
		<image display="inline" overflow="visible" opacity="0.5" width="319" height="646" xlink:href="57BDE157.jpg"  transform="matrix(1.5047 0 0 1.5047 -27.0068 -41.0322)">
	</image>
</g>
<g id="레이어_2">
	<g id="레이어_4">
	</g>
	<g>
		<defs>
			<rect id="SVGID_1_" width="414" height="896"/>
		</defs>
		<clipPath id="SVGID_2_">
			<use xlink:href="#SVGID_1_"  overflow="visible"/>
		</clipPath>
		<path clip-path="url(#SVGID_2_)" fill="#3751FE" d="M-12.667,519.667c0,0,164.341-82.667,446,119.333l48.666,282l-498-5.333
			L-12.667,519.667z"/>
		<ellipse clip-path="url(#SVGID_2_)" fill="#193693" cx="215" cy="612.502" rx="128" ry="25.501"/>
		<path clip-path="url(#SVGID_2_)" fill="#FFD400" d="M104.667-8.167c0,0,22,205.833,345.333,279.833V-8L104.667-8.167z"/>
		<path clip-path="url(#SVGID_2_)" fill="#75D68A" d="M-3-8.167L202-2c0,0-4.667,314.333-214.667,497L-3-8.167z"/>
	</g>
	<g id="레이어_6">
		
			<image display="none" overflow="visible" width="2048" height="2048" xlink:href="KakaoTalk_20211020_114625763.png"  transform="matrix(0.2542 0 0 0.2542 -470.48 200.1865)">
		</image>
		<g id="레이어_8">
		</g>
		<path fill="#FFB231" stroke="#FFB231" stroke-miterlimit="10" d="M304.44,533l-32.19-111.67c0,0-10.59-29.67-26.29-37.09
			c-10.29-7.19-23.96-11.57-38.96-11.57c-14.41,0-27.58,4.04-37.72,10.74c-0.01,0-0.02,0.01-0.03,0.02
			c-15.68,7.43-26.25,33.9-26.25,33.9L99.33,533c-18.2,40.97,14.01,70.21,15.61,71.63c0.04,0.04,0.06,0.061,0.06,0.061
			c8.66,9,20.66,15.01,34,15.529c0.06,0.011,0.13,0.28,0.2,0.28h3.56l100.021-0.23c14.14,0,26.91-6.015,36-15.465
			c0,0,0.02-0.082,0.06-0.112C290.43,603.272,322.65,573.97,304.44,533z M149,619.96v-0.01c0.04,0.01,0.09,0.01,0.14,0.01H149z"/>
		<g id="레이어_7">
		</g>
		<g>
			
				<line fill="none" stroke="#2E2E2E" stroke-width="7" stroke-linecap="round" stroke-miterlimit="10" x1="217.5" y1="419" x2="217.5" y2="427"/>
			
				<line fill="none" stroke="#2E2E2E" stroke-width="7" stroke-linecap="round" stroke-miterlimit="10" x1="196.5" y1="419" x2="196.5" y2="427"/>
			<path fill="none" stroke="#2E2E2E" stroke-width="7" stroke-linecap="round" stroke-miterlimit="10" d="M214.125,437.625
				c0,4.004-3.246,7.25-7.25,7.25c-4.004,0-7.25-3.246-7.25-7.25"/>
		</g>
	</g>
	<path fill="#3751FE" d="M315.855,300c0,21.653-17.559,39-39.211,39h-60.037l-10.543,16.408L196.723,339h-60.368
		c-21.653,0-39.211-17.347-39.211-39c0-10.822,4.392-20.528,11.484-27.621c7.093-7.093,16.904-11.379,27.727-11.379h140.289
		C298.297,261,315.855,278.347,315.855,300z"/>
	<g id="레이어_5">
		<text transform="matrix(1 0 0 1 129.9575 308.2041)" fill="#FFFFFF" font-family="'Prompt-Light'" font-size="23">Hello! I’m HoY</text>
	</g>
</g>
</svg>
