<?xml version="1.0" encoding="utf-8"?>
<!-- Generator: Adobe Illustrator 16.0.0, SVG Export Plug-In . SVG Version: 6.00 Build 0)  -->
<!DOCTYPE svg PUBLIC "-//W3C//DTD SVG 1.1//EN" "http://www.w3.org/Graphics/SVG/1.1/DTD/svg11.dtd">
<svg version="1.1" xmlns="http://www.w3.org/2000/svg" xmlns:xlink="http://www.w3.org/1999/xlink" x="0px" y="0px" width="414px"
	 height="702px" viewBox="0 0 414 702" enable-background="new 0 0 414 702" xml:space="preserve">
<g id="레이어_1" display="none">
	
		<image display="inline" overflow="visible" opacity="0.5" width="319" height="646" xlink:href="7611C822.jpg"  transform="matrix(1.5047 0 0 1.5047 -27.0068 -99.0322)">
	</image>
</g>
<g id="레이어_2">
	<g id="레이어_4" display="none">
		<g display="inline">
			<defs>
				<path id="SVGID_1_" d="M-12.667,461.667c0,0,164.341-82.667,446,119.333l48.666,282l-498-5.333L-12.667,461.667z"/>
			</defs>
			<clipPath id="SVGID_2_">
				<use xlink:href="#SVGID_1_"  overflow="visible"/>
			</clipPath>
			<rect x="-6" y="445" clip-path="url(#SVGID_2_)" fill="#001AFF" width="430" height="402"/>
		</g>
		<g display="inline">
			<defs>
				<rect id="SVGID_3_" x="105" y="-66" width="319" height="289"/>
			</defs>
			<clipPath id="SVGID_4_">
				<use xlink:href="#SVGID_3_"  overflow="visible"/>
			</clipPath>
			<path clip-path="url(#SVGID_4_)" fill="#FFD400" d="M104.667-66.167c0,0,22,205.833,345.333,279.833V-66L104.667-66.167z"/>
		</g>
		<g display="inline">
			<defs>
				<rect id="SVGID_5_" x="-3" y="-66" width="236" height="499"/>
			</defs>
			<clipPath id="SVGID_6_">
				<use xlink:href="#SVGID_5_"  overflow="visible"/>
			</clipPath>
			<path clip-path="url(#SVGID_6_)" fill="#75D68A" d="M-3-66.167L202-60c0,0-4.667,314.333-214.667,497L-3-66.167z"/>
		</g>
	</g>
	<g id="레이어_6">
		<g opacity="0.5">
			<image overflow="visible" width="379" height="144" xlink:href="7611C822.png"  transform="matrix(1 0 0 1 17 557)">
			</image>
		</g>
		<g id="레이어_8">
		</g>
		<path fill="#FFB231" stroke="#FFB231" stroke-miterlimit="10" d="M340.88,519.733l-44.229-153.43c0,0-14.55-40.765-36.122-50.96
			c-14.138-9.879-32.92-15.897-53.529-15.897c-19.799,0-37.894,5.551-51.826,14.757c-0.014,0-0.028,0.013-0.042,0.027
			c-21.543,10.208-36.066,46.578-36.066,46.578L59.066,519.733c-25.007,56.291,19.249,96.466,21.447,98.416
			c0.055,0.056,0.083,0.084,0.083,0.084c11.898,12.365,28.386,20.894,46.715,21.608c0.083,0.016,0.178,0.658,0.274,0.658h4.891
			l137.424-0.589c19.428,0,36.973-8.4,49.463-21.385c0,0,0.026-0.181,0.082-0.223C321.629,616.354,365.899,576.024,340.88,519.733z
			 M127.311,639.213v-0.014c0.055,0.014,0.123,0.014,0.192,0.014H127.311z"/>
		<g id="레이어_7">
		</g>
		<g>
			
				<line fill="none" stroke="#2E2E2E" stroke-width="9" stroke-linecap="round" stroke-miterlimit="10" x1="221.5" y1="363" x2="221.5" y2="375"/>
			
				<line fill="none" stroke="#2E2E2E" stroke-width="9" stroke-linecap="round" stroke-miterlimit="10" x1="192.5" y1="363" x2="192.5" y2="375"/>
			<path fill="none" stroke="#2E2E2E" stroke-width="9.6177" stroke-linecap="round" stroke-miterlimit="10" d="M216.79,388.691
				c0,5.502-4.461,9.962-9.962,9.962c-5.502,0-9.961-4.46-9.961-9.962"/>
		</g>
	</g>
	<path fill="#3751FE" d="M356.563,199.5c0,29.751-24.125,53.5-53.875,53.5H220.2l-14.486,22.544L192.88,253h-82.942
		c-29.751,0-53.875-23.742-53.875-53.492c0-14.87,6.034-28.167,15.779-37.912C81.587,151.851,95.068,146,109.938,146h192.751
		C332.438,146,356.563,169.749,356.563,199.5z"/>
	<g id="레이어_5">
		<g>
			<path fill="#1868FB" d="M81.798,50.265h10.112v5.183h-1.264l-4.708,19.403h-9.449l-2.875-13.652h-0.316l-3.034,13.652h-9.449
				l-5.025-19.403h-1.264v-5.183h11.692v5.183h-1.201l1.232,8.058h0.316l3.002-13.241h9.101l2.781,13.241h0.316l1.232-8.058h-1.201
				V50.265z"/>
			<path fill="#1868FB" d="M93.048,72.938c-1.686-1.569-2.528-3.86-2.528-6.873c0-3.012,0.842-5.304,2.528-6.873
				c1.685-1.569,4.023-2.354,7.015-2.354c2.971,0,5.114,0.774,6.431,2.323c1.316,1.548,1.975,3.471,1.975,5.767v2.275H98.231v0.189
				c0,0.78,0.231,1.354,0.695,1.722c0.463,0.369,1.232,0.553,2.307,0.553c1.285,0,2.507-0.095,3.666-0.284
				c1.159-0.19,2.17-0.432,3.034-0.727v5.056c-0.738,0.4-1.817,0.764-3.239,1.09c-1.422,0.326-2.966,0.49-4.63,0.49
				C97.072,75.293,94.733,74.508,93.048,72.938z M101.896,63.727v-0.379c0-0.716-0.153-1.232-0.458-1.548s-0.764-0.474-1.375-0.474
				c-0.611,0-1.069,0.164-1.375,0.49c-0.306,0.327-0.458,0.837-0.458,1.533v0.379H101.896z"/>
			<path fill="#1868FB" d="M122.01,72.259c-2.16-2.022-3.239-5.256-3.239-9.702c0-8.49,4.129-12.735,12.388-12.735
				c2.001,0,3.86,0.242,5.578,0.727c1.717,0.485,2.997,1.022,3.839,1.612v7.9h-7.584v-2.275c0-0.8-0.179-1.391-0.538-1.77
				c-0.358-0.379-0.896-0.568-1.611-0.568c-0.717,0-1.254,0.189-1.612,0.568c-0.358,0.379-0.537,0.97-0.537,1.77v9.543
				c0,0.801,0.179,1.391,0.537,1.77c0.358,0.379,0.895,0.569,1.612,0.569c0.716,0,1.253-0.189,1.611-0.569
				c0.358-0.379,0.538-0.969,0.538-1.77v-2.56h7.584v8.185c-0.864,0.59-2.144,1.127-3.839,1.612
				c-1.696,0.484-3.535,0.727-5.515,0.727C127.24,75.293,124.169,74.282,122.01,72.259z"/>
			<path fill="#1868FB" d="M160.136,69.668v5.183h-8.343v-2.149c-0.463,0.674-1.111,1.275-1.943,1.801
				c-0.833,0.526-1.849,0.79-3.049,0.79c-1.58,0-2.824-0.422-3.729-1.264c-0.906-0.842-1.359-2.033-1.359-3.571
				c0-3.982,3.381-6.025,10.144-6.13c-0.063-0.716-0.337-1.206-0.822-1.47c-0.485-0.263-1.307-0.395-2.465-0.395
				c-0.948,0-1.965,0.1-3.049,0.3c-1.085,0.201-2.081,0.469-2.986,0.806v-5.814c1.116-0.273,2.328-0.495,3.634-0.664
				c1.306-0.168,2.581-0.253,3.824-0.253c3.139,0,5.383,0.569,6.731,1.707s2.022,2.897,2.022,5.277v5.846H160.136z M151.793,67.456
				c-0.948,0-1.68,0.126-2.196,0.379c-0.516,0.253-0.774,0.675-0.774,1.264c0,0.358,0.11,0.648,0.332,0.869s0.532,0.332,0.932,0.332
				c0.548,0,0.969-0.231,1.264-0.695s0.442-1.117,0.442-1.959V67.456z"/>
			<path fill="#1868FB" d="M182.13,69.668v5.183h-9.986v-5.183h1.327v-5.183c0-0.695-0.147-1.206-0.442-1.533
				c-0.295-0.326-0.737-0.49-1.327-0.49c-1.264,0-1.896,0.674-1.896,2.022v5.183h1.327v5.183h-9.986v-5.183h1.391v-7.205h-1.391
				V57.28h8.659v2.465c1.517-1.938,3.413-2.907,5.688-2.907c1.749,0,3.06,0.548,3.935,1.644c0.874,1.095,1.312,2.602,1.312,4.519
				v6.668H182.13z"/>
			<path fill="#1868FB" d="M195.734,72.259c-2.16-2.022-3.239-5.256-3.239-9.702c0-8.49,4.129-12.735,12.388-12.735
				c2.001,0,3.86,0.242,5.577,0.727c1.717,0.485,2.997,1.022,3.84,1.612v7.9h-7.584v-2.275c0-0.8-0.179-1.391-0.538-1.77
				c-0.358-0.379-0.896-0.568-1.611-0.568c-0.717,0-1.254,0.189-1.612,0.568c-0.358,0.379-0.537,0.97-0.537,1.77v9.543
				c0,0.801,0.179,1.391,0.537,1.77c0.358,0.379,0.895,0.569,1.612,0.569c0.716,0,1.253-0.189,1.611-0.569
				c0.358-0.379,0.538-0.969,0.538-1.77v-2.56h7.584v8.185c-0.864,0.59-2.144,1.127-3.84,1.612
				c-1.695,0.484-3.534,0.727-5.514,0.727C200.964,75.293,197.894,74.282,195.734,72.259z"/>
			<path fill="#1868FB" d="M236.42,69.668v5.183h-9.985v-5.183h1.327v-5.183c0-0.695-0.147-1.206-0.442-1.533
				c-0.296-0.326-0.738-0.49-1.327-0.49c-1.265,0-1.896,0.674-1.896,2.022v5.183h1.327v5.183h-9.986v-5.183h1.391v-14.22h-1.391
				v-5.183h8.659v9.48c0.779-0.969,1.622-1.695,2.528-2.18c0.905-0.484,1.959-0.727,3.16-0.727c1.748,0,3.06,0.548,3.934,1.644
				s1.312,2.602,1.312,4.519v6.668H236.42z"/>
			<path fill="#1868FB" d="M255.854,69.668v5.183h-8.343v-2.149c-0.464,0.674-1.111,1.275-1.943,1.801s-1.849,0.79-3.05,0.79
				c-1.58,0-2.823-0.422-3.729-1.264c-0.906-0.842-1.359-2.033-1.359-3.571c0-3.982,3.382-6.025,10.145-6.13
				c-0.063-0.716-0.337-1.206-0.821-1.47c-0.485-0.263-1.307-0.395-2.466-0.395c-0.947,0-1.964,0.1-3.049,0.3
				c-1.086,0.201-2.081,0.469-2.986,0.806v-5.814c1.116-0.273,2.327-0.495,3.634-0.664c1.307-0.168,2.581-0.253,3.824-0.253
				c3.139,0,5.382,0.569,6.73,1.707s2.022,2.897,2.022,5.277v5.846H255.854z M247.512,67.456c-0.948,0-1.68,0.126-2.196,0.379
				c-0.517,0.253-0.774,0.675-0.774,1.264c0,0.358,0.111,0.648,0.332,0.869c0.222,0.221,0.532,0.332,0.933,0.332
				c0.547,0,0.969-0.231,1.264-0.695s0.442-1.117,0.442-1.959V67.456z"/>
			<path fill="#1868FB" d="M256.865,74.882v-5.214h1.391v-14.22h-1.391v-5.183h8.659v19.403h1.391v5.214H256.865z"/>
			<path fill="#1868FB" d="M267.925,74.882v-5.214h1.391v-14.22h-1.391v-5.183h8.659v19.403h1.391v5.214H267.925z"/>
			<path fill="#1868FB" d="M281.388,72.938c-1.686-1.569-2.528-3.86-2.528-6.873c0-3.012,0.843-5.304,2.528-6.873
				c1.685-1.569,4.023-2.354,7.016-2.354c2.97,0,5.113,0.774,6.431,2.323c1.316,1.548,1.975,3.471,1.975,5.767v2.275H286.57v0.189
				c0,0.78,0.231,1.354,0.695,1.722c0.463,0.369,1.232,0.553,2.307,0.553c1.285,0,2.507-0.095,3.666-0.284
				c1.158-0.19,2.169-0.432,3.033-0.727v5.056c-0.737,0.4-1.817,0.764-3.239,1.09c-1.422,0.326-2.965,0.49-4.629,0.49
				C285.411,75.293,283.072,74.508,281.388,72.938z M290.235,63.727v-0.379c0-0.716-0.152-1.232-0.458-1.548
				s-0.764-0.474-1.374-0.474c-0.611,0-1.07,0.164-1.375,0.49c-0.306,0.327-0.458,0.837-0.458,1.533v0.379H290.235z"/>
			<path fill="#1868FB" d="M318.739,69.668v5.183h-9.985v-5.183h1.327v-5.183c0-0.695-0.147-1.206-0.442-1.533
				c-0.296-0.326-0.738-0.49-1.327-0.49c-1.265,0-1.896,0.674-1.896,2.022v5.183h1.327v5.183h-9.986v-5.183h1.391v-7.205h-1.391
				V57.28h8.659v2.465c1.517-1.938,3.413-2.907,5.688-2.907c1.748,0,3.06,0.548,3.934,1.644s1.312,2.602,1.312,4.519v6.668H318.739z
				"/>
			<path fill="#1868FB" d="M324.664,81.992c-1.38-0.21-2.448-0.453-3.207-0.727v-5.183c2.232,0.4,4.234,0.601,6.004,0.601
				c1.201,0,2.07-0.185,2.607-0.553s0.806-1.059,0.806-2.07v-1.359c-0.526,0.674-1.206,1.275-2.038,1.801
				c-0.833,0.526-1.785,0.79-2.86,0.79c-2.148,0-3.766-0.8-4.851-2.402c-1.085-1.601-1.627-3.876-1.627-6.826
				c0-2.949,0.542-5.225,1.627-6.826s2.702-2.402,4.851-2.402c1.075,0,2.027,0.264,2.86,0.79c0.832,0.527,1.512,1.127,2.038,1.801
				V57.28h8.659v5.183h-1.391v11.124c0,3.055-0.759,5.272-2.275,6.652c-1.517,1.379-3.803,2.07-6.857,2.07
				C327.493,82.309,326.044,82.203,324.664,81.992z M330.416,69.178c0.305-0.326,0.458-0.837,0.458-1.533v-3.16
				c0-0.695-0.153-1.206-0.458-1.533c-0.306-0.326-0.764-0.49-1.375-0.49s-1.069,0.164-1.374,0.49
				c-0.306,0.327-0.459,0.837-0.459,1.533v3.16c0,0.695,0.153,1.207,0.459,1.533c0.305,0.327,0.763,0.49,1.374,0.49
				S330.11,69.505,330.416,69.178z"/>
			<path fill="#1868FB" d="M342.819,72.938c-1.686-1.569-2.528-3.86-2.528-6.873c0-3.012,0.843-5.304,2.528-6.873
				c1.685-1.569,4.023-2.354,7.016-2.354c2.97,0,5.113,0.774,6.431,2.323c1.316,1.548,1.975,3.471,1.975,5.767v2.275h-10.238v0.189
				c0,0.78,0.231,1.354,0.695,1.722c0.463,0.369,1.232,0.553,2.307,0.553c1.285,0,2.507-0.095,3.666-0.284
				c1.158-0.19,2.169-0.432,3.033-0.727v5.056c-0.737,0.4-1.817,0.764-3.239,1.09c-1.422,0.326-2.965,0.49-4.629,0.49
				C346.843,75.293,344.504,74.508,342.819,72.938z M351.667,63.727v-0.379c0-0.716-0.152-1.232-0.458-1.548
				s-0.764-0.474-1.374-0.474c-0.611,0-1.07,0.164-1.375,0.49c-0.306,0.327-0.458,0.837-0.458,1.533v0.379H351.667z"/>
			<path fill="#1868FB" d="M360.706,67.93l-1.454-16.085v-1.58h9.449v1.58l-1.485,16.085H360.706z M360.39,74.851v-5.183h7.142
				v5.183H360.39z"/>
		</g>
		<g>
			<g>
				<path fill="#FFFFFF" d="M151.709,188.938v2.646H131.08v-2.646h8.657v-3.858c-4.007-0.495-6.852-2.795-6.852-6.184
					c0-3.81,3.636-6.283,8.484-6.283c4.873,0,8.509,2.473,8.509,6.283c0,3.388-2.844,5.713-6.876,6.184v3.858H151.709z
					 M141.37,182.582c3.142,0,5.293-1.36,5.293-3.685c0-2.325-2.152-3.686-5.293-3.686c-3.116,0-5.269,1.36-5.269,3.686
					C136.101,181.221,138.253,182.582,141.37,182.582z"/>
				<path fill="#FFFFFF" d="M174.462,180.059v2.573h-20.629v-2.573H174.462z M159.473,191.511h13.208v2.449h-16.498v-6.184h12.565
					v-1.286h-12.59v-2.449h15.879v6.035h-12.565V191.511z M172.087,178.6h-15.707v-6.926h3.265v4.353h12.442V178.6z"/>
				<path fill="#FFFFFF" d="M197.214,188.988v2.671h-20.629v-2.671h8.657v-4.749h-6.258v-11.229h15.855v2.622h-12.565v5.986h12.738
					v2.622h-6.505v4.749H197.214z"/>
				<path fill="#FFFFFF" d="M226.843,180.702v2.548h-20.58v-2.548H226.843z M207.179,177.61c4.254-0.272,6.529-1.558,7.223-2.918
					h-6.258v-2.548h16.844v2.548h-6.258c0.668,1.385,2.919,2.622,7.197,2.918l-0.989,2.474c-4.204-0.297-7.024-1.632-8.36-3.512
					c-1.36,1.88-4.204,3.215-8.385,3.512L207.179,177.61z M211.878,191.635h13.06v2.424h-16.3v-5.961h12.491v-1.237h-12.516v-2.375
					h15.73v5.837h-12.466V191.635z"/>
				<path fill="#FFFFFF" d="M240.814,172.737c0,6.085-3.463,9.894-10.364,11.625l-1.236-2.523c5.194-1.237,7.643-3.587,8.088-6.505
					H230.4v-2.597H240.814z M244.821,184.783h3.24v9.201h-15.088v-9.201h3.215v2.127h8.633V184.783z M244.821,189.433h-8.633v1.954
					h8.633V189.433z M248.062,171.451v12.318h-3.266v-4.452h-3.957v-2.647h3.957v-5.219H248.062z"/>
				<path fill="#FFFFFF" d="M263.468,171.946h3.043v21.272h-3.043V182.78h-3.562c-1.286,2.597-3.364,4.848-6.579,6.728l-1.855-2.3
					c4.552-2.721,6.555-6.01,6.95-10.463h-5.688v-2.597h8.929c0,2.152-0.197,4.155-0.741,6.01h2.547V171.946z M271.358,171.426
					v22.781h-3.092v-22.781H271.358z"/>
				<path fill="#FFFFFF" d="M275.783,190.076c0-1.335,0.965-2.375,2.251-2.375s2.275,1.039,2.275,2.375
					c0,1.336-0.989,2.375-2.275,2.375S275.783,191.412,275.783,190.076z M276.327,176.744l-0.124-3.438h3.661l-0.124,3.438
					l-0.52,9.127h-2.374L276.327,176.744z"/>
				<path fill="#FFFFFF" d="M119.953,206.304h-13.431v-2.572h5.07v-2.202h3.29v2.202h5.071V206.304z M113.25,215.183
					c-3.29,0-5.59-1.632-5.59-4.106c0-2.424,2.3-4.081,5.59-4.081s5.59,1.657,5.59,4.081
					C118.84,213.551,116.54,215.183,113.25,215.183z M109.664,216.396h14.816v7.791h-14.816V216.396z M113.25,212.784
					c1.459,0,2.474-0.569,2.474-1.707c0-1.113-1.014-1.682-2.474-1.682s-2.474,0.569-2.474,1.682
					C110.776,212.215,111.791,212.784,113.25,212.784z M112.879,221.639h8.41v-2.671h-8.41V221.639z M127.497,209.964h-3.018v5.441
					h-3.265v-13.703h3.265v5.59h3.018V209.964z"/>
				<path fill="#FFFFFF" d="M134.84,204.25c0,5.788-0.544,10.883-3.389,15.435l-2.498-1.385c2.275-3.562,2.943-6.975,3.092-11.402
					h-2.35v-2.647H134.84z M141.568,202.173h3.018v21.296h-3.018v-10.611h-2.177c-0.47,2.795-1.335,5.441-2.869,7.915l-2.498-1.385
					c2.498-3.883,3.018-7.841,3.116-12.491h-1.632v-2.647h4.403c0,2.053-0.05,4.032-0.223,5.986h1.88V202.173z M149.063,201.678
					v22.805h-3.117v-22.805H149.063z"/>
				<path fill="#FFFFFF" d="M179.606,219.215v2.671h-20.629v-2.671h8.657v-4.749h-6.258v-11.229h15.855v2.622h-12.565v5.986h12.738
					v2.622h-6.505v4.749H179.606z"/>
				<path fill="#FFFFFF" d="M193.875,215.356c-2.498-0.816-4.205-2.449-5.169-4.502c-1.014,2.251-2.795,4.057-5.466,4.947
					l-1.632-2.597c3.735-1.212,5.367-4.205,5.367-7.074v-0.321h-4.477v-2.597h12.243v2.597h-4.427v0.296
					c0,2.696,1.558,5.491,5.145,6.703L193.875,215.356z M201.295,221.466v2.597h-15.533v-7.148h3.265v4.551H201.295z
					 M197.511,207.565v-5.887h3.265V218.3h-3.265v-8.088h-3.562v-2.646H197.511z"/>
				<path fill="#FFFFFF" d="M211.557,205.116h3.784v2.597h-10.883v-2.597h3.883v-2.82h3.216V205.116z M214.945,214.145
					c0,3.166-2.078,5.417-4.996,5.417c-2.919,0-4.997-2.251-4.997-5.417c0-3.191,2.078-5.442,4.997-5.442
					C212.867,208.703,214.945,210.954,214.945,214.145z M212.076,214.145c0-1.707-0.891-2.721-2.127-2.721
					c-1.237,0-2.127,1.014-2.127,2.721c0,1.707,0.89,2.696,2.127,2.696C211.186,216.84,212.076,215.851,212.076,214.145z
					 M224.022,201.653v22.781h-3.092v-10.858h-1.731v9.918h-3.042v-21.396h3.042v8.855h1.731v-9.3H224.022z"/>
				<path fill="#FFFFFF" d="M247.839,211.102v2.548h-20.604v-2.548h8.607v-1.459h-5.985v-7.618h3.24v1.509h8.88v-1.509h3.24v7.618
					h-6.109v1.459H247.839z M232.851,221.862h13.06v2.424h-16.3v-5.912h12.49v-1.138h-12.516v-2.399h15.731v5.788h-12.466V221.862z
					 M233.098,207.244h8.88v-1.336h-8.88V207.244z"/>
				<path fill="#FFFFFF" d="M256.691,204.003c0,6.282-0.569,11.18-4.625,15.682l-2.548-1.855c3.018-3.339,3.908-6.629,4.081-11.205
					h-3.067v-2.622H256.691z M262.974,204.003c0,6.579-0.52,12.194-4.501,17.116l-2.572-1.806c3.018-3.809,3.833-7.618,4.007-12.689
					h-2.449v-2.622H262.974z M271.037,213.279h-2.943v11.155h-3.289v-22.781h3.289v8.929h2.943V213.279z"/>
				<path fill="#FFFFFF" d="M293.37,219.166v2.646h-20.629v-2.646h4.551V213.6c-1.73-1.063-2.77-2.696-2.745-4.675
					c0-3.735,3.587-6.134,8.484-6.134c4.922,0,8.508,2.399,8.508,6.134c0,1.979-1.038,3.611-2.745,4.675v5.565H293.37z
					 M277.763,208.925c0,2.251,2.103,3.562,5.269,3.562s5.293-1.311,5.293-3.562c0-2.275-2.127-3.562-5.293-3.562
					S277.763,206.65,277.763,208.925z M280.532,219.166h5.021v-4.353c-0.791,0.148-1.633,0.222-2.522,0.222
					c-0.891,0-1.707-0.074-2.499-0.222V219.166z"/>
				<path fill="#FFFFFF" d="M302.419,208.159c0-1.237-0.816-2.028-2.103-2.028c-1.088,0-1.954,0.569-2.745,1.385l-2.004-1.831
					c1.286-1.459,3.042-2.473,5.194-2.473c2.968,0,5.145,1.533,5.145,4.699c0,3.513-4.304,4.7-3.933,8.188h-3.166
					C298.214,212.116,302.419,210.533,302.419,208.159z M298.14,220.303c0-1.335,0.965-2.375,2.251-2.375
					c1.311,0,2.275,1.039,2.275,2.375c0,1.336-0.965,2.375-2.275,2.375C299.104,222.678,298.14,221.639,298.14,220.303z"/>
			</g>
		</g>
	</g>
</g>
</svg>
