<?xml version="1.0" encoding="utf-8"?>
<!-- Generator: Adobe Illustrator 16.0.0, SVG Export Plug-In . SVG Version: 6.00 Build 0)  -->
<!DOCTYPE svg PUBLIC "-//W3C//DTD SVG 1.1//EN" "http://www.w3.org/Graphics/SVG/1.1/DTD/svg11.dtd">
<svg version="1.1" xmlns="http://www.w3.org/2000/svg" xmlns:xlink="http://www.w3.org/1999/xlink" x="0px" y="0px" width="414px"
	 height="896px" viewBox="0 0 414 896" enable-background="new 0 0 414 896" xml:space="preserve">
<g id="레이어_1" display="none">
	
		<image display="inline" overflow="visible" opacity="0.5" width="319" height="646" xlink:href="D1F9F379.jpg"  transform="matrix(1.5047 0 0 1.5047 -27.0068 -41.0322)">
	</image>
</g>
<g id="레이어_2">
	<path fill="#3751FE" d="M315.855,300c0,21.653-17.559,39-39.211,39h-60.037l-10.543,16.408L196.723,339h-60.368
		c-21.653,0-39.211-17.347-39.211-39c0-10.822,4.392-20.528,11.484-27.621c7.093-7.093,16.904-11.379,27.727-11.379h140.289
		C298.297,261,315.855,278.347,315.855,300z"/>
	<g id="레이어_5">
		<text transform="matrix(1 0 0 1 129.9575 308.2041)" fill="#FFFFFF" font-family="'Prompt-Light'" font-size="23">Hello! I’m HoY</text>
	</g>
	<g id="레이어_4" display="none">
		<g display="inline">
			<defs>
				<path id="SVGID_1_" d="M-12.667,519.667c0,0,164.341-82.667,446,119.333l48.666,282l-498-5.333L-12.667,519.667z"/>
			</defs>
			<clipPath id="SVGID_2_">
				<use xlink:href="#SVGID_1_"  overflow="visible"/>
			</clipPath>
			<rect x="-6" y="503" clip-path="url(#SVGID_2_)" fill="#001AFF" width="430" height="402"/>
		</g>
		<g display="inline">
			<defs>
				<rect id="SVGID_3_" x="105" y="-8" width="319" height="289"/>
			</defs>
			<clipPath id="SVGID_4_">
				<use xlink:href="#SVGID_3_"  overflow="visible"/>
			</clipPath>
			<path clip-path="url(#SVGID_4_)" fill="#FFD400" d="M104.667-8.167c0,0,22,205.833,345.333,279.833V-8L104.667-8.167z"/>
		</g>
		<g display="inline">
			<defs>
				<rect id="SVGID_5_" x="-3" y="-8" width="236" height="499"/>
			</defs>
			<clipPath id="SVGID_6_">
				<use xlink:href="#SVGID_5_"  overflow="visible"/>
			</clipPath>
			<path clip-path="url(#SVGID_6_)" fill="#75D68A" d="M-3-8.167L202-2c0,0-4.667,314.333-214.667,497L-3-8.167z"/>
		</g>
	</g>
</g>
<g id="레이어_6" display="none">
	<ellipse display="inline" fill="#193693" cx="215" cy="612.502" rx="128" ry="25.501"/>
	<g id="호이.tiff" display="inline">
		
			<image overflow="visible" width="2048" height="2048" id="호이" xlink:href="D1F9F379.png"  transform="matrix(0.2565 0 0 0.2565 -66.5015 202.333)">
		</image>
	</g>
</g>
</svg>
